<svg width="8421" height="4844" viewBox="0 0 8421 4844" fill="none" xmlns="http://www.w3.org/2000/svg">
<g style="mix-blend-mode:hard-light">
<path d="M4211 2422L11 -6.10352e-05V4844L4211 2422Z" fill="#232323"/>
<path d="M4211 2422L11 -6.10352e-05V4844L4211 2422Z" fill="#232323"/>
<path d="M8411 4844L4211 2422V7266L8411 4844Z" fill="#232323"/>
<path d="M8411 4844L4211 2422V7266L8411 4844Z" fill="#232323"/>
<path d="M8411 -3.05176e-05L4211 -2422V2422L8411 -3.05176e-05Z" fill="#232323"/>
<path d="M8411 -3.05176e-05L4211 -2422V2422L8411 -3.05176e-05Z" fill="#232323"/>
<path d="M4211 2422L8411 -6.10352e-05V4844L4211 2422Z" fill="#232323"/>
<path d="M4211 2422L8411 -6.10352e-05V4844L4211 2422Z" fill="#232323"/>
<path d="M11 -3.05176e-05L4211 -2422V2422L11 -3.05176e-05Z" fill="#232323"/>
<path d="M11 -3.05176e-05L4211 -2422V2422L11 -3.05176e-05Z" fill="#232323"/>
<path d="M11 4844L4211 2422V7266L11 4844Z" fill="#232323"/>
<path d="M11 4844L4211 2422V7266L11 4844Z" fill="#232323"/>
<line y1="-5" x2="4848.31" y2="-5" transform="matrix(0.866271 0.499574 -0.498914 0.866652 4211 -2422)" stroke="#ADCC39" stroke-width="10"/>
<line y1="-5" x2="4848.31" y2="-5" transform="matrix(-0.866271 -0.499574 0.498914 -0.866652 4210.95 7266.08)" stroke="#ADCC39" stroke-width="10"/>
<path d="M4211 2422L11 -6.10352e-05V4844L4211 2422Z" fill="#232323"/>
<path d="M4211 2422L11 -6.10352e-05V4844L4211 2422Z" fill="#232323"/>
<path d="M8411 4844L4211 2422V7266L8411 4844Z" fill="#232323"/>
<path d="M8411 4844L4211 2422V7266L8411 4844Z" fill="#232323"/>
<path d="M8411 -3.05176e-05L4211 -2422V2422L8411 -3.05176e-05Z" fill="#232323"/>
<path d="M8411 -3.05176e-05L4211 -2422V2422L8411 -3.05176e-05Z" fill="#232323"/>
<path d="M4211 2422L8411 -6.10352e-05V4844L4211 2422Z" fill="#232323"/>
<path d="M4211 2422L8411 -6.10352e-05V4844L4211 2422Z" fill="#232323"/>
<path d="M11 -3.05176e-05L4211 -2422V2422L11 -3.05176e-05Z" fill="#232323"/>
<path d="M11 -3.05176e-05L4211 -2422V2422L11 -3.05176e-05Z" fill="#232323"/>
<path d="M11 4844L4211 2422V7266L11 4844Z" fill="#232323"/>
<path d="M11 4844L4211 2422V7266L11 4844Z" fill="#232323"/>
<line y1="-5" x2="4848.31" y2="-5" transform="matrix(0.866271 0.499574 -0.498914 0.866652 4211 -2422)" stroke="#ADCC39" stroke-width="10"/>
<line y1="-5" x2="4848.31" y2="-5" transform="matrix(-0.866271 -0.499574 0.498914 -0.866652 4210.95 7266.08)" stroke="#ADCC39" stroke-width="10"/>
<line x1="6" y1="4851.5" x2="6" y2="-0.0102539" stroke="#ADCC39" stroke-width="10"/>
<line x1="6" y1="4851.5" x2="6" y2="-0.0102539" stroke="#ADCC39" stroke-width="10"/>
<line x1="8416" x2="8416" y2="4851.51" stroke="#ADCC39" stroke-width="10"/>
</g>
<g style="mix-blend-mode:lighten">
<path d="M4211 2422L161 4757.5L161 86.5L4211 2422Z" fill="#F4E646"/>
<path d="M4211 2422L161 4757.5L161 86.5L4211 2422Z" fill="#F4E646"/>
<path d="M8261 86.5L4211 2422V-2249L8261 86.5Z" fill="#F4E646"/>
<path d="M8261 86.5L4211 2422V-2249L8261 86.5Z" fill="#F4E646"/>
<path d="M8261 4757.5L4211 7093V2422L8261 4757.5Z" fill="#F4E646"/>
<path d="M8261 4757.5L4211 7093V2422L8261 4757.5Z" fill="#F4E646"/>
<path d="M4211 2422L8261 4757.5V86.5L4211 2422Z" fill="#F4E646"/>
<path d="M4211 2422L8261 4757.5V86.5L4211 2422Z" fill="#F4E646"/>
<path d="M161 4757.5L4211 7093V2422L161 4757.5Z" fill="#F4E646"/>
<path d="M161 4757.5L4211 7093V2422L161 4757.5Z" fill="#F4E646"/>
<path d="M161 86.5L4211 2422V-2249L161 86.5Z" fill="#F4E646"/>
<path d="M161 86.5L4211 2422V-2249L161 86.5Z" fill="#F4E646"/>
<line y1="-5" x2="4675.15" y2="-5" transform="matrix(0.866282 0.499556 0.498895 -0.866662 161 4757.5)" stroke="#ADCC39" stroke-width="10"/>
<line y1="-5" x2="4675.15" y2="-5" transform="matrix(0.866271 -0.499574 -0.498914 -0.866652 4211 7093)" stroke="#ADCC39" stroke-width="10"/>
<line y1="-5" x2="4675.15" y2="-5" transform="matrix(-0.866271 0.499574 0.498914 0.866652 4210.95 -2249.08)" stroke="#ADCC39" stroke-width="10"/>
<line y1="-5" x2="4675.15" y2="-5" transform="matrix(-0.866271 -0.499574 -0.498914 0.866652 8260.95 86.5)" stroke="#ADCC39" stroke-width="10"/>
<path d="M4211 2422L161 4757.5L161 86.5L4211 2422Z" fill="#F4E646"/>
<path d="M4211 2422L161 4757.5L161 86.5L4211 2422Z" fill="#F4E646"/>
<path d="M8261 86.5L4211 2422V-2249L8261 86.5Z" fill="#F4E646"/>
<path d="M8261 86.5L4211 2422V-2249L8261 86.5Z" fill="#F4E646"/>
<path d="M8261 4757.5L4211 7093V2422L8261 4757.5Z" fill="#F4E646"/>
<path d="M8261 4757.5L4211 7093V2422L8261 4757.5Z" fill="#F4E646"/>
<path d="M4211 2422L8261 4757.5V86.5L4211 2422Z" fill="#F4E646"/>
<path d="M4211 2422L8261 4757.5V86.5L4211 2422Z" fill="#F4E646"/>
<path d="M161 4757.5L4211 7093V2422L161 4757.5Z" fill="#F4E646"/>
<path d="M161 4757.5L4211 7093V2422L161 4757.5Z" fill="#F4E646"/>
<path d="M161 86.5L4211 2422V-2249L161 86.5Z" fill="#F4E646"/>
<path d="M161 86.5L4211 2422V-2249L161 86.5Z" fill="#F4E646"/>
<line y1="-5" x2="4675.15" y2="-5" transform="matrix(0.866282 0.499556 0.498895 -0.866662 161 4757.5)" stroke="#ADCC39" stroke-width="10"/>
<line y1="-5" x2="4675.15" y2="-5" transform="matrix(0.866271 -0.499574 -0.498914 -0.866652 4211 7093)" stroke="#ADCC39" stroke-width="10"/>
<line y1="-5" x2="4675.15" y2="-5" transform="matrix(-0.866271 0.499574 0.498914 0.866652 4210.95 -2249.08)" stroke="#ADCC39" stroke-width="10"/>
<line y1="-5" x2="4675.15" y2="-5" transform="matrix(-0.866271 -0.499574 -0.498914 0.866652 8260.95 86.5)" stroke="#ADCC39" stroke-width="10"/>
<line y1="-5" x2="4678.25" y2="-5" transform="matrix(0 1 1 0 161 79.2656)" stroke="#ADCC39" stroke-width="10"/>
<line y1="-5" x2="4678.25" y2="-5" transform="matrix(0 1 1 0 161 79.2656)" stroke="#ADCC39" stroke-width="10"/>
<line y1="-5" x2="4678.25" y2="-5" transform="matrix(0 -1 -1 0 8261 4757.5)" stroke="#ADCC39" stroke-width="10"/>
</g>
<g style="mix-blend-mode:hard-light">
<path d="M4211 2422L311 173L311 4671L4211 2422Z" fill="#232323"/>
<path d="M4211 2422L311 173L311 4671L4211 2422Z" fill="#232323"/>
<path d="M8111 4671L4211 2422V6920L8111 4671Z" fill="#232323"/>
<path d="M8111 4671L4211 2422V6920L8111 4671Z" fill="#232323"/>
<path d="M8111 173L4211 -2076V2422L8111 173Z" fill="#232323"/>
<path d="M8111 173L4211 -2076V2422L8111 173Z" fill="#232323"/>
<path d="M4211 2422L8111 173V4671L4211 2422Z" fill="#232323"/>
<path d="M4211 2422L8111 173V4671L4211 2422Z" fill="#232323"/>
<path d="M311 173L4211 -2076V2422L311 173Z" fill="#232323"/>
<path d="M311 173L4211 -2076V2422L311 173Z" fill="#232323"/>
<path d="M311 4671L4211 2422V6920L311 4671Z" fill="#232323"/>
<path d="M311 4671L4211 2422V6920L311 4671Z" fill="#232323"/>
<line y1="-5" x2="4502" y2="-5" transform="matrix(0.866282 -0.499556 0.498896 0.866662 311 173)" stroke="#ADCC39" stroke-width="10"/>
<line y1="-5" x2="4502" y2="-5" transform="matrix(0.866271 0.499574 -0.498914 0.866652 4211 -2076)" stroke="#ADCC39" stroke-width="10"/>
<line y1="-5" x2="4502" y2="-5" transform="matrix(-0.866271 -0.499574 0.498914 -0.866651 4210.95 6920.08)" stroke="#ADCC39" stroke-width="10"/>
<line y1="-5" x2="4502" y2="-5" transform="matrix(-0.866271 0.499574 -0.498914 -0.866652 8110.95 4671)" stroke="#ADCC39" stroke-width="10"/>
<path d="M4211 2422L311 173L311 4671L4211 2422Z" fill="#232323"/>
<path d="M4211 2422L311 173L311 4671L4211 2422Z" fill="#232323"/>
<path d="M8111 4671L4211 2422V6920L8111 4671Z" fill="#232323"/>
<path d="M8111 4671L4211 2422V6920L8111 4671Z" fill="#232323"/>
<path d="M8111 173L4211 -2076V2422L8111 173Z" fill="#232323"/>
<path d="M8111 173L4211 -2076V2422L8111 173Z" fill="#232323"/>
<path d="M4211 2422L8111 173V4671L4211 2422Z" fill="#232323"/>
<path d="M4211 2422L8111 173V4671L4211 2422Z" fill="#232323"/>
<path d="M311 173L4211 -2076V2422L311 173Z" fill="#232323"/>
<path d="M311 173L4211 -2076V2422L311 173Z" fill="#232323"/>
<path d="M311 4671L4211 2422V6920L311 4671Z" fill="#232323"/>
<path d="M311 4671L4211 2422V6920L311 4671Z" fill="#232323"/>
<line y1="-5" x2="4502" y2="-5" transform="matrix(0.866282 -0.499556 0.498896 0.866662 311 173)" stroke="#ADCC39" stroke-width="10"/>
<line y1="-5" x2="4502" y2="-5" transform="matrix(0.866271 0.499574 -0.498914 0.866652 4211 -2076)" stroke="#ADCC39" stroke-width="10"/>
<line y1="-5" x2="4502" y2="-5" transform="matrix(-0.866271 -0.499574 0.498914 -0.866651 4210.95 6920.08)" stroke="#ADCC39" stroke-width="10"/>
<line y1="-5" x2="4502" y2="-5" transform="matrix(-0.866271 0.499574 -0.498914 -0.866652 8110.95 4671)" stroke="#ADCC39" stroke-width="10"/>
<line x1="306" y1="4677.97" x2="306" y2="172.991" stroke="#ADCC39" stroke-width="10"/>
<line x1="306" y1="4677.97" x2="306" y2="172.991" stroke="#ADCC39" stroke-width="10"/>
<line x1="8116" y1="173" x2="8116" y2="4677.98" stroke="#ADCC39" stroke-width="10"/>
</g>
<g style="mix-blend-mode:lighten">
<path d="M4211 2422L461 4584.5L461 259.5L4211 2422Z" fill="#F4E646"/>
<path d="M4211 2422L461 4584.5L461 259.5L4211 2422Z" fill="#F4E646"/>
<path d="M7961 259.5L4211 2422V-1903L7961 259.5Z" fill="#F4E646"/>
<path d="M7961 259.5L4211 2422V-1903L7961 259.5Z" fill="#F4E646"/>
<path d="M7961 4584.5L4211 6747V2422L7961 4584.5Z" fill="#F4E646"/>
<path d="M7961 4584.5L4211 6747V2422L7961 4584.5Z" fill="#F4E646"/>
<path d="M4211 2422L7961 4584.5V259.5L4211 2422Z" fill="#F4E646"/>
<path d="M4211 2422L7961 4584.5V259.5L4211 2422Z" fill="#F4E646"/>
<path d="M461 4584.5L4211 6747V2422L461 4584.5Z" fill="#F4E646"/>
<path d="M461 4584.5L4211 6747V2422L461 4584.5Z" fill="#F4E646"/>
<path d="M461 259.5L4211 2422V-1903L461 259.5Z" fill="#F4E646"/>
<path d="M461 259.5L4211 2422V-1903L461 259.5Z" fill="#F4E646"/>
<line y1="-5" x2="4328.85" y2="-5" transform="matrix(0.866282 0.499556 0.498896 -0.866662 461 4584.5)" stroke="#ADCC39" stroke-width="10"/>
<line y1="-5" x2="4328.85" y2="-5" transform="matrix(0.866271 -0.499574 -0.498914 -0.866651 4211 6747)" stroke="#ADCC39" stroke-width="10"/>
<line y1="-5" x2="4328.85" y2="-5" transform="matrix(-0.866271 0.499574 0.498914 0.866651 4210.96 -1903.07)" stroke="#ADCC39" stroke-width="10"/>
<line y1="-5" x2="4328.85" y2="-5" transform="matrix(-0.866271 -0.499574 -0.498914 0.866651 7960.96 259.5)" stroke="#ADCC39" stroke-width="10"/>
<path d="M4211 2422L461 4584.5L461 259.5L4211 2422Z" fill="#F4E646"/>
<path d="M4211 2422L461 4584.5L461 259.5L4211 2422Z" fill="#F4E646"/>
<path d="M7961 259.5L4211 2422V-1903L7961 259.5Z" fill="#F4E646"/>
<path d="M7961 259.5L4211 2422V-1903L7961 259.5Z" fill="#F4E646"/>
<path d="M7961 4584.5L4211 6747V2422L7961 4584.5Z" fill="#F4E646"/>
<path d="M7961 4584.5L4211 6747V2422L7961 4584.5Z" fill="#F4E646"/>
<path d="M4211 2422L7961 4584.5V259.5L4211 2422Z" fill="#F4E646"/>
<path d="M4211 2422L7961 4584.5V259.5L4211 2422Z" fill="#F4E646"/>
<path d="M461 4584.5L4211 6747V2422L461 4584.5Z" fill="#F4E646"/>
<path d="M461 4584.5L4211 6747V2422L461 4584.5Z" fill="#F4E646"/>
<path d="M461 259.5L4211 2422V-1903L461 259.5Z" fill="#F4E646"/>
<path d="M461 259.5L4211 2422V-1903L461 259.5Z" fill="#F4E646"/>
<line y1="-5" x2="4328.85" y2="-5" transform="matrix(0.866282 0.499556 0.498896 -0.866662 461 4584.5)" stroke="#ADCC39" stroke-width="10"/>
<line y1="-5" x2="4328.85" y2="-5" transform="matrix(0.866271 -0.499574 -0.498914 -0.866651 4211 6747)" stroke="#ADCC39" stroke-width="10"/>
<line y1="-5" x2="4328.85" y2="-5" transform="matrix(-0.866271 0.499574 0.498914 0.866651 4210.96 -1903.07)" stroke="#ADCC39" stroke-width="10"/>
<line y1="-5" x2="4328.85" y2="-5" transform="matrix(-0.866271 -0.499574 -0.498914 0.866651 7960.96 259.5)" stroke="#ADCC39" stroke-width="10"/>
<line y1="-5" x2="4331.71" y2="-5" transform="matrix(0 1 1 0 461 252.801)" stroke="#ADCC39" stroke-width="10"/>
<line y1="-5" x2="4331.71" y2="-5" transform="matrix(0 1 1 0 461 252.801)" stroke="#ADCC39" stroke-width="10"/>
<line y1="-5" x2="4331.71" y2="-5" transform="matrix(0 -1 -1 0 7961 4584.5)" stroke="#ADCC39" stroke-width="10"/>
</g>
<g style="mix-blend-mode:hard-light">
<path d="M4211 2422L611 345.999L611 4498L4211 2422Z" fill="#232323"/>
<path d="M4211 2422L611 345.999L611 4498L4211 2422Z" fill="#232323"/>
<path d="M7811 4498L4211 2422V6574L7811 4498Z" fill="#232323"/>
<path d="M7811 4498L4211 2422V6574L7811 4498Z" fill="#232323"/>
<path d="M7811 346L4211 -1730V2422L7811 346Z" fill="#232323"/>
<path d="M7811 346L4211 -1730V2422L7811 346Z" fill="#232323"/>
<path d="M4211 2422L7811 345.999V4498L4211 2422Z" fill="#232323"/>
<path d="M4211 2422L7811 345.999V4498L4211 2422Z" fill="#232323"/>
<path d="M611 346L4211 -1730V2422L611 346Z" fill="#232323"/>
<path d="M611 346L4211 -1730V2422L611 346Z" fill="#232323"/>
<path d="M611 4498L4211 2422V6574L611 4498Z" fill="#232323"/>
<path d="M611 4498L4211 2422V6574L611 4498Z" fill="#232323"/>
<line y1="-5" x2="4155.69" y2="-5" transform="matrix(0.866282 -0.499556 0.498895 0.866662 611 346)" stroke="#ADCC39" stroke-width="10"/>
<line y1="-5" x2="4155.69" y2="-5" transform="matrix(0.866271 0.499574 -0.498914 0.866652 4211 -1730)" stroke="#ADCC39" stroke-width="10"/>
<line y1="-5" x2="4155.69" y2="-5" transform="matrix(-0.866271 -0.499574 0.498914 -0.866652 4210.96 6574.07)" stroke="#ADCC39" stroke-width="10"/>
<line y1="-5" x2="4155.69" y2="-5" transform="matrix(-0.866271 0.499574 -0.498914 -0.866652 7810.96 4498)" stroke="#ADCC39" stroke-width="10"/>
<path d="M4211 2422L611 345.999L611 4498L4211 2422Z" fill="#232323"/>
<path d="M4211 2422L611 345.999L611 4498L4211 2422Z" fill="#232323"/>
<path d="M7811 4498L4211 2422V6574L7811 4498Z" fill="#232323"/>
<path d="M7811 4498L4211 2422V6574L7811 4498Z" fill="#232323"/>
<path d="M7811 346L4211 -1730V2422L7811 346Z" fill="#232323"/>
<path d="M7811 346L4211 -1730V2422L7811 346Z" fill="#232323"/>
<path d="M4211 2422L7811 345.999V4498L4211 2422Z" fill="#232323"/>
<path d="M4211 2422L7811 345.999V4498L4211 2422Z" fill="#232323"/>
<path d="M611 346L4211 -1730V2422L611 346Z" fill="#232323"/>
<path d="M611 346L4211 -1730V2422L611 346Z" fill="#232323"/>
<path d="M611 4498L4211 2422V6574L611 4498Z" fill="#232323"/>
<path d="M611 4498L4211 2422V6574L611 4498Z" fill="#232323"/>
<line y1="-5" x2="4155.69" y2="-5" transform="matrix(0.866282 -0.499556 0.498895 0.866662 611 346)" stroke="#ADCC39" stroke-width="10"/>
<line y1="-5" x2="4155.69" y2="-5" transform="matrix(0.866271 0.499574 -0.498914 0.866652 4211 -1730)" stroke="#ADCC39" stroke-width="10"/>
<line y1="-5" x2="4155.69" y2="-5" transform="matrix(-0.866271 -0.499574 0.498914 -0.866652 4210.96 6574.07)" stroke="#ADCC39" stroke-width="10"/>
<line y1="-5" x2="4155.69" y2="-5" transform="matrix(-0.866271 0.499574 -0.498914 -0.866652 7810.96 4498)" stroke="#ADCC39" stroke-width="10"/>
<line x1="606" y1="4504.43" x2="606" y2="345.992" stroke="#ADCC39" stroke-width="10"/>
<line x1="606" y1="4504.43" x2="606" y2="345.992" stroke="#ADCC39" stroke-width="10"/>
<line x1="7816" y1="346" x2="7816" y2="4504.44" stroke="#ADCC39" stroke-width="10"/>
</g>
<g style="mix-blend-mode:lighten">
<path d="M4211 2422L761 4411.5L761 432.5L4211 2422Z" fill="#F4E646"/>
<path d="M4211 2422L761 4411.5L761 432.5L4211 2422Z" fill="#F4E646"/>
<path d="M7661 432.5L4211 2422V-1557L7661 432.5Z" fill="#F4E646"/>
<path d="M7661 432.5L4211 2422V-1557L7661 432.5Z" fill="#F4E646"/>
<path d="M7661 4411.5L4211 6401V2422L7661 4411.5Z" fill="#F4E646"/>
<path d="M7661 4411.5L4211 6401V2422L7661 4411.5Z" fill="#F4E646"/>
<path d="M4211 2422L7661 4411.5V432.5L4211 2422Z" fill="#F4E646"/>
<path d="M4211 2422L7661 4411.5V432.5L4211 2422Z" fill="#F4E646"/>
<path d="M761 4411.5L4211 6401V2422L761 4411.5Z" fill="#F4E646"/>
<path d="M761 4411.5L4211 6401V2422L761 4411.5Z" fill="#F4E646"/>
<path d="M761 432.5L4211 2422V-1557L761 432.5Z" fill="#F4E646"/>
<path d="M761 432.5L4211 2422V-1557L761 432.5Z" fill="#F4E646"/>
<line y1="-5" x2="3982.54" y2="-5" transform="matrix(0.866282 0.499556 0.498896 -0.866662 761 4411.5)" stroke="#ADCC39" stroke-width="10"/>
<line y1="-5" x2="3982.54" y2="-5" transform="matrix(0.866271 -0.499574 -0.498914 -0.866651 4211 6401)" stroke="#ADCC39" stroke-width="10"/>
<line y1="-5" x2="3982.54" y2="-5" transform="matrix(-0.866271 0.499574 0.498914 0.866652 4210.96 -1557.07)" stroke="#ADCC39" stroke-width="10"/>
<line y1="-5" x2="3982.54" y2="-5" transform="matrix(-0.866271 -0.499574 -0.498914 0.866652 7660.96 432.5)" stroke="#ADCC39" stroke-width="10"/>
<path d="M4211 2422L761 4411.5L761 432.5L4211 2422Z" fill="#F4E646"/>
<path d="M4211 2422L761 4411.5L761 432.5L4211 2422Z" fill="#F4E646"/>
<path d="M7661 432.5L4211 2422V-1557L7661 432.5Z" fill="#F4E646"/>
<path d="M7661 432.5L4211 2422V-1557L7661 432.5Z" fill="#F4E646"/>
<path d="M7661 4411.5L4211 6401V2422L7661 4411.5Z" fill="#F4E646"/>
<path d="M7661 4411.5L4211 6401V2422L7661 4411.5Z" fill="#F4E646"/>
<path d="M4211 2422L7661 4411.5V432.5L4211 2422Z" fill="#F4E646"/>
<path d="M4211 2422L7661 4411.5V432.5L4211 2422Z" fill="#F4E646"/>
<path d="M761 4411.5L4211 6401V2422L761 4411.5Z" fill="#F4E646"/>
<path d="M761 4411.5L4211 6401V2422L761 4411.5Z" fill="#F4E646"/>
<path d="M761 432.5L4211 2422V-1557L761 432.5Z" fill="#F4E646"/>
<path d="M761 432.5L4211 2422V-1557L761 432.5Z" fill="#F4E646"/>
<line y1="-5" x2="3982.54" y2="-5" transform="matrix(0.866282 0.499556 0.498896 -0.866662 761 4411.5)" stroke="#ADCC39" stroke-width="10"/>
<line y1="-5" x2="3982.54" y2="-5" transform="matrix(0.866271 -0.499574 -0.498914 -0.866651 4211 6401)" stroke="#ADCC39" stroke-width="10"/>
<line y1="-5" x2="3982.54" y2="-5" transform="matrix(-0.866271 0.499574 0.498914 0.866652 4210.96 -1557.07)" stroke="#ADCC39" stroke-width="10"/>
<line y1="-5" x2="3982.54" y2="-5" transform="matrix(-0.866271 -0.499574 -0.498914 0.866652 7660.96 432.5)" stroke="#ADCC39" stroke-width="10"/>
<line y1="-5" x2="3985.17" y2="-5" transform="matrix(0 1 1 0 761 426.338)" stroke="#ADCC39" stroke-width="10"/>
<line y1="-5" x2="3985.17" y2="-5" transform="matrix(0 1 1 0 761 426.338)" stroke="#ADCC39" stroke-width="10"/>
<line y1="-5" x2="3985.17" y2="-5" transform="matrix(0 -1 -1 0 7661 4411.5)" stroke="#ADCC39" stroke-width="10"/>
</g>
<g style="mix-blend-mode:hard-light">
<path d="M4211 2422L911 519L911 4325L4211 2422Z" fill="#232323"/>
<path d="M4211 2422L911 519L911 4325L4211 2422Z" fill="#232323"/>
<path d="M7511 4325L4211 2422V6228L7511 4325Z" fill="#232323"/>
<path d="M7511 4325L4211 2422V6228L7511 4325Z" fill="#232323"/>
<path d="M7511 519L4211 -1384V2422L7511 519Z" fill="#232323"/>
<path d="M7511 519L4211 -1384V2422L7511 519Z" fill="#232323"/>
<path d="M4211 2422L7511 519V4325L4211 2422Z" fill="#232323"/>
<path d="M4211 2422L7511 519V4325L4211 2422Z" fill="#232323"/>
<path d="M911 519L4211 -1384V2422L911 519Z" fill="#232323"/>
<path d="M911 519L4211 -1384V2422L911 519Z" fill="#232323"/>
<path d="M911 4325L4211 2422V6228L911 4325Z" fill="#232323"/>
<path d="M911 4325L4211 2422V6228L911 4325Z" fill="#232323"/>
<line y1="-5" x2="3809.38" y2="-5" transform="matrix(0.866282 -0.499556 0.498896 0.866662 911 519)" stroke="#ADCC39" stroke-width="10"/>
<line y1="-5" x2="3809.38" y2="-5" transform="matrix(0.866271 0.499574 -0.498914 0.866652 4211 -1384)" stroke="#ADCC39" stroke-width="10"/>
<line y1="-5" x2="3809.38" y2="-5" transform="matrix(-0.866271 -0.499574 0.498914 -0.866652 4210.96 6228.06)" stroke="#ADCC39" stroke-width="10"/>
<line y1="-5" x2="3809.39" y2="-5" transform="matrix(-0.866271 0.499574 -0.498914 -0.866652 7510.96 4325)" stroke="#ADCC39" stroke-width="10"/>
<path d="M4211 2422L911 519L911 4325L4211 2422Z" fill="#232323"/>
<path d="M4211 2422L911 519L911 4325L4211 2422Z" fill="#232323"/>
<path d="M7511 4325L4211 2422V6228L7511 4325Z" fill="#232323"/>
<path d="M7511 4325L4211 2422V6228L7511 4325Z" fill="#232323"/>
<path d="M7511 519L4211 -1384V2422L7511 519Z" fill="#232323"/>
<path d="M7511 519L4211 -1384V2422L7511 519Z" fill="#232323"/>
<path d="M4211 2422L7511 519V4325L4211 2422Z" fill="#232323"/>
<path d="M4211 2422L7511 519V4325L4211 2422Z" fill="#232323"/>
<path d="M911 519L4211 -1384V2422L911 519Z" fill="#232323"/>
<path d="M911 519L4211 -1384V2422L911 519Z" fill="#232323"/>
<path d="M911 4325L4211 2422V6228L911 4325Z" fill="#232323"/>
<path d="M911 4325L4211 2422V6228L911 4325Z" fill="#232323"/>
<line y1="-5" x2="3809.38" y2="-5" transform="matrix(0.866282 -0.499556 0.498896 0.866662 911 519)" stroke="#ADCC39" stroke-width="10"/>
<line y1="-5" x2="3809.38" y2="-5" transform="matrix(0.866271 0.499574 -0.498914 0.866652 4211 -1384)" stroke="#ADCC39" stroke-width="10"/>
<line y1="-5" x2="3809.38" y2="-5" transform="matrix(-0.866271 -0.499574 0.498914 -0.866652 4210.96 6228.06)" stroke="#ADCC39" stroke-width="10"/>
<line y1="-5" x2="3809.39" y2="-5" transform="matrix(-0.866271 0.499574 -0.498914 -0.866652 7510.96 4325)" stroke="#ADCC39" stroke-width="10"/>
<line x1="906" y1="4330.89" x2="906" y2="518.991" stroke="#ADCC39" stroke-width="10"/>
<line x1="906" y1="4330.89" x2="906" y2="518.991" stroke="#ADCC39" stroke-width="10"/>
<line x1="7516" y1="519" x2="7516" y2="4330.9" stroke="#ADCC39" stroke-width="10"/>
</g>
<g style="mix-blend-mode:lighten">
<path d="M4211 2423L1061 4239.5V606.5L4211 2423Z" fill="#F4E646"/>
<path d="M4211 2423L1061 4239.5V606.5L4211 2423Z" fill="#F4E646"/>
<path d="M7361 606.5L4211 2423V-1210L7361 606.5Z" fill="#F4E646"/>
<path d="M7361 606.5L4211 2423V-1210L7361 606.5Z" fill="#F4E646"/>
<path d="M7361 4239.5L4211 6056V2423L7361 4239.5Z" fill="#F4E646"/>
<path d="M7361 4239.5L4211 6056V2423L7361 4239.5Z" fill="#F4E646"/>
<path d="M4211 2423L7361 4239.5V606.5L4211 2423Z" fill="#F4E646"/>
<path d="M4211 2423L7361 4239.5V606.5L4211 2423Z" fill="#F4E646"/>
<path d="M1061 4239.5L4211 6056V2423L1061 4239.5Z" fill="#F4E646"/>
<path d="M1061 4239.5L4211 6056V2423L1061 4239.5Z" fill="#F4E646"/>
<path d="M1061 606.5L4211 2423V-1210L1061 606.5Z" fill="#F4E646"/>
<path d="M1061 606.5L4211 2423V-1210L1061 606.5Z" fill="#F4E646"/>
<line y1="-5" x2="3636.23" y2="-5" transform="matrix(0.866282 0.499556 0.498896 -0.866662 1061 4239.5)" stroke="#ADCC39" stroke-width="10"/>
<line y1="-5" x2="3636.23" y2="-5" transform="matrix(0.866271 -0.499574 -0.498914 -0.866651 4211 6056)" stroke="#ADCC39" stroke-width="10"/>
<line y1="-5" x2="3636.23" y2="-5" transform="matrix(-0.866271 0.499574 0.498914 0.866652 4210.96 -1210.06)" stroke="#ADCC39" stroke-width="10"/>
<line y1="-5" x2="3636.23" y2="-5" transform="matrix(-0.866271 -0.499574 -0.498914 0.866651 7360.96 606.5)" stroke="#ADCC39" stroke-width="10"/>
<path d="M4211 2423L1061 4239.5V606.5L4211 2423Z" fill="#F4E646"/>
<path d="M4211 2423L1061 4239.5V606.5L4211 2423Z" fill="#F4E646"/>
<path d="M7361 606.5L4211 2423V-1210L7361 606.5Z" fill="#F4E646"/>
<path d="M7361 606.5L4211 2423V-1210L7361 606.5Z" fill="#F4E646"/>
<path d="M7361 4239.5L4211 6056V2423L7361 4239.5Z" fill="#F4E646"/>
<path d="M7361 4239.5L4211 6056V2423L7361 4239.5Z" fill="#F4E646"/>
<path d="M4211 2423L7361 4239.5V606.5L4211 2423Z" fill="#F4E646"/>
<path d="M4211 2423L7361 4239.5V606.5L4211 2423Z" fill="#F4E646"/>
<path d="M1061 4239.5L4211 6056V2423L1061 4239.5Z" fill="#F4E646"/>
<path d="M1061 4239.5L4211 6056V2423L1061 4239.5Z" fill="#F4E646"/>
<path d="M1061 606.5L4211 2423V-1210L1061 606.5Z" fill="#F4E646"/>
<path d="M1061 606.5L4211 2423V-1210L1061 606.5Z" fill="#F4E646"/>
<line y1="-5" x2="3636.23" y2="-5" transform="matrix(0.866282 0.499556 0.498896 -0.866662 1061 4239.5)" stroke="#ADCC39" stroke-width="10"/>
<line y1="-5" x2="3636.23" y2="-5" transform="matrix(0.866271 -0.499574 -0.498914 -0.866651 4211 6056)" stroke="#ADCC39" stroke-width="10"/>
<line y1="-5" x2="3636.23" y2="-5" transform="matrix(-0.866271 0.499574 0.498914 0.866652 4210.96 -1210.06)" stroke="#ADCC39" stroke-width="10"/>
<line y1="-5" x2="3636.23" y2="-5" transform="matrix(-0.866271 -0.499574 -0.498914 0.866651 7360.96 606.5)" stroke="#ADCC39" stroke-width="10"/>
<line y1="-5" x2="3638.64" y2="-5" transform="matrix(0 1 1 0 1061 600.873)" stroke="#ADCC39" stroke-width="10"/>
<line y1="-5" x2="3638.64" y2="-5" transform="matrix(0 1 1 0 1061 600.873)" stroke="#ADCC39" stroke-width="10"/>
<line y1="-5" x2="3638.64" y2="-5" transform="matrix(0 -1 -1 0 7361 4239.5)" stroke="#ADCC39" stroke-width="10"/>
</g>
<g style="mix-blend-mode:hard-light">
<path d="M4211 2422L1211 692V4152L4211 2422Z" fill="#232323"/>
<path d="M4211 2422L1211 692V4152L4211 2422Z" fill="#232323"/>
<path d="M7211 4152L4211 2422V5882L7211 4152Z" fill="#232323"/>
<path d="M7211 4152L4211 2422V5882L7211 4152Z" fill="#232323"/>
<path d="M7211 692L4211 -1038V2422L7211 692Z" fill="#232323"/>
<path d="M7211 692L4211 -1038V2422L7211 692Z" fill="#232323"/>
<path d="M4211 2422L7211 692V4152L4211 2422Z" fill="#232323"/>
<path d="M4211 2422L7211 692V4152L4211 2422Z" fill="#232323"/>
<path d="M1211 692L4211 -1038V2422L1211 692Z" fill="#232323"/>
<path d="M1211 692L4211 -1038V2422L1211 692Z" fill="#232323"/>
<path d="M1211 4152L4211 2422V5882L1211 4152Z" fill="#232323"/>
<path d="M1211 4152L4211 2422V5882L1211 4152Z" fill="#232323"/>
<line y1="-5" x2="3463.08" y2="-5" transform="matrix(0.866282 -0.499556 0.498895 0.866662 1211 692)" stroke="#ADCC39" stroke-width="10"/>
<line y1="-5" x2="3463.08" y2="-5" transform="matrix(0.866271 0.499574 -0.498914 0.866652 4211 -1038)" stroke="#ADCC39" stroke-width="10"/>
<line y1="-5" x2="3463.08" y2="-5" transform="matrix(-0.866271 -0.499574 0.498914 -0.866652 4210.96 5882.06)" stroke="#ADCC39" stroke-width="10"/>
<line y1="-5" x2="3463.08" y2="-5" transform="matrix(-0.866271 0.499574 -0.498914 -0.866652 7210.96 4152)" stroke="#ADCC39" stroke-width="10"/>
<path d="M4211 2422L1211 692V4152L4211 2422Z" fill="#232323"/>
<path d="M4211 2422L1211 692V4152L4211 2422Z" fill="#232323"/>
<path d="M7211 4152L4211 2422V5882L7211 4152Z" fill="#232323"/>
<path d="M7211 4152L4211 2422V5882L7211 4152Z" fill="#232323"/>
<path d="M7211 692L4211 -1038V2422L7211 692Z" fill="#232323"/>
<path d="M7211 692L4211 -1038V2422L7211 692Z" fill="#232323"/>
<path d="M4211 2422L7211 692V4152L4211 2422Z" fill="#232323"/>
<path d="M4211 2422L7211 692V4152L4211 2422Z" fill="#232323"/>
<path d="M1211 692L4211 -1038V2422L1211 692Z" fill="#232323"/>
<path d="M1211 692L4211 -1038V2422L1211 692Z" fill="#232323"/>
<path d="M1211 4152L4211 2422V5882L1211 4152Z" fill="#232323"/>
<path d="M1211 4152L4211 2422V5882L1211 4152Z" fill="#232323"/>
<line y1="-5" x2="3463.08" y2="-5" transform="matrix(0.866282 -0.499556 0.498895 0.866662 1211 692)" stroke="#ADCC39" stroke-width="10"/>
<line y1="-5" x2="3463.08" y2="-5" transform="matrix(0.866271 0.499574 -0.498914 0.866652 4211 -1038)" stroke="#ADCC39" stroke-width="10"/>
<line y1="-5" x2="3463.08" y2="-5" transform="matrix(-0.866271 -0.499574 0.498914 -0.866652 4210.96 5882.06)" stroke="#ADCC39" stroke-width="10"/>
<line y1="-5" x2="3463.08" y2="-5" transform="matrix(-0.866271 0.499574 -0.498914 -0.866652 7210.96 4152)" stroke="#ADCC39" stroke-width="10"/>
<line x1="1206" y1="4157.36" x2="1206" y2="691.992" stroke="#ADCC39" stroke-width="10"/>
<line x1="1206" y1="4157.36" x2="1206" y2="691.992" stroke="#ADCC39" stroke-width="10"/>
<line x1="7216" y1="692" x2="7216" y2="4157.37" stroke="#ADCC39" stroke-width="10"/>
</g>
<g style="mix-blend-mode:lighten">
<path d="M4211 2423L1361 4066.5V779.5L4211 2423Z" fill="#F4E646"/>
<path d="M4211 2423L1361 4066.5V779.5L4211 2423Z" fill="#F4E646"/>
<path d="M7061 779.5L4211 2423V-864L7061 779.5Z" fill="#F4E646"/>
<path d="M7061 779.5L4211 2423V-864L7061 779.5Z" fill="#F4E646"/>
<path d="M7061 4066.5L4211 5710V2423L7061 4066.5Z" fill="#F4E646"/>
<path d="M7061 4066.5L4211 5710V2423L7061 4066.5Z" fill="#F4E646"/>
<path d="M4211 2423L7061 4066.5V779.5L4211 2423Z" fill="#F4E646"/>
<path d="M4211 2423L7061 4066.5V779.5L4211 2423Z" fill="#F4E646"/>
<path d="M1361 4066.5L4211 5710V2423L1361 4066.5Z" fill="#F4E646"/>
<path d="M1361 4066.5L4211 5710V2423L1361 4066.5Z" fill="#F4E646"/>
<path d="M1361 779.5L4211 2423V-864L1361 779.5Z" fill="#F4E646"/>
<path d="M1361 779.5L4211 2423V-864L1361 779.5Z" fill="#F4E646"/>
<line y1="-5" x2="3289.92" y2="-5" transform="matrix(0.866282 0.499556 0.498895 -0.866662 1361 4066.5)" stroke="#ADCC39" stroke-width="10"/>
<line y1="-5" x2="3289.92" y2="-5" transform="matrix(0.866271 -0.499574 -0.498914 -0.866652 4211 5710)" stroke="#ADCC39" stroke-width="10"/>
<line y1="-5" x2="3289.92" y2="-5" transform="matrix(-0.866271 0.499574 0.498914 0.866652 4210.97 -864.057)" stroke="#ADCC39" stroke-width="10"/>
<line y1="-5" x2="3289.92" y2="-5" transform="matrix(-0.866271 -0.499574 -0.498914 0.866652 7060.96 779.5)" stroke="#ADCC39" stroke-width="10"/>
<path d="M4211 2423L1361 4066.5V779.5L4211 2423Z" fill="#F4E646"/>
<path d="M4211 2423L1361 4066.5V779.5L4211 2423Z" fill="#F4E646"/>
<path d="M7061 779.5L4211 2423V-864L7061 779.5Z" fill="#F4E646"/>
<path d="M7061 779.5L4211 2423V-864L7061 779.5Z" fill="#F4E646"/>
<path d="M7061 4066.5L4211 5710V2423L7061 4066.5Z" fill="#F4E646"/>
<path d="M7061 4066.5L4211 5710V2423L7061 4066.5Z" fill="#F4E646"/>
<path d="M4211 2423L7061 4066.5V779.5L4211 2423Z" fill="#F4E646"/>
<path d="M4211 2423L7061 4066.5V779.5L4211 2423Z" fill="#F4E646"/>
<path d="M1361 4066.5L4211 5710V2423L1361 4066.5Z" fill="#F4E646"/>
<path d="M1361 4066.5L4211 5710V2423L1361 4066.5Z" fill="#F4E646"/>
<path d="M1361 779.5L4211 2423V-864L1361 779.5Z" fill="#F4E646"/>
<path d="M1361 779.5L4211 2423V-864L1361 779.5Z" fill="#F4E646"/>
<line y1="-5" x2="3289.92" y2="-5" transform="matrix(0.866282 0.499556 0.498895 -0.866662 1361 4066.5)" stroke="#ADCC39" stroke-width="10"/>
<line y1="-5" x2="3289.92" y2="-5" transform="matrix(0.866271 -0.499574 -0.498914 -0.866652 4211 5710)" stroke="#ADCC39" stroke-width="10"/>
<line y1="-5" x2="3289.92" y2="-5" transform="matrix(-0.866271 0.499574 0.498914 0.866652 4210.97 -864.057)" stroke="#ADCC39" stroke-width="10"/>
<line y1="-5" x2="3289.92" y2="-5" transform="matrix(-0.866271 -0.499574 -0.498914 0.866652 7060.96 779.5)" stroke="#ADCC39" stroke-width="10"/>
<line y1="-5" x2="3292.1" y2="-5" transform="matrix(0 1 1 0 1361 774.408)" stroke="#ADCC39" stroke-width="10"/>
<line y1="-5" x2="3292.1" y2="-5" transform="matrix(0 1 1 0 1361 774.408)" stroke="#ADCC39" stroke-width="10"/>
<line y1="-5" x2="3292.1" y2="-5" transform="matrix(0 -1 -1 0 7061 4066.5)" stroke="#ADCC39" stroke-width="10"/>
</g>
<g style="mix-blend-mode:hard-light">
<path d="M4211 2422L1511 865V3979L4211 2422Z" fill="#232323"/>
<path d="M4211 2422L1511 865V3979L4211 2422Z" fill="#232323"/>
<path d="M6911 3979L4211 2422V5536L6911 3979Z" fill="#232323"/>
<path d="M6911 3979L4211 2422V5536L6911 3979Z" fill="#232323"/>
<path d="M6911 865L4211 -692V2422L6911 865Z" fill="#232323"/>
<path d="M6911 865L4211 -692V2422L6911 865Z" fill="#232323"/>
<path d="M4211 2422L6911 865V3979L4211 2422Z" fill="#232323"/>
<path d="M4211 2422L6911 865V3979L4211 2422Z" fill="#232323"/>
<path d="M1511 865L4211 -692V2422L1511 865Z" fill="#232323"/>
<path d="M1511 865L4211 -692V2422L1511 865Z" fill="#232323"/>
<path d="M1511 3979L4211 2422V5536L1511 3979Z" fill="#232323"/>
<path d="M1511 3979L4211 2422V5536L1511 3979Z" fill="#232323"/>
<line y1="-5" x2="3116.77" y2="-5" transform="matrix(0.866282 -0.499556 0.498895 0.866662 1511 865)" stroke="#ADCC39" stroke-width="10"/>
<line y1="-5" x2="3116.77" y2="-5" transform="matrix(0.866271 0.499574 -0.498914 0.866652 4211 -692)" stroke="#ADCC39" stroke-width="10"/>
<line y1="-5" x2="3116.77" y2="-5" transform="matrix(-0.866271 -0.499574 0.498914 -0.866652 4210.97 5536.05)" stroke="#ADCC39" stroke-width="10"/>
<line y1="-5" x2="3116.77" y2="-5" transform="matrix(-0.866271 0.499574 -0.498914 -0.866652 6910.97 3979)" stroke="#ADCC39" stroke-width="10"/>
<path d="M4211 2422L1511 865V3979L4211 2422Z" fill="#232323"/>
<path d="M4211 2422L1511 865V3979L4211 2422Z" fill="#232323"/>
<path d="M6911 3979L4211 2422V5536L6911 3979Z" fill="#232323"/>
<path d="M6911 3979L4211 2422V5536L6911 3979Z" fill="#232323"/>
<path d="M6911 865L4211 -692V2422L6911 865Z" fill="#232323"/>
<path d="M6911 865L4211 -692V2422L6911 865Z" fill="#232323"/>
<path d="M4211 2422L6911 865V3979L4211 2422Z" fill="#232323"/>
<path d="M4211 2422L6911 865V3979L4211 2422Z" fill="#232323"/>
<path d="M1511 865L4211 -692V2422L1511 865Z" fill="#232323"/>
<path d="M1511 865L4211 -692V2422L1511 865Z" fill="#232323"/>
<path d="M1511 3979L4211 2422V5536L1511 3979Z" fill="#232323"/>
<path d="M1511 3979L4211 2422V5536L1511 3979Z" fill="#232323"/>
<line y1="-5" x2="3116.77" y2="-5" transform="matrix(0.866282 -0.499556 0.498895 0.866662 1511 865)" stroke="#ADCC39" stroke-width="10"/>
<line y1="-5" x2="3116.77" y2="-5" transform="matrix(0.866271 0.499574 -0.498914 0.866652 4211 -692)" stroke="#ADCC39" stroke-width="10"/>
<line y1="-5" x2="3116.77" y2="-5" transform="matrix(-0.866271 -0.499574 0.498914 -0.866652 4210.97 5536.05)" stroke="#ADCC39" stroke-width="10"/>
<line y1="-5" x2="3116.77" y2="-5" transform="matrix(-0.866271 0.499574 -0.498914 -0.866652 6910.97 3979)" stroke="#ADCC39" stroke-width="10"/>
<line x1="1506" y1="3983.82" x2="1506" y2="864.994" stroke="#ADCC39" stroke-width="10"/>
<line x1="1506" y1="3983.82" x2="1506" y2="864.994" stroke="#ADCC39" stroke-width="10"/>
<line x1="6916" y1="865" x2="6916" y2="3983.83" stroke="#ADCC39" stroke-width="10"/>
</g>
<g style="mix-blend-mode:lighten">
<path d="M4211 2422L1661 3892.5V951.5L4211 2422Z" fill="#F4E646"/>
<path d="M4211 2422L1661 3892.5V951.5L4211 2422Z" fill="#F4E646"/>
<path d="M6761 951.5L4211 2422V-519L6761 951.5Z" fill="#F4E646"/>
<path d="M6761 951.5L4211 2422V-519L6761 951.5Z" fill="#F4E646"/>
<path d="M6761 3892.5L4211 5363V2422L6761 3892.5Z" fill="#F4E646"/>
<path d="M6761 3892.5L4211 5363V2422L6761 3892.5Z" fill="#F4E646"/>
<path d="M4211 2422L6761 3892.5V951.5L4211 2422Z" fill="#F4E646"/>
<path d="M4211 2422L6761 3892.5V951.5L4211 2422Z" fill="#F4E646"/>
<path d="M1661 3892.5L4211 5363V2422L1661 3892.5Z" fill="#F4E646"/>
<path d="M1661 3892.5L4211 5363V2422L1661 3892.5Z" fill="#F4E646"/>
<path d="M1661 951.5L4211 2422V-519L1661 951.5Z" fill="#F4E646"/>
<path d="M1661 951.5L4211 2422V-519L1661 951.5Z" fill="#F4E646"/>
<line y1="-5" x2="2943.62" y2="-5" transform="matrix(0.866282 0.499556 0.498895 -0.866662 1661 3892.5)" stroke="#ADCC39" stroke-width="10"/>
<line y1="-5" x2="2943.62" y2="-5" transform="matrix(0.866271 -0.499574 -0.498914 -0.866652 4211 5363)" stroke="#ADCC39" stroke-width="10"/>
<line y1="-5" x2="2943.62" y2="-5" transform="matrix(-0.866271 0.499574 0.498914 0.866652 4210.97 -519.051)" stroke="#ADCC39" stroke-width="10"/>
<line y1="-5" x2="2943.62" y2="-5" transform="matrix(-0.866271 -0.499574 -0.498914 0.866652 6760.97 951.5)" stroke="#ADCC39" stroke-width="10"/>
<path d="M4211 2422L1661 3892.5V951.5L4211 2422Z" fill="#F4E646"/>
<path d="M4211 2422L1661 3892.5V951.5L4211 2422Z" fill="#F4E646"/>
<path d="M6761 951.5L4211 2422V-519L6761 951.5Z" fill="#F4E646"/>
<path d="M6761 951.5L4211 2422V-519L6761 951.5Z" fill="#F4E646"/>
<path d="M6761 3892.5L4211 5363V2422L6761 3892.5Z" fill="#F4E646"/>
<path d="M6761 3892.5L4211 5363V2422L6761 3892.5Z" fill="#F4E646"/>
<path d="M4211 2422L6761 3892.5V951.5L4211 2422Z" fill="#F4E646"/>
<path d="M4211 2422L6761 3892.5V951.5L4211 2422Z" fill="#F4E646"/>
<path d="M1661 3892.5L4211 5363V2422L1661 3892.5Z" fill="#F4E646"/>
<path d="M1661 3892.5L4211 5363V2422L1661 3892.5Z" fill="#F4E646"/>
<path d="M1661 951.5L4211 2422V-519L1661 951.5Z" fill="#F4E646"/>
<path d="M1661 951.5L4211 2422V-519L1661 951.5Z" fill="#F4E646"/>
<line y1="-5" x2="2943.62" y2="-5" transform="matrix(0.866282 0.499556 0.498895 -0.866662 1661 3892.5)" stroke="#ADCC39" stroke-width="10"/>
<line y1="-5" x2="2943.62" y2="-5" transform="matrix(0.866271 -0.499574 -0.498914 -0.866652 4211 5363)" stroke="#ADCC39" stroke-width="10"/>
<line y1="-5" x2="2943.62" y2="-5" transform="matrix(-0.866271 0.499574 0.498914 0.866652 4210.97 -519.051)" stroke="#ADCC39" stroke-width="10"/>
<line y1="-5" x2="2943.62" y2="-5" transform="matrix(-0.866271 -0.499574 -0.498914 0.866652 6760.97 951.5)" stroke="#ADCC39" stroke-width="10"/>
<line y1="-5" x2="2945.56" y2="-5" transform="matrix(0 1 1 0 1661 946.945)" stroke="#ADCC39" stroke-width="10"/>
<line y1="-5" x2="2945.56" y2="-5" transform="matrix(0 1 1 0 1661 946.945)" stroke="#ADCC39" stroke-width="10"/>
<line y1="-5" x2="2945.56" y2="-5" transform="matrix(0 -1 -1 0 6761 3892.5)" stroke="#ADCC39" stroke-width="10"/>
</g>
<g style="mix-blend-mode:hard-light">
<path d="M4211 2423L1811 1039V3807L4211 2423Z" fill="#232323"/>
<path d="M4211 2423L1811 1039V3807L4211 2423Z" fill="#232323"/>
<path d="M6611 3807L4211 2423V5191L6611 3807Z" fill="#232323"/>
<path d="M6611 3807L4211 2423V5191L6611 3807Z" fill="#232323"/>
<path d="M6611 1039L4211 -345V2423L6611 1039Z" fill="#232323"/>
<path d="M6611 1039L4211 -345V2423L6611 1039Z" fill="#232323"/>
<path d="M4211 2423L6611 1039V3807L4211 2423Z" fill="#232323"/>
<path d="M4211 2423L6611 1039V3807L4211 2423Z" fill="#232323"/>
<path d="M1811 1039L4211 -345V2423L1811 1039Z" fill="#232323"/>
<path d="M1811 1039L4211 -345V2423L1811 1039Z" fill="#232323"/>
<path d="M1811 3807L4211 2423V5191L1811 3807Z" fill="#232323"/>
<path d="M1811 3807L4211 2423V5191L1811 3807Z" fill="#232323"/>
<line y1="-5" x2="2770.46" y2="-5" transform="matrix(0.866282 -0.499556 0.498895 0.866662 1811 1039)" stroke="#ADCC39" stroke-width="10"/>
<line y1="-5" x2="2770.46" y2="-5" transform="matrix(0.866271 0.499574 -0.498914 0.866652 4211 -345)" stroke="#ADCC39" stroke-width="10"/>
<line y1="-5" x2="2770.46" y2="-5" transform="matrix(-0.866271 -0.499574 0.498914 -0.866652 4210.97 5191.05)" stroke="#ADCC39" stroke-width="10"/>
<line y1="-5" x2="2770.46" y2="-5" transform="matrix(-0.866271 0.499574 -0.498914 -0.866652 6610.97 3807)" stroke="#ADCC39" stroke-width="10"/>
<path d="M4211 2423L1811 1039V3807L4211 2423Z" fill="#232323"/>
<path d="M4211 2423L1811 1039V3807L4211 2423Z" fill="#232323"/>
<path d="M6611 3807L4211 2423V5191L6611 3807Z" fill="#232323"/>
<path d="M6611 3807L4211 2423V5191L6611 3807Z" fill="#232323"/>
<path d="M6611 1039L4211 -345V2423L6611 1039Z" fill="#232323"/>
<path d="M6611 1039L4211 -345V2423L6611 1039Z" fill="#232323"/>
<path d="M4211 2423L6611 1039V3807L4211 2423Z" fill="#232323"/>
<path d="M4211 2423L6611 1039V3807L4211 2423Z" fill="#232323"/>
<path d="M1811 1039L4211 -345V2423L1811 1039Z" fill="#232323"/>
<path d="M1811 1039L4211 -345V2423L1811 1039Z" fill="#232323"/>
<path d="M1811 3807L4211 2423V5191L1811 3807Z" fill="#232323"/>
<path d="M1811 3807L4211 2423V5191L1811 3807Z" fill="#232323"/>
<line y1="-5" x2="2770.46" y2="-5" transform="matrix(0.866282 -0.499556 0.498895 0.866662 1811 1039)" stroke="#ADCC39" stroke-width="10"/>
<line y1="-5" x2="2770.46" y2="-5" transform="matrix(0.866271 0.499574 -0.498914 0.866652 4211 -345)" stroke="#ADCC39" stroke-width="10"/>
<line y1="-5" x2="2770.46" y2="-5" transform="matrix(-0.866271 -0.499574 0.498914 -0.866652 4210.97 5191.05)" stroke="#ADCC39" stroke-width="10"/>
<line y1="-5" x2="2770.46" y2="-5" transform="matrix(-0.866271 0.499574 -0.498914 -0.866652 6610.97 3807)" stroke="#ADCC39" stroke-width="10"/>
<line x1="1806" y1="3811.29" x2="1806" y2="1038.99" stroke="#ADCC39" stroke-width="10"/>
<line x1="1806" y1="3811.29" x2="1806" y2="1038.99" stroke="#ADCC39" stroke-width="10"/>
<line x1="6616" y1="1039" x2="6616" y2="3811.29" stroke="#ADCC39" stroke-width="10"/>
</g>
<g style="mix-blend-mode:lighten">
<path d="M4211 2422L1961 3719.5V1124.5L4211 2422Z" fill="#F4E646"/>
<path d="M4211 2422L1961 3719.5V1124.5L4211 2422Z" fill="#F4E646"/>
<path d="M6461 1124.5L4211 2422V-173L6461 1124.5Z" fill="#F4E646"/>
<path d="M6461 1124.5L4211 2422V-173L6461 1124.5Z" fill="#F4E646"/>
<path d="M6461 3719.5L4211 5017V2422L6461 3719.5Z" fill="#F4E646"/>
<path d="M6461 3719.5L4211 5017V2422L6461 3719.5Z" fill="#F4E646"/>
<path d="M4211 2422L6461 3719.5V1124.5L4211 2422Z" fill="#F4E646"/>
<path d="M4211 2422L6461 3719.5V1124.5L4211 2422Z" fill="#F4E646"/>
<path d="M1961 3719.5L4211 5017V2422L1961 3719.5Z" fill="#F4E646"/>
<path d="M1961 3719.5L4211 5017V2422L1961 3719.5Z" fill="#F4E646"/>
<path d="M1961 1124.5L4211 2422V-173L1961 1124.5Z" fill="#F4E646"/>
<path d="M1961 1124.5L4211 2422V-173L1961 1124.5Z" fill="#F4E646"/>
<line y1="-5" x2="2597.31" y2="-5" transform="matrix(0.866282 0.499556 0.498895 -0.866662 1961 3719.5)" stroke="#ADCC39" stroke-width="10"/>
<line y1="-5" x2="2597.31" y2="-5" transform="matrix(0.866271 -0.499574 -0.498914 -0.866652 4211 5017)" stroke="#ADCC39" stroke-width="10"/>
<line y1="-5" x2="2597.31" y2="-5" transform="matrix(-0.866271 0.499574 0.498914 0.866652 4210.97 -173.045)" stroke="#ADCC39" stroke-width="10"/>
<line y1="-5" x2="2597.31" y2="-5" transform="matrix(-0.866271 -0.499574 -0.498914 0.866652 6460.97 1124.5)" stroke="#ADCC39" stroke-width="10"/>
<path d="M4211 2422L1961 3719.5V1124.5L4211 2422Z" fill="#F4E646"/>
<path d="M4211 2422L1961 3719.5V1124.5L4211 2422Z" fill="#F4E646"/>
<path d="M6461 1124.5L4211 2422V-173L6461 1124.5Z" fill="#F4E646"/>
<path d="M6461 1124.5L4211 2422V-173L6461 1124.5Z" fill="#F4E646"/>
<path d="M6461 3719.5L4211 5017V2422L6461 3719.5Z" fill="#F4E646"/>
<path d="M6461 3719.5L4211 5017V2422L6461 3719.5Z" fill="#F4E646"/>
<path d="M4211 2422L6461 3719.5V1124.5L4211 2422Z" fill="#F4E646"/>
<path d="M4211 2422L6461 3719.5V1124.5L4211 2422Z" fill="#F4E646"/>
<path d="M1961 3719.5L4211 5017V2422L1961 3719.5Z" fill="#F4E646"/>
<path d="M1961 3719.5L4211 5017V2422L1961 3719.5Z" fill="#F4E646"/>
<path d="M1961 1124.5L4211 2422V-173L1961 1124.5Z" fill="#F4E646"/>
<path d="M1961 1124.5L4211 2422V-173L1961 1124.5Z" fill="#F4E646"/>
<line y1="-5" x2="2597.31" y2="-5" transform="matrix(0.866282 0.499556 0.498895 -0.866662 1961 3719.5)" stroke="#ADCC39" stroke-width="10"/>
<line y1="-5" x2="2597.31" y2="-5" transform="matrix(0.866271 -0.499574 -0.498914 -0.866652 4211 5017)" stroke="#ADCC39" stroke-width="10"/>
<line y1="-5" x2="2597.31" y2="-5" transform="matrix(-0.866271 0.499574 0.498914 0.866652 4210.97 -173.045)" stroke="#ADCC39" stroke-width="10"/>
<line y1="-5" x2="2597.31" y2="-5" transform="matrix(-0.866271 -0.499574 -0.498914 0.866652 6460.97 1124.5)" stroke="#ADCC39" stroke-width="10"/>
<line y1="-5" x2="2599.03" y2="-5" transform="matrix(0 1 1 0 1961 1120.48)" stroke="#ADCC39" stroke-width="10"/>
<line y1="-5" x2="2599.03" y2="-5" transform="matrix(0 1 1 0 1961 1120.48)" stroke="#ADCC39" stroke-width="10"/>
<line y1="-5" x2="2599.03" y2="-5" transform="matrix(0 -1 -1 0 6461 3719.5)" stroke="#ADCC39" stroke-width="10"/>
</g>
<g style="mix-blend-mode:hard-light">
<path d="M4211 2422L2111 1211V3633L4211 2422Z" fill="#232323"/>
<path d="M4211 2422L2111 1211V3633L4211 2422Z" fill="#232323"/>
<path d="M6311 3633L4211 2422V4844L6311 3633Z" fill="#232323"/>
<path d="M6311 3633L4211 2422V4844L6311 3633Z" fill="#232323"/>
<path d="M6311 1211L4211 0.000301361V2422L6311 1211Z" fill="#232323"/>
<path d="M6311 1211L4211 0.000301361V2422L6311 1211Z" fill="#232323"/>
<path d="M4211 2422L6311 1211V3633L4211 2422Z" fill="#232323"/>
<path d="M4211 2422L6311 1211V3633L4211 2422Z" fill="#232323"/>
<path d="M2111 1211L4211 0.000301361V2422L2111 1211Z" fill="#232323"/>
<path d="M2111 1211L4211 0.000301361V2422L2111 1211Z" fill="#232323"/>
<path d="M2111 3633L4211 2422V4844L2111 3633Z" fill="#232323"/>
<path d="M2111 3633L4211 2422V4844L2111 3633Z" fill="#232323"/>
<line y1="-5" x2="2424.15" y2="-5" transform="matrix(0.866282 -0.499556 0.498896 0.866662 2111 1211)" stroke="#ADCC39" stroke-width="10"/>
<line y1="-5" x2="2424.15" y2="-5" transform="matrix(0.866271 0.499574 -0.498914 0.866651 4211 0)" stroke="#ADCC39" stroke-width="10"/>
<line y1="-5" x2="2424.15" y2="-5" transform="matrix(-0.866271 -0.499574 0.498914 -0.866652 4210.97 4844.04)" stroke="#ADCC39" stroke-width="10"/>
<line y1="-5" x2="2424.15" y2="-5" transform="matrix(-0.866271 0.499574 -0.498914 -0.866652 6310.97 3633)" stroke="#ADCC39" stroke-width="10"/>
<path d="M4211 2422L2111 1211V3633L4211 2422Z" fill="#232323"/>
<path d="M4211 2422L2111 1211V3633L4211 2422Z" fill="#232323"/>
<path d="M6311 3633L4211 2422V4844L6311 3633Z" fill="#232323"/>
<path d="M6311 3633L4211 2422V4844L6311 3633Z" fill="#232323"/>
<path d="M6311 1211L4211 0.000301361V2422L6311 1211Z" fill="#232323"/>
<path d="M6311 1211L4211 0.000301361V2422L6311 1211Z" fill="#232323"/>
<path d="M4211 2422L6311 1211V3633L4211 2422Z" fill="#232323"/>
<path d="M4211 2422L6311 1211V3633L4211 2422Z" fill="#232323"/>
<path d="M2111 1211L4211 0.000301361V2422L2111 1211Z" fill="#232323"/>
<path d="M2111 1211L4211 0.000301361V2422L2111 1211Z" fill="#232323"/>
<path d="M2111 3633L4211 2422V4844L2111 3633Z" fill="#232323"/>
<path d="M2111 3633L4211 2422V4844L2111 3633Z" fill="#232323"/>
<line y1="-5" x2="2424.15" y2="-5" transform="matrix(0.866282 -0.499556 0.498896 0.866662 2111 1211)" stroke="#ADCC39" stroke-width="10"/>
<line y1="-5" x2="2424.15" y2="-5" transform="matrix(0.866271 0.499574 -0.498914 0.866651 4211 0)" stroke="#ADCC39" stroke-width="10"/>
<line y1="-5" x2="2424.15" y2="-5" transform="matrix(-0.866271 -0.499574 0.498914 -0.866652 4210.97 4844.04)" stroke="#ADCC39" stroke-width="10"/>
<line y1="-5" x2="2424.15" y2="-5" transform="matrix(-0.866271 0.499574 -0.498914 -0.866652 6310.97 3633)" stroke="#ADCC39" stroke-width="10"/>
<line x1="2106" y1="3636.75" x2="2106" y2="1211" stroke="#ADCC39" stroke-width="10"/>
<line x1="2106" y1="3636.75" x2="2106" y2="1211" stroke="#ADCC39" stroke-width="10"/>
<line x1="6316" y1="1211" x2="6316" y2="3636.76" stroke="#ADCC39" stroke-width="10"/>
</g>
<g style="mix-blend-mode:lighten">
<path d="M4211 2422L2261 1297.5V3546.5L4211 2422Z" fill="#F4E646"/>
<path d="M4211 2422L2261 1297.5V3546.5L4211 2422Z" fill="#F4E646"/>
<path d="M6161 3546.5L4211 2422V4671L6161 3546.5Z" fill="#F4E646"/>
<path d="M6161 3546.5L4211 2422V4671L6161 3546.5Z" fill="#F4E646"/>
<path d="M6161 1297.5L4211 173V2422L6161 1297.5Z" fill="#F4E646"/>
<path d="M6161 1297.5L4211 173V2422L6161 1297.5Z" fill="#F4E646"/>
<path d="M4211 2422L6161 1297.5V3546.5L4211 2422Z" fill="#F4E646"/>
<path d="M4211 2422L6161 1297.5V3546.5L4211 2422Z" fill="#F4E646"/>
<path d="M2261 1297.5L4211 173V2422L2261 1297.5Z" fill="#F4E646"/>
<path d="M2261 1297.5L4211 173V2422L2261 1297.5Z" fill="#F4E646"/>
<path d="M2261 3546.5L4211 2422V4671L2261 3546.5Z" fill="#F4E646"/>
<path d="M2261 3546.5L4211 2422V4671L2261 3546.5Z" fill="#F4E646"/>
<line y1="-5" x2="2251" y2="-5" transform="matrix(0.866282 -0.499556 0.498896 0.866662 2261 1297.5)" stroke="#ADCC39" stroke-width="10"/>
<line y1="-5" x2="2251" y2="-5" transform="matrix(0.866271 0.499574 -0.498914 0.866652 4211 173)" stroke="#ADCC39" stroke-width="10"/>
<line y1="-5" x2="2251" y2="-5" transform="matrix(-0.866271 -0.499574 0.498914 -0.866652 4210.98 4671.04)" stroke="#ADCC39" stroke-width="10"/>
<line y1="-5" x2="2251" y2="-5" transform="matrix(-0.866271 0.499574 -0.498914 -0.866652 6160.98 3546.5)" stroke="#ADCC39" stroke-width="10"/>
<path d="M4211 2422L2261 1297.5V3546.5L4211 2422Z" fill="#F4E646"/>
<path d="M4211 2422L2261 1297.5V3546.5L4211 2422Z" fill="#F4E646"/>
<path d="M6161 3546.5L4211 2422V4671L6161 3546.5Z" fill="#F4E646"/>
<path d="M6161 3546.5L4211 2422V4671L6161 3546.5Z" fill="#F4E646"/>
<path d="M6161 1297.5L4211 173V2422L6161 1297.5Z" fill="#F4E646"/>
<path d="M6161 1297.5L4211 173V2422L6161 1297.5Z" fill="#F4E646"/>
<path d="M4211 2422L6161 1297.5V3546.5L4211 2422Z" fill="#F4E646"/>
<path d="M4211 2422L6161 1297.5V3546.5L4211 2422Z" fill="#F4E646"/>
<path d="M2261 1297.5L4211 173V2422L2261 1297.5Z" fill="#F4E646"/>
<path d="M2261 1297.5L4211 173V2422L2261 1297.5Z" fill="#F4E646"/>
<path d="M2261 3546.5L4211 2422V4671L2261 3546.5Z" fill="#F4E646"/>
<path d="M2261 3546.5L4211 2422V4671L2261 3546.5Z" fill="#F4E646"/>
<line y1="-5" x2="2251" y2="-5" transform="matrix(0.866282 -0.499556 0.498896 0.866662 2261 1297.5)" stroke="#ADCC39" stroke-width="10"/>
<line y1="-5" x2="2251" y2="-5" transform="matrix(0.866271 0.499574 -0.498914 0.866652 4211 173)" stroke="#ADCC39" stroke-width="10"/>
<line y1="-5" x2="2251" y2="-5" transform="matrix(-0.866271 -0.499574 0.498914 -0.866652 4210.98 4671.04)" stroke="#ADCC39" stroke-width="10"/>
<line y1="-5" x2="2251" y2="-5" transform="matrix(-0.866271 0.499574 -0.498914 -0.866652 6160.98 3546.5)" stroke="#ADCC39" stroke-width="10"/>
<line x1="2256" y1="3549.98" x2="2256" y2="1297.5" stroke="#ADCC39" stroke-width="10"/>
<line x1="2256" y1="3549.98" x2="2256" y2="1297.5" stroke="#ADCC39" stroke-width="10"/>
<line x1="6166" y1="1297.5" x2="6166" y2="3549.99" stroke="#ADCC39" stroke-width="10"/>
</g>
<g style="mix-blend-mode:hard-light">
<path d="M4211 2423L2411 1385V3461L4211 2423Z" fill="#232323"/>
<path d="M4211 2423L2411 1385V3461L4211 2423Z" fill="#232323"/>
<path d="M6011 3461L4211 2423V4499L6011 3461Z" fill="#232323"/>
<path d="M6011 3461L4211 2423V4499L6011 3461Z" fill="#232323"/>
<path d="M6011 1385L4211 347V2423L6011 1385Z" fill="#232323"/>
<path d="M6011 1385L4211 347V2423L6011 1385Z" fill="#232323"/>
<path d="M4211 2423L6011 1385V3461L4211 2423Z" fill="#232323"/>
<path d="M4211 2423L6011 1385V3461L4211 2423Z" fill="#232323"/>
<path d="M2411 1385L4211 347V2423L2411 1385Z" fill="#232323"/>
<path d="M2411 1385L4211 347V2423L2411 1385Z" fill="#232323"/>
<path d="M2411 3461L4211 2423V4499L2411 3461Z" fill="#232323"/>
<path d="M2411 3461L4211 2423V4499L2411 3461Z" fill="#232323"/>
<line y1="-5" x2="2077.85" y2="-5" transform="matrix(0.866282 -0.499556 0.498896 0.866662 2411 1385)" stroke="#ADCC39" stroke-width="10"/>
<line y1="-5" x2="2077.85" y2="-5" transform="matrix(0.866271 0.499574 -0.498914 0.866652 4211 347)" stroke="#ADCC39" stroke-width="10"/>
<line y1="-5" x2="2077.85" y2="-5" transform="matrix(-0.866271 -0.499574 0.498914 -0.866652 4210.98 4499.04)" stroke="#ADCC39" stroke-width="10"/>
<line y1="-5" x2="2077.85" y2="-5" transform="matrix(-0.866271 0.499574 -0.498914 -0.866652 6010.98 3461)" stroke="#ADCC39" stroke-width="10"/>
<path d="M4211 2423L2411 1385V3461L4211 2423Z" fill="#232323"/>
<path d="M4211 2423L2411 1385V3461L4211 2423Z" fill="#232323"/>
<path d="M6011 3461L4211 2423V4499L6011 3461Z" fill="#232323"/>
<path d="M6011 3461L4211 2423V4499L6011 3461Z" fill="#232323"/>
<path d="M6011 1385L4211 347V2423L6011 1385Z" fill="#232323"/>
<path d="M6011 1385L4211 347V2423L6011 1385Z" fill="#232323"/>
<path d="M4211 2423L6011 1385V3461L4211 2423Z" fill="#232323"/>
<path d="M4211 2423L6011 1385V3461L4211 2423Z" fill="#232323"/>
<path d="M2411 1385L4211 347V2423L2411 1385Z" fill="#232323"/>
<path d="M2411 1385L4211 347V2423L2411 1385Z" fill="#232323"/>
<path d="M2411 3461L4211 2423V4499L2411 3461Z" fill="#232323"/>
<path d="M2411 3461L4211 2423V4499L2411 3461Z" fill="#232323"/>
<line y1="-5" x2="2077.85" y2="-5" transform="matrix(0.866282 -0.499556 0.498896 0.866662 2411 1385)" stroke="#ADCC39" stroke-width="10"/>
<line y1="-5" x2="2077.85" y2="-5" transform="matrix(0.866271 0.499574 -0.498914 0.866652 4211 347)" stroke="#ADCC39" stroke-width="10"/>
<line y1="-5" x2="2077.85" y2="-5" transform="matrix(-0.866271 -0.499574 0.498914 -0.866652 4210.98 4499.04)" stroke="#ADCC39" stroke-width="10"/>
<line y1="-5" x2="2077.85" y2="-5" transform="matrix(-0.866271 0.499574 -0.498914 -0.866652 6010.98 3461)" stroke="#ADCC39" stroke-width="10"/>
<line x1="2406" y1="3464.21" x2="2406" y2="1384.99" stroke="#ADCC39" stroke-width="10"/>
<line x1="2406" y1="3464.21" x2="2406" y2="1384.99" stroke="#ADCC39" stroke-width="10"/>
<line x1="6016" y1="1385" x2="6016" y2="3464.22" stroke="#ADCC39" stroke-width="10"/>
</g>
<g style="mix-blend-mode:lighten">
<path d="M4211 2423L2561 1471.5V3374.5L4211 2423Z" fill="#F4E646"/>
<path d="M4211 2423L2561 1471.5V3374.5L4211 2423Z" fill="#F4E646"/>
<path d="M5861 3374.5L4211 2423V4326L5861 3374.5Z" fill="#F4E646"/>
<path d="M5861 3374.5L4211 2423V4326L5861 3374.5Z" fill="#F4E646"/>
<path d="M5861 1471.5L4211 520V2423L5861 1471.5Z" fill="#F4E646"/>
<path d="M5861 1471.5L4211 520V2423L5861 1471.5Z" fill="#F4E646"/>
<path d="M4211 2423L5861 1471.5V3374.5L4211 2423Z" fill="#F4E646"/>
<path d="M4211 2423L5861 1471.5V3374.5L4211 2423Z" fill="#F4E646"/>
<path d="M2561 1471.5L4211 520V2423L2561 1471.5Z" fill="#F4E646"/>
<path d="M2561 1471.5L4211 520V2423L2561 1471.5Z" fill="#F4E646"/>
<path d="M2561 3374.5L4211 2423V4326L2561 3374.5Z" fill="#F4E646"/>
<path d="M2561 3374.5L4211 2423V4326L2561 3374.5Z" fill="#F4E646"/>
<line y1="-5" x2="1904.69" y2="-5" transform="matrix(0.866282 -0.499556 0.498895 0.866662 2561 1471.5)" stroke="#ADCC39" stroke-width="10"/>
<line y1="-5" x2="1904.69" y2="-5" transform="matrix(0.866271 0.499574 -0.498914 0.866652 4211 520)" stroke="#ADCC39" stroke-width="10"/>
<line y1="-5" x2="1904.69" y2="-5" transform="matrix(-0.866271 -0.499574 0.498914 -0.866652 4210.98 4326.03)" stroke="#ADCC39" stroke-width="10"/>
<line y1="-5" x2="1904.69" y2="-5" transform="matrix(-0.866271 0.499574 -0.498914 -0.866652 5860.98 3374.5)" stroke="#ADCC39" stroke-width="10"/>
<path d="M4211 2423L2561 1471.5V3374.5L4211 2423Z" fill="#F4E646"/>
<path d="M4211 2423L2561 1471.5V3374.5L4211 2423Z" fill="#F4E646"/>
<path d="M5861 3374.5L4211 2423V4326L5861 3374.5Z" fill="#F4E646"/>
<path d="M5861 3374.5L4211 2423V4326L5861 3374.5Z" fill="#F4E646"/>
<path d="M5861 1471.5L4211 520V2423L5861 1471.5Z" fill="#F4E646"/>
<path d="M5861 1471.5L4211 520V2423L5861 1471.5Z" fill="#F4E646"/>
<path d="M4211 2423L5861 1471.5V3374.5L4211 2423Z" fill="#F4E646"/>
<path d="M4211 2423L5861 1471.5V3374.5L4211 2423Z" fill="#F4E646"/>
<path d="M2561 1471.5L4211 520V2423L2561 1471.5Z" fill="#F4E646"/>
<path d="M2561 1471.5L4211 520V2423L2561 1471.5Z" fill="#F4E646"/>
<path d="M2561 3374.5L4211 2423V4326L2561 3374.5Z" fill="#F4E646"/>
<path d="M2561 3374.5L4211 2423V4326L2561 3374.5Z" fill="#F4E646"/>
<line y1="-5" x2="1904.69" y2="-5" transform="matrix(0.866282 -0.499556 0.498895 0.866662 2561 1471.5)" stroke="#ADCC39" stroke-width="10"/>
<line y1="-5" x2="1904.69" y2="-5" transform="matrix(0.866271 0.499574 -0.498914 0.866652 4211 520)" stroke="#ADCC39" stroke-width="10"/>
<line y1="-5" x2="1904.69" y2="-5" transform="matrix(-0.866271 -0.499574 0.498914 -0.866652 4210.98 4326.03)" stroke="#ADCC39" stroke-width="10"/>
<line y1="-5" x2="1904.69" y2="-5" transform="matrix(-0.866271 0.499574 -0.498914 -0.866652 5860.98 3374.5)" stroke="#ADCC39" stroke-width="10"/>
<line x1="2556" y1="3377.45" x2="2556" y2="1471.5" stroke="#ADCC39" stroke-width="10"/>
<line x1="2556" y1="3377.45" x2="2556" y2="1471.5" stroke="#ADCC39" stroke-width="10"/>
<line x1="5866" y1="1471.5" x2="5866" y2="3377.45" stroke="#ADCC39" stroke-width="10"/>
</g>
<g style="mix-blend-mode:hard-light">
<path d="M4211 2423L2711 1558V3288L4211 2423Z" fill="#232323"/>
<path d="M4211 2423L2711 1558V3288L4211 2423Z" fill="#232323"/>
<path d="M5711 3288L4211 2423V4153L5711 3288Z" fill="#232323"/>
<path d="M5711 3288L4211 2423V4153L5711 3288Z" fill="#232323"/>
<path d="M5711 1558L4211 693V2423L5711 1558Z" fill="#232323"/>
<path d="M5711 1558L4211 693V2423L5711 1558Z" fill="#232323"/>
<path d="M4211 2423L5711 1558V3288L4211 2423Z" fill="#232323"/>
<path d="M4211 2423L5711 1558V3288L4211 2423Z" fill="#232323"/>
<path d="M2711 1558L4211 693V2423L2711 1558Z" fill="#232323"/>
<path d="M2711 1558L4211 693V2423L2711 1558Z" fill="#232323"/>
<path d="M2711 3288L4211 2423V4153L2711 3288Z" fill="#232323"/>
<path d="M2711 3288L4211 2423V4153L2711 3288Z" fill="#232323"/>
<line y1="-5" x2="1731.54" y2="-5" transform="matrix(0.866282 -0.499556 0.498895 0.866662 2711 1558)" stroke="#ADCC39" stroke-width="10"/>
<line y1="-5" x2="1731.54" y2="-5" transform="matrix(0.866271 0.499574 -0.498914 0.866652 4211 693)" stroke="#ADCC39" stroke-width="10"/>
<line y1="-5" x2="1731.54" y2="-5" transform="matrix(-0.866271 -0.499574 0.498914 -0.866652 4210.98 4153.03)" stroke="#ADCC39" stroke-width="10"/>
<line y1="-5" x2="1731.54" y2="-5" transform="matrix(-0.866271 0.499574 -0.498914 -0.866652 5710.98 3288)" stroke="#ADCC39" stroke-width="10"/>
<path d="M4211 2423L2711 1558V3288L4211 2423Z" fill="#232323"/>
<path d="M4211 2423L2711 1558V3288L4211 2423Z" fill="#232323"/>
<path d="M5711 3288L4211 2423V4153L5711 3288Z" fill="#232323"/>
<path d="M5711 3288L4211 2423V4153L5711 3288Z" fill="#232323"/>
<path d="M5711 1558L4211 693V2423L5711 1558Z" fill="#232323"/>
<path d="M5711 1558L4211 693V2423L5711 1558Z" fill="#232323"/>
<path d="M4211 2423L5711 1558V3288L4211 2423Z" fill="#232323"/>
<path d="M4211 2423L5711 1558V3288L4211 2423Z" fill="#232323"/>
<path d="M2711 1558L4211 693V2423L2711 1558Z" fill="#232323"/>
<path d="M2711 1558L4211 693V2423L2711 1558Z" fill="#232323"/>
<path d="M2711 3288L4211 2423V4153L2711 3288Z" fill="#232323"/>
<path d="M2711 3288L4211 2423V4153L2711 3288Z" fill="#232323"/>
<line y1="-5" x2="1731.54" y2="-5" transform="matrix(0.866282 -0.499556 0.498895 0.866662 2711 1558)" stroke="#ADCC39" stroke-width="10"/>
<line y1="-5" x2="1731.54" y2="-5" transform="matrix(0.866271 0.499574 -0.498914 0.866652 4211 693)" stroke="#ADCC39" stroke-width="10"/>
<line y1="-5" x2="1731.54" y2="-5" transform="matrix(-0.866271 -0.499574 0.498914 -0.866652 4210.98 4153.03)" stroke="#ADCC39" stroke-width="10"/>
<line y1="-5" x2="1731.54" y2="-5" transform="matrix(-0.866271 0.499574 -0.498914 -0.866652 5710.98 3288)" stroke="#ADCC39" stroke-width="10"/>
<line x1="2706" y1="3290.68" x2="2706" y2="1558" stroke="#ADCC39" stroke-width="10"/>
<line x1="2706" y1="3290.68" x2="2706" y2="1558" stroke="#ADCC39" stroke-width="10"/>
<line x1="5716" y1="1558" x2="5716" y2="3290.68" stroke="#ADCC39" stroke-width="10"/>
</g>
<g style="mix-blend-mode:lighten">
<path d="M4211 2423L2861 1644.5V3201.5L4211 2423Z" fill="#F4E646"/>
<path d="M4211 2423L2861 1644.5V3201.5L4211 2423Z" fill="#F4E646"/>
<path d="M5561 3201.5L4211 2423V3980L5561 3201.5Z" fill="#F4E646"/>
<path d="M5561 3201.5L4211 2423V3980L5561 3201.5Z" fill="#F4E646"/>
<path d="M5561 1644.5L4211 866V2423L5561 1644.5Z" fill="#F4E646"/>
<path d="M5561 1644.5L4211 866V2423L5561 1644.5Z" fill="#F4E646"/>
<path d="M4211 2423L5561 1644.5V3201.5L4211 2423Z" fill="#F4E646"/>
<path d="M4211 2423L5561 1644.5V3201.5L4211 2423Z" fill="#F4E646"/>
<path d="M2861 1644.5L4211 866V2423L2861 1644.5Z" fill="#F4E646"/>
<path d="M2861 1644.5L4211 866V2423L2861 1644.5Z" fill="#F4E646"/>
<path d="M2861 3201.5L4211 2423V3980L2861 3201.5Z" fill="#F4E646"/>
<path d="M2861 3201.5L4211 2423V3980L2861 3201.5Z" fill="#F4E646"/>
<line y1="-5" x2="1558.38" y2="-5" transform="matrix(0.866282 -0.499556 0.498896 0.866662 2861 1644.5)" stroke="#ADCC39" stroke-width="10"/>
<line y1="-5" x2="1558.38" y2="-5" transform="matrix(0.866271 0.499574 -0.498914 0.866651 4211 866)" stroke="#ADCC39" stroke-width="10"/>
<line y1="-5" x2="1558.38" y2="-5" transform="matrix(-0.866271 -0.499574 0.498914 -0.866651 4210.98 3980.03)" stroke="#ADCC39" stroke-width="10"/>
<line y1="-5" x2="1558.38" y2="-5" transform="matrix(-0.866271 0.499574 -0.498914 -0.866652 5560.98 3201.5)" stroke="#ADCC39" stroke-width="10"/>
<path d="M4211 2423L2861 1644.5V3201.5L4211 2423Z" fill="#F4E646"/>
<path d="M4211 2423L2861 1644.5V3201.5L4211 2423Z" fill="#F4E646"/>
<path d="M5561 3201.5L4211 2423V3980L5561 3201.5Z" fill="#F4E646"/>
<path d="M5561 3201.5L4211 2423V3980L5561 3201.5Z" fill="#F4E646"/>
<path d="M5561 1644.5L4211 866V2423L5561 1644.5Z" fill="#F4E646"/>
<path d="M5561 1644.5L4211 866V2423L5561 1644.5Z" fill="#F4E646"/>
<path d="M4211 2423L5561 1644.5V3201.5L4211 2423Z" fill="#F4E646"/>
<path d="M4211 2423L5561 1644.5V3201.5L4211 2423Z" fill="#F4E646"/>
<path d="M2861 1644.5L4211 866V2423L2861 1644.5Z" fill="#F4E646"/>
<path d="M2861 1644.5L4211 866V2423L2861 1644.5Z" fill="#F4E646"/>
<path d="M2861 3201.5L4211 2423V3980L2861 3201.5Z" fill="#F4E646"/>
<path d="M2861 3201.5L4211 2423V3980L2861 3201.5Z" fill="#F4E646"/>
<line y1="-5" x2="1558.38" y2="-5" transform="matrix(0.866282 -0.499556 0.498896 0.866662 2861 1644.5)" stroke="#ADCC39" stroke-width="10"/>
<line y1="-5" x2="1558.38" y2="-5" transform="matrix(0.866271 0.499574 -0.498914 0.866651 4211 866)" stroke="#ADCC39" stroke-width="10"/>
<line y1="-5" x2="1558.38" y2="-5" transform="matrix(-0.866271 -0.499574 0.498914 -0.866651 4210.98 3980.03)" stroke="#ADCC39" stroke-width="10"/>
<line y1="-5" x2="1558.38" y2="-5" transform="matrix(-0.866271 0.499574 -0.498914 -0.866652 5560.98 3201.5)" stroke="#ADCC39" stroke-width="10"/>
<line x1="2856" y1="3203.91" x2="2856" y2="1644.5" stroke="#ADCC39" stroke-width="10"/>
<line x1="2856" y1="3203.91" x2="2856" y2="1644.5" stroke="#ADCC39" stroke-width="10"/>
<line x1="5566" y1="1644.5" x2="5566" y2="3203.92" stroke="#ADCC39" stroke-width="10"/>
</g>
<g style="mix-blend-mode:hard-light">
<path d="M4211 2423L3011 1731V3115L4211 2423Z" fill="#232323"/>
<path d="M4211 2423L3011 1731V3115L4211 2423Z" fill="#232323"/>
<path d="M5411 3115L4211 2423V3807L5411 3115Z" fill="#232323"/>
<path d="M5411 3115L4211 2423V3807L5411 3115Z" fill="#232323"/>
<path d="M5411 1731L4211 1039V2423L5411 1731Z" fill="#232323"/>
<path d="M5411 1731L4211 1039V2423L5411 1731Z" fill="#232323"/>
<path d="M4211 2423L5411 1731V3115L4211 2423Z" fill="#232323"/>
<path d="M4211 2423L5411 1731V3115L4211 2423Z" fill="#232323"/>
<path d="M3011 1731L4211 1039V2423L3011 1731Z" fill="#232323"/>
<path d="M3011 1731L4211 1039V2423L3011 1731Z" fill="#232323"/>
<path d="M3011 3115L4211 2423V3807L3011 3115Z" fill="#232323"/>
<path d="M3011 3115L4211 2423V3807L3011 3115Z" fill="#232323"/>
<line y1="-5" x2="1385.23" y2="-5" transform="matrix(0.866282 -0.499556 0.498895 0.866662 3011 1731)" stroke="#ADCC39" stroke-width="10"/>
<line y1="-5" x2="1385.23" y2="-5" transform="matrix(0.866271 0.499574 -0.498914 0.866652 4211 1039)" stroke="#ADCC39" stroke-width="10"/>
<line y1="-5" x2="1385.23" y2="-5" transform="matrix(-0.866271 -0.499574 0.498914 -0.866652 4210.99 3807.02)" stroke="#ADCC39" stroke-width="10"/>
<line y1="-5" x2="1385.23" y2="-5" transform="matrix(-0.866271 0.499574 -0.498914 -0.866652 5410.99 3115)" stroke="#ADCC39" stroke-width="10"/>
<path d="M4211 2423L3011 1731V3115L4211 2423Z" fill="#232323"/>
<path d="M4211 2423L3011 1731V3115L4211 2423Z" fill="#232323"/>
<path d="M5411 3115L4211 2423V3807L5411 3115Z" fill="#232323"/>
<path d="M5411 3115L4211 2423V3807L5411 3115Z" fill="#232323"/>
<path d="M5411 1731L4211 1039V2423L5411 1731Z" fill="#232323"/>
<path d="M5411 1731L4211 1039V2423L5411 1731Z" fill="#232323"/>
<path d="M4211 2423L5411 1731V3115L4211 2423Z" fill="#232323"/>
<path d="M4211 2423L5411 1731V3115L4211 2423Z" fill="#232323"/>
<path d="M3011 1731L4211 1039V2423L3011 1731Z" fill="#232323"/>
<path d="M3011 1731L4211 1039V2423L3011 1731Z" fill="#232323"/>
<path d="M3011 3115L4211 2423V3807L3011 3115Z" fill="#232323"/>
<path d="M3011 3115L4211 2423V3807L3011 3115Z" fill="#232323"/>
<line y1="-5" x2="1385.23" y2="-5" transform="matrix(0.866282 -0.499556 0.498895 0.866662 3011 1731)" stroke="#ADCC39" stroke-width="10"/>
<line y1="-5" x2="1385.23" y2="-5" transform="matrix(0.866271 0.499574 -0.498914 0.866652 4211 1039)" stroke="#ADCC39" stroke-width="10"/>
<line y1="-5" x2="1385.23" y2="-5" transform="matrix(-0.866271 -0.499574 0.498914 -0.866652 4210.99 3807.02)" stroke="#ADCC39" stroke-width="10"/>
<line y1="-5" x2="1385.23" y2="-5" transform="matrix(-0.866271 0.499574 -0.498914 -0.866652 5410.99 3115)" stroke="#ADCC39" stroke-width="10"/>
<line x1="3006" y1="3117.14" x2="3006" y2="1731" stroke="#ADCC39" stroke-width="10"/>
<line x1="3006" y1="3117.14" x2="3006" y2="1731" stroke="#ADCC39" stroke-width="10"/>
<line x1="5416" y1="1731" x2="5416" y2="3117.15" stroke="#ADCC39" stroke-width="10"/>
</g>
<g style="mix-blend-mode:lighten">
<path d="M4211 2422L3161 1816.5V3027.5L4211 2422Z" fill="#F4E646"/>
<path d="M4211 2422L3161 1816.5V3027.5L4211 2422Z" fill="#F4E646"/>
<path d="M5261 3027.5L4211 2422V3633L5261 3027.5Z" fill="#F4E646"/>
<path d="M5261 3027.5L4211 2422V3633L5261 3027.5Z" fill="#F4E646"/>
<path d="M5261 1816.5L4211 1211V2422L5261 1816.5Z" fill="#F4E646"/>
<path d="M5261 1816.5L4211 1211V2422L5261 1816.5Z" fill="#F4E646"/>
<path d="M4211 2422L5261 1816.5V3027.5L4211 2422Z" fill="#F4E646"/>
<path d="M4211 2422L5261 1816.5V3027.5L4211 2422Z" fill="#F4E646"/>
<path d="M3161 1816.5L4211 1211V2422L3161 1816.5Z" fill="#F4E646"/>
<path d="M3161 1816.5L4211 1211V2422L3161 1816.5Z" fill="#F4E646"/>
<path d="M3161 3027.5L4211 2422V3633L3161 3027.5Z" fill="#F4E646"/>
<path d="M3161 3027.5L4211 2422V3633L3161 3027.5Z" fill="#F4E646"/>
<line y1="-5" x2="1212.08" y2="-5" transform="matrix(0.866282 -0.499556 0.498895 0.866662 3161 1816.5)" stroke="#ADCC39" stroke-width="10"/>
<line y1="-5" x2="1212.08" y2="-5" transform="matrix(0.866271 0.499574 -0.498914 0.866652 4211 1211)" stroke="#ADCC39" stroke-width="10"/>
<line y1="-5" x2="1212.08" y2="-5" transform="matrix(-0.866271 -0.499574 0.498914 -0.866652 4210.99 3633.02)" stroke="#ADCC39" stroke-width="10"/>
<line y1="-5" x2="1212.08" y2="-5" transform="matrix(-0.866271 0.499574 -0.498914 -0.866652 5260.99 3027.5)" stroke="#ADCC39" stroke-width="10"/>
<path d="M4211 2422L3161 1816.5V3027.5L4211 2422Z" fill="#F4E646"/>
<path d="M4211 2422L3161 1816.5V3027.5L4211 2422Z" fill="#F4E646"/>
<path d="M5261 3027.5L4211 2422V3633L5261 3027.5Z" fill="#F4E646"/>
<path d="M5261 3027.5L4211 2422V3633L5261 3027.5Z" fill="#F4E646"/>
<path d="M5261 1816.5L4211 1211V2422L5261 1816.5Z" fill="#F4E646"/>
<path d="M5261 1816.5L4211 1211V2422L5261 1816.5Z" fill="#F4E646"/>
<path d="M4211 2422L5261 1816.5V3027.5L4211 2422Z" fill="#F4E646"/>
<path d="M4211 2422L5261 1816.5V3027.5L4211 2422Z" fill="#F4E646"/>
<path d="M3161 1816.5L4211 1211V2422L3161 1816.5Z" fill="#F4E646"/>
<path d="M3161 1816.5L4211 1211V2422L3161 1816.5Z" fill="#F4E646"/>
<path d="M3161 3027.5L4211 2422V3633L3161 3027.5Z" fill="#F4E646"/>
<path d="M3161 3027.5L4211 2422V3633L3161 3027.5Z" fill="#F4E646"/>
<line y1="-5" x2="1212.08" y2="-5" transform="matrix(0.866282 -0.499556 0.498895 0.866662 3161 1816.5)" stroke="#ADCC39" stroke-width="10"/>
<line y1="-5" x2="1212.08" y2="-5" transform="matrix(0.866271 0.499574 -0.498914 0.866652 4211 1211)" stroke="#ADCC39" stroke-width="10"/>
<line y1="-5" x2="1212.08" y2="-5" transform="matrix(-0.866271 -0.499574 0.498914 -0.866652 4210.99 3633.02)" stroke="#ADCC39" stroke-width="10"/>
<line y1="-5" x2="1212.08" y2="-5" transform="matrix(-0.866271 0.499574 -0.498914 -0.866652 5260.99 3027.5)" stroke="#ADCC39" stroke-width="10"/>
<line x1="3156" y1="3029.38" x2="3156" y2="1816.5" stroke="#ADCC39" stroke-width="10"/>
<line x1="3156" y1="3029.38" x2="3156" y2="1816.5" stroke="#ADCC39" stroke-width="10"/>
<line x1="5266" y1="1816.5" x2="5266" y2="3029.38" stroke="#ADCC39" stroke-width="10"/>
</g>
<g style="mix-blend-mode:hard-light">
<path d="M4211 2422L3311 1903V2941L4211 2422Z" fill="#232323"/>
<path d="M4211 2422L3311 1903V2941L4211 2422Z" fill="#232323"/>
<path d="M5111 2941L4211 2422V3460L5111 2941Z" fill="#232323"/>
<path d="M5111 2941L4211 2422V3460L5111 2941Z" fill="#232323"/>
<path d="M5111 1903L4211 1384V2422L5111 1903Z" fill="#232323"/>
<path d="M5111 1903L4211 1384V2422L5111 1903Z" fill="#232323"/>
<path d="M4211 2422L5111 1903V2941L4211 2422Z" fill="#232323"/>
<path d="M4211 2422L5111 1903V2941L4211 2422Z" fill="#232323"/>
<path d="M3311 1903L4211 1384V2422L3311 1903Z" fill="#232323"/>
<path d="M3311 1903L4211 1384V2422L3311 1903Z" fill="#232323"/>
<path d="M3311 2941L4211 2422V3460L3311 2941Z" fill="#232323"/>
<path d="M3311 2941L4211 2422V3460L3311 2941Z" fill="#232323"/>
<line y1="-5" x2="1038.92" y2="-5" transform="matrix(0.866282 -0.499556 0.498896 0.866662 3311 1903)" stroke="#ADCC39" stroke-width="10"/>
<line y1="-5" x2="1038.92" y2="-5" transform="matrix(0.866271 0.499574 -0.498914 0.866652 4211 1384)" stroke="#ADCC39" stroke-width="10"/>
<line y1="-5" x2="1038.92" y2="-5" transform="matrix(-0.866271 -0.499574 0.498914 -0.866651 4210.99 3460.02)" stroke="#ADCC39" stroke-width="10"/>
<line y1="-5" x2="1038.92" y2="-5" transform="matrix(-0.866271 0.499574 -0.498914 -0.866652 5110.99 2941)" stroke="#ADCC39" stroke-width="10"/>
<path d="M4211 2422L3311 1903V2941L4211 2422Z" fill="#232323"/>
<path d="M4211 2422L3311 1903V2941L4211 2422Z" fill="#232323"/>
<path d="M5111 2941L4211 2422V3460L5111 2941Z" fill="#232323"/>
<path d="M5111 2941L4211 2422V3460L5111 2941Z" fill="#232323"/>
<path d="M5111 1903L4211 1384V2422L5111 1903Z" fill="#232323"/>
<path d="M5111 1903L4211 1384V2422L5111 1903Z" fill="#232323"/>
<path d="M4211 2422L5111 1903V2941L4211 2422Z" fill="#232323"/>
<path d="M4211 2422L5111 1903V2941L4211 2422Z" fill="#232323"/>
<path d="M3311 1903L4211 1384V2422L3311 1903Z" fill="#232323"/>
<path d="M3311 1903L4211 1384V2422L3311 1903Z" fill="#232323"/>
<path d="M3311 2941L4211 2422V3460L3311 2941Z" fill="#232323"/>
<path d="M3311 2941L4211 2422V3460L3311 2941Z" fill="#232323"/>
<line y1="-5" x2="1038.92" y2="-5" transform="matrix(0.866282 -0.499556 0.498896 0.866662 3311 1903)" stroke="#ADCC39" stroke-width="10"/>
<line y1="-5" x2="1038.92" y2="-5" transform="matrix(0.866271 0.499574 -0.498914 0.866652 4211 1384)" stroke="#ADCC39" stroke-width="10"/>
<line y1="-5" x2="1038.92" y2="-5" transform="matrix(-0.866271 -0.499574 0.498914 -0.866651 4210.99 3460.02)" stroke="#ADCC39" stroke-width="10"/>
<line y1="-5" x2="1038.92" y2="-5" transform="matrix(-0.866271 0.499574 -0.498914 -0.866652 5110.99 2941)" stroke="#ADCC39" stroke-width="10"/>
<line x1="3306" y1="2942.61" x2="3306" y2="1903" stroke="#ADCC39" stroke-width="10"/>
<line x1="3306" y1="2942.61" x2="3306" y2="1903" stroke="#ADCC39" stroke-width="10"/>
<line x1="5116" y1="1903" x2="5116" y2="2942.61" stroke="#ADCC39" stroke-width="10"/>
</g>
<g style="mix-blend-mode:lighten">
<path d="M4211 2423L3461 1990.5V2855.5L4211 2423Z" fill="#F4E646"/>
<path d="M4211 2423L3461 1990.5V2855.5L4211 2423Z" fill="#F4E646"/>
<path d="M4961 2855.5L4211 2423V3288L4961 2855.5Z" fill="#F4E646"/>
<path d="M4961 2855.5L4211 2423V3288L4961 2855.5Z" fill="#F4E646"/>
<path d="M4961 1990.5L4211 1558V2423L4961 1990.5Z" fill="#F4E646"/>
<path d="M4961 1990.5L4211 1558V2423L4961 1990.5Z" fill="#F4E646"/>
<path d="M4211 2423L4961 1990.5V2855.5L4211 2423Z" fill="#F4E646"/>
<path d="M4211 2423L4961 1990.5V2855.5L4211 2423Z" fill="#F4E646"/>
<path d="M3461 1990.5L4211 1558V2423L3461 1990.5Z" fill="#F4E646"/>
<path d="M3461 1990.5L4211 1558V2423L3461 1990.5Z" fill="#F4E646"/>
<path d="M3461 2855.5L4211 2423V3288L3461 2855.5Z" fill="#F4E646"/>
<path d="M3461 2855.5L4211 2423V3288L3461 2855.5Z" fill="#F4E646"/>
<line y1="-5" x2="865.769" y2="-5" transform="matrix(0.866282 -0.499556 0.498895 0.866662 3461 1990.5)" stroke="#ADCC39" stroke-width="10"/>
<line y1="-5" x2="865.769" y2="-5" transform="matrix(0.866271 0.499574 -0.498914 0.866652 4211 1558)" stroke="#ADCC39" stroke-width="10"/>
<line y1="-5" x2="865.769" y2="-5" transform="matrix(-0.866271 -0.499574 0.498914 -0.866652 4210.99 3288.02)" stroke="#ADCC39" stroke-width="10"/>
<line y1="-5" x2="865.769" y2="-5" transform="matrix(-0.866271 0.499574 -0.498914 -0.866652 4960.99 2855.5)" stroke="#ADCC39" stroke-width="10"/>
<path d="M4211 2423L3461 1990.5V2855.5L4211 2423Z" fill="#F4E646"/>
<path d="M4211 2423L3461 1990.5V2855.5L4211 2423Z" fill="#F4E646"/>
<path d="M4961 2855.5L4211 2423V3288L4961 2855.5Z" fill="#F4E646"/>
<path d="M4961 2855.5L4211 2423V3288L4961 2855.5Z" fill="#F4E646"/>
<path d="M4961 1990.5L4211 1558V2423L4961 1990.5Z" fill="#F4E646"/>
<path d="M4961 1990.5L4211 1558V2423L4961 1990.5Z" fill="#F4E646"/>
<path d="M4211 2423L4961 1990.5V2855.5L4211 2423Z" fill="#F4E646"/>
<path d="M4211 2423L4961 1990.5V2855.5L4211 2423Z" fill="#F4E646"/>
<path d="M3461 1990.5L4211 1558V2423L3461 1990.5Z" fill="#F4E646"/>
<path d="M3461 1990.5L4211 1558V2423L3461 1990.5Z" fill="#F4E646"/>
<path d="M3461 2855.5L4211 2423V3288L3461 2855.5Z" fill="#F4E646"/>
<path d="M3461 2855.5L4211 2423V3288L3461 2855.5Z" fill="#F4E646"/>
<line y1="-5" x2="865.769" y2="-5" transform="matrix(0.866282 -0.499556 0.498895 0.866662 3461 1990.5)" stroke="#ADCC39" stroke-width="10"/>
<line y1="-5" x2="865.769" y2="-5" transform="matrix(0.866271 0.499574 -0.498914 0.866652 4211 1558)" stroke="#ADCC39" stroke-width="10"/>
<line y1="-5" x2="865.769" y2="-5" transform="matrix(-0.866271 -0.499574 0.498914 -0.866652 4210.99 3288.02)" stroke="#ADCC39" stroke-width="10"/>
<line y1="-5" x2="865.769" y2="-5" transform="matrix(-0.866271 0.499574 -0.498914 -0.866652 4960.99 2855.5)" stroke="#ADCC39" stroke-width="10"/>
<line x1="3456" y1="2856.84" x2="3456" y2="1990.5" stroke="#ADCC39" stroke-width="10"/>
<line x1="3456" y1="2856.84" x2="3456" y2="1990.5" stroke="#ADCC39" stroke-width="10"/>
<line x1="4966" y1="1990.5" x2="4966" y2="2856.84" stroke="#ADCC39" stroke-width="10"/>
</g>
<g style="mix-blend-mode:hard-light">
<path d="M4211 2423L3611 2077V2769L4211 2423Z" fill="#232323"/>
<path d="M4211 2423L3611 2077V2769L4211 2423Z" fill="#232323"/>
<path d="M4811 2769L4211 2423V3115L4811 2769Z" fill="#232323"/>
<path d="M4811 2769L4211 2423V3115L4811 2769Z" fill="#232323"/>
<path d="M4811 2077L4211 1731V2423L4811 2077Z" fill="#232323"/>
<path d="M4811 2077L4211 1731V2423L4811 2077Z" fill="#232323"/>
<path d="M4211 2423L4811 2077V2769L4211 2423Z" fill="#232323"/>
<path d="M4211 2423L4811 2077V2769L4211 2423Z" fill="#232323"/>
<path d="M3611 2077L4211 1731V2423L3611 2077Z" fill="#232323"/>
<path d="M3611 2077L4211 1731V2423L3611 2077Z" fill="#232323"/>
<path d="M3611 2769L4211 2423V3115L3611 2769Z" fill="#232323"/>
<path d="M3611 2769L4211 2423V3115L3611 2769Z" fill="#232323"/>
<line y1="-5" x2="692.615" y2="-5" transform="matrix(0.866282 -0.499556 0.498895 0.866662 3611 2077)" stroke="#ADCC39" stroke-width="10"/>
<line y1="-5" x2="692.615" y2="-5" transform="matrix(0.866271 0.499574 -0.498914 0.866652 4211 1731)" stroke="#ADCC39" stroke-width="10"/>
<line y1="-5" x2="692.615" y2="-5" transform="matrix(-0.866271 -0.499574 0.498914 -0.866651 4210.99 3115.01)" stroke="#ADCC39" stroke-width="10"/>
<line y1="-5" x2="692.615" y2="-5" transform="matrix(-0.866271 0.499574 -0.498914 -0.866652 4810.99 2769)" stroke="#ADCC39" stroke-width="10"/>
<path d="M4211 2423L3611 2077V2769L4211 2423Z" fill="#232323"/>
<path d="M4211 2423L3611 2077V2769L4211 2423Z" fill="#232323"/>
<path d="M4811 2769L4211 2423V3115L4811 2769Z" fill="#232323"/>
<path d="M4811 2769L4211 2423V3115L4811 2769Z" fill="#232323"/>
<path d="M4811 2077L4211 1731V2423L4811 2077Z" fill="#232323"/>
<path d="M4811 2077L4211 1731V2423L4811 2077Z" fill="#232323"/>
<path d="M4211 2423L4811 2077V2769L4211 2423Z" fill="#232323"/>
<path d="M4211 2423L4811 2077V2769L4211 2423Z" fill="#232323"/>
<path d="M3611 2077L4211 1731V2423L3611 2077Z" fill="#232323"/>
<path d="M3611 2077L4211 1731V2423L3611 2077Z" fill="#232323"/>
<path d="M3611 2769L4211 2423V3115L3611 2769Z" fill="#232323"/>
<path d="M3611 2769L4211 2423V3115L3611 2769Z" fill="#232323"/>
<line y1="-5" x2="692.615" y2="-5" transform="matrix(0.866282 -0.499556 0.498895 0.866662 3611 2077)" stroke="#ADCC39" stroke-width="10"/>
<line y1="-5" x2="692.615" y2="-5" transform="matrix(0.866271 0.499574 -0.498914 0.866652 4211 1731)" stroke="#ADCC39" stroke-width="10"/>
<line y1="-5" x2="692.615" y2="-5" transform="matrix(-0.866271 -0.499574 0.498914 -0.866651 4210.99 3115.01)" stroke="#ADCC39" stroke-width="10"/>
<line y1="-5" x2="692.615" y2="-5" transform="matrix(-0.866271 0.499574 -0.498914 -0.866652 4810.99 2769)" stroke="#ADCC39" stroke-width="10"/>
<line x1="3606" y1="2770.07" x2="3606" y2="2077" stroke="#ADCC39" stroke-width="10"/>
<line x1="3606" y1="2770.07" x2="3606" y2="2077" stroke="#ADCC39" stroke-width="10"/>
<line x1="4816" y1="2077" x2="4816" y2="2770.07" stroke="#ADCC39" stroke-width="10"/>
</g>
<g style="mix-blend-mode:lighten">
<path d="M4211 2422L3761 2162.5V2681.5L4211 2422Z" fill="#F4E646"/>
<path d="M4211 2422L3761 2162.5V2681.5L4211 2422Z" fill="#F4E646"/>
<path d="M4661 2681.5L4211 2422V2941L4661 2681.5Z" fill="#F4E646"/>
<path d="M4661 2681.5L4211 2422V2941L4661 2681.5Z" fill="#F4E646"/>
<path d="M4661 2162.5L4211 1903V2422L4661 2162.5Z" fill="#F4E646"/>
<path d="M4661 2162.5L4211 1903V2422L4661 2162.5Z" fill="#F4E646"/>
<path d="M4211 2422L4661 2162.5V2681.5L4211 2422Z" fill="#F4E646"/>
<path d="M4211 2422L4661 2162.5V2681.5L4211 2422Z" fill="#F4E646"/>
<path d="M3761 2162.5L4211 1903V2422L3761 2162.5Z" fill="#F4E646"/>
<path d="M3761 2162.5L4211 1903V2422L3761 2162.5Z" fill="#F4E646"/>
<path d="M3761 2681.5L4211 2422V2941L3761 2681.5Z" fill="#F4E646"/>
<path d="M3761 2681.5L4211 2422V2941L3761 2681.5Z" fill="#F4E646"/>
<line y1="-5" x2="519.462" y2="-5" transform="matrix(0.866282 -0.499556 0.498896 0.866662 3761 2162.5)" stroke="#ADCC39" stroke-width="10"/>
<line y1="-5" x2="519.462" y2="-5" transform="matrix(0.866271 0.499574 -0.498914 0.866652 4211 1903)" stroke="#ADCC39" stroke-width="10"/>
<line y1="-5" x2="519.462" y2="-5" transform="matrix(-0.866271 -0.499574 0.498914 -0.866651 4210.99 2941.01)" stroke="#ADCC39" stroke-width="10"/>
<line y1="-5" x2="519.462" y2="-5" transform="matrix(-0.866271 0.499574 -0.498914 -0.866652 4660.99 2681.5)" stroke="#ADCC39" stroke-width="10"/>
<path d="M4211 2422L3761 2162.5V2681.5L4211 2422Z" fill="#F4E646"/>
<path d="M4211 2422L3761 2162.5V2681.5L4211 2422Z" fill="#F4E646"/>
<path d="M4661 2681.5L4211 2422V2941L4661 2681.5Z" fill="#F4E646"/>
<path d="M4661 2681.5L4211 2422V2941L4661 2681.5Z" fill="#F4E646"/>
<path d="M4661 2162.5L4211 1903V2422L4661 2162.5Z" fill="#F4E646"/>
<path d="M4661 2162.5L4211 1903V2422L4661 2162.5Z" fill="#F4E646"/>
<path d="M4211 2422L4661 2162.5V2681.5L4211 2422Z" fill="#F4E646"/>
<path d="M4211 2422L4661 2162.5V2681.5L4211 2422Z" fill="#F4E646"/>
<path d="M3761 2162.5L4211 1903V2422L3761 2162.5Z" fill="#F4E646"/>
<path d="M3761 2162.5L4211 1903V2422L3761 2162.5Z" fill="#F4E646"/>
<path d="M3761 2681.5L4211 2422V2941L3761 2681.5Z" fill="#F4E646"/>
<path d="M3761 2681.5L4211 2422V2941L3761 2681.5Z" fill="#F4E646"/>
<line y1="-5" x2="519.462" y2="-5" transform="matrix(0.866282 -0.499556 0.498896 0.866662 3761 2162.5)" stroke="#ADCC39" stroke-width="10"/>
<line y1="-5" x2="519.462" y2="-5" transform="matrix(0.866271 0.499574 -0.498914 0.866652 4211 1903)" stroke="#ADCC39" stroke-width="10"/>
<line y1="-5" x2="519.462" y2="-5" transform="matrix(-0.866271 -0.499574 0.498914 -0.866651 4210.99 2941.01)" stroke="#ADCC39" stroke-width="10"/>
<line y1="-5" x2="519.462" y2="-5" transform="matrix(-0.866271 0.499574 -0.498914 -0.866652 4660.99 2681.5)" stroke="#ADCC39" stroke-width="10"/>
<line x1="3756" y1="2682.3" x2="3756" y2="2162.5" stroke="#ADCC39" stroke-width="10"/>
<line x1="3756" y1="2682.3" x2="3756" y2="2162.5" stroke="#ADCC39" stroke-width="10"/>
<line x1="4666" y1="2162.5" x2="4666" y2="2682.31" stroke="#ADCC39" stroke-width="10"/>
</g>
<g style="mix-blend-mode:hard-light">
<path d="M4211 2422L3911 2249V2595L4211 2422Z" fill="#232323"/>
<path d="M4211 2422L3911 2249V2595L4211 2422Z" fill="#232323"/>
<path d="M4511 2595L4211 2422V2768L4511 2595Z" fill="#232323"/>
<path d="M4511 2595L4211 2422V2768L4511 2595Z" fill="#232323"/>
<path d="M4511 2249L4211 2076V2422L4511 2249Z" fill="#232323"/>
<path d="M4511 2249L4211 2076V2422L4511 2249Z" fill="#232323"/>
<path d="M4211 2422L4511 2249V2595L4211 2422Z" fill="#232323"/>
<path d="M4211 2422L4511 2249V2595L4211 2422Z" fill="#232323"/>
<path d="M3911 2249L4211 2076V2422L3911 2249Z" fill="#232323"/>
<path d="M3911 2249L4211 2076V2422L3911 2249Z" fill="#232323"/>
<path d="M3911 2595L4211 2422V2768L3911 2595Z" fill="#232323"/>
<path d="M3911 2595L4211 2422V2768L3911 2595Z" fill="#232323"/>
<line y1="-5" x2="346.308" y2="-5" transform="matrix(0.866282 -0.499556 0.498895 0.866662 3911 2249)" stroke="#ADCC39" stroke-width="10"/>
<line y1="-5" x2="346.308" y2="-5" transform="matrix(0.866271 0.499574 -0.498914 0.866652 4211 2076)" stroke="#ADCC39" stroke-width="10"/>
<line y1="-5" x2="346.308" y2="-5" transform="matrix(-0.866271 -0.499574 0.498914 -0.866651 4211 2768.01)" stroke="#ADCC39" stroke-width="10"/>
<line y1="-5" x2="346.308" y2="-5" transform="matrix(-0.866271 0.499574 -0.498914 -0.866652 4511 2595)" stroke="#ADCC39" stroke-width="10"/>
<path d="M4211 2422L3911 2249V2595L4211 2422Z" fill="#232323"/>
<path d="M4211 2422L3911 2249V2595L4211 2422Z" fill="#232323"/>
<path d="M4511 2595L4211 2422V2768L4511 2595Z" fill="#232323"/>
<path d="M4511 2595L4211 2422V2768L4511 2595Z" fill="#232323"/>
<path d="M4511 2249L4211 2076V2422L4511 2249Z" fill="#232323"/>
<path d="M4511 2249L4211 2076V2422L4511 2249Z" fill="#232323"/>
<path d="M4211 2422L4511 2249V2595L4211 2422Z" fill="#232323"/>
<path d="M4211 2422L4511 2249V2595L4211 2422Z" fill="#232323"/>
<path d="M3911 2249L4211 2076V2422L3911 2249Z" fill="#232323"/>
<path d="M3911 2249L4211 2076V2422L3911 2249Z" fill="#232323"/>
<path d="M3911 2595L4211 2422V2768L3911 2595Z" fill="#232323"/>
<path d="M3911 2595L4211 2422V2768L3911 2595Z" fill="#232323"/>
<line y1="-5" x2="346.308" y2="-5" transform="matrix(0.866282 -0.499556 0.498895 0.866662 3911 2249)" stroke="#ADCC39" stroke-width="10"/>
<line y1="-5" x2="346.308" y2="-5" transform="matrix(0.866271 0.499574 -0.498914 0.866652 4211 2076)" stroke="#ADCC39" stroke-width="10"/>
<line y1="-5" x2="346.308" y2="-5" transform="matrix(-0.866271 -0.499574 0.498914 -0.866651 4211 2768.01)" stroke="#ADCC39" stroke-width="10"/>
<line y1="-5" x2="346.308" y2="-5" transform="matrix(-0.866271 0.499574 -0.498914 -0.866652 4511 2595)" stroke="#ADCC39" stroke-width="10"/>
<line x1="3906" y1="2595.54" x2="3906" y2="2249" stroke="#ADCC39" stroke-width="10"/>
<line x1="3906" y1="2595.54" x2="3906" y2="2249" stroke="#ADCC39" stroke-width="10"/>
<line x1="4516" y1="2249" x2="4516" y2="2595.54" stroke="#ADCC39" stroke-width="10"/>
</g>
<g style="mix-blend-mode:lighten">
<path d="M4211 2422L4061 2335.5V2508.5L4211 2422Z" fill="#F4E646"/>
<path d="M4211 2422L4061 2335.5V2508.5L4211 2422Z" fill="#F4E646"/>
<path d="M4361 2508.5L4211 2422V2595L4361 2508.5Z" fill="#F4E646"/>
<path d="M4361 2508.5L4211 2422V2595L4361 2508.5Z" fill="#F4E646"/>
<path d="M4361 2335.5L4211 2249V2422L4361 2335.5Z" fill="#F4E646"/>
<path d="M4361 2335.5L4211 2249V2422L4361 2335.5Z" fill="#F4E646"/>
<path d="M4211 2422L4361 2335.5V2508.5L4211 2422Z" fill="#F4E646"/>
<path d="M4211 2422L4361 2335.5V2508.5L4211 2422Z" fill="#F4E646"/>
<path d="M4061 2335.5L4211 2249V2422L4061 2335.5Z" fill="#F4E646"/>
<path d="M4061 2335.5L4211 2249V2422L4061 2335.5Z" fill="#F4E646"/>
<path d="M4061 2508.5L4211 2422V2595L4061 2508.5Z" fill="#F4E646"/>
<path d="M4061 2508.5L4211 2422V2595L4061 2508.5Z" fill="#F4E646"/>
<line y1="-5" x2="173.154" y2="-5" transform="matrix(0.866282 -0.499556 0.498895 0.866662 4061 2335.5)" stroke="#ADCC39" stroke-width="10"/>
<line y1="-5" x2="173.154" y2="-5" transform="matrix(0.866271 0.499574 -0.498914 0.866652 4211 2249)" stroke="#ADCC39" stroke-width="10"/>
<line y1="-5" x2="173.154" y2="-5" transform="matrix(-0.866271 -0.499574 0.498914 -0.866651 4211 2595)" stroke="#ADCC39" stroke-width="10"/>
<line y1="-5" x2="173.154" y2="-5" transform="matrix(-0.866271 0.499574 -0.498914 -0.866652 4361 2508.5)" stroke="#ADCC39" stroke-width="10"/>
<path d="M4211 2422L4061 2335.5V2508.5L4211 2422Z" fill="#F4E646"/>
<path d="M4211 2422L4061 2335.5V2508.5L4211 2422Z" fill="#F4E646"/>
<path d="M4361 2508.5L4211 2422V2595L4361 2508.5Z" fill="#F4E646"/>
<path d="M4361 2508.5L4211 2422V2595L4361 2508.5Z" fill="#F4E646"/>
<path d="M4361 2335.5L4211 2249V2422L4361 2335.5Z" fill="#F4E646"/>
<path d="M4361 2335.5L4211 2249V2422L4361 2335.5Z" fill="#F4E646"/>
<path d="M4211 2422L4361 2335.5V2508.5L4211 2422Z" fill="#F4E646"/>
<path d="M4211 2422L4361 2335.5V2508.5L4211 2422Z" fill="#F4E646"/>
<path d="M4061 2335.5L4211 2249V2422L4061 2335.5Z" fill="#F4E646"/>
<path d="M4061 2335.5L4211 2249V2422L4061 2335.5Z" fill="#F4E646"/>
<path d="M4061 2508.5L4211 2422V2595L4061 2508.5Z" fill="#F4E646"/>
<path d="M4061 2508.5L4211 2422V2595L4061 2508.5Z" fill="#F4E646"/>
<line y1="-5" x2="173.154" y2="-5" transform="matrix(0.866282 -0.499556 0.498895 0.866662 4061 2335.5)" stroke="#ADCC39" stroke-width="10"/>
<line y1="-5" x2="173.154" y2="-5" transform="matrix(0.866271 0.499574 -0.498914 0.866652 4211 2249)" stroke="#ADCC39" stroke-width="10"/>
<line y1="-5" x2="173.154" y2="-5" transform="matrix(-0.866271 -0.499574 0.498914 -0.866651 4211 2595)" stroke="#ADCC39" stroke-width="10"/>
<line y1="-5" x2="173.154" y2="-5" transform="matrix(-0.866271 0.499574 -0.498914 -0.866652 4361 2508.5)" stroke="#ADCC39" stroke-width="10"/>
<line x1="4056" y1="2508.77" x2="4056" y2="2335.5" stroke="#ADCC39" stroke-width="10"/>
<line x1="4056" y1="2508.77" x2="4056" y2="2335.5" stroke="#ADCC39" stroke-width="10"/>
<line x1="4366" y1="2335.5" x2="4366" y2="2508.77" stroke="#ADCC39" stroke-width="10"/>
</g>
<rect y="-2431" width="8421" height="9706" fill="#232323" fill-opacity="0.95"/>
</svg>
