<svg width="8421" height="9706" viewBox="0 0 8421 9706" fill="none" xmlns="http://www.w3.org/2000/svg">
<g style="mix-blend-mode:hard-light">
<path d="M4211 4853L11 2431V7275L4211 4853Z" fill="#232323"/>
<path d="M4211 4853L11 2431V7275L4211 4853Z" fill="#232323"/>
<path d="M8411 7275L4211 4853V9697L8411 7275Z" fill="#232323"/>
<path d="M8411 7275L4211 4853V9697L8411 7275Z" fill="#232323"/>
<path d="M8411 2431L4211 8.99994V4853L8411 2431Z" fill="#232323"/>
<path d="M8411 2431L4211 8.99994V4853L8411 2431Z" fill="#232323"/>
<path d="M4211 4853L8411 2431V7275L4211 4853Z" fill="#232323"/>
<path d="M4211 4853L8411 2431V7275L4211 4853Z" fill="#232323"/>
<path d="M11 2431L4211 8.99994V4853L11 2431Z" fill="#232323"/>
<path d="M11 2431L4211 8.99994V4853L11 2431Z" fill="#232323"/>
<path d="M11 7275L4211 4853V9697L11 7275Z" fill="#232323"/>
<path d="M11 7275L4211 4853V9697L11 7275Z" fill="#232323"/>
<line y1="-5" x2="4848.31" y2="-5" transform="matrix(0.866282 -0.499556 0.498895 0.866662 11 2431)" stroke="#ADCC39" stroke-width="10"/>
<line y1="-5" x2="4848.31" y2="-5" transform="matrix(0.866271 0.499574 -0.498914 0.866652 4211 9)" stroke="#ADCC39" stroke-width="10"/>
<line y1="-5" x2="4848.31" y2="-5" transform="matrix(-0.866271 -0.499574 0.498914 -0.866652 4210.95 9697.08)" stroke="#ADCC39" stroke-width="10"/>
<line y1="-5" x2="4848.31" y2="-5" transform="matrix(-0.866271 0.499574 -0.498914 -0.866652 8410.95 7275)" stroke="#ADCC39" stroke-width="10"/>
<path d="M4211 4853L11 2431V7275L4211 4853Z" fill="#232323"/>
<path d="M4211 4853L11 2431V7275L4211 4853Z" fill="#232323"/>
<path d="M8411 7275L4211 4853V9697L8411 7275Z" fill="#232323"/>
<path d="M8411 7275L4211 4853V9697L8411 7275Z" fill="#232323"/>
<path d="M8411 2431L4211 8.99994V4853L8411 2431Z" fill="#232323"/>
<path d="M8411 2431L4211 8.99994V4853L8411 2431Z" fill="#232323"/>
<path d="M4211 4853L8411 2431V7275L4211 4853Z" fill="#232323"/>
<path d="M4211 4853L8411 2431V7275L4211 4853Z" fill="#232323"/>
<path d="M11 2431L4211 8.99994V4853L11 2431Z" fill="#232323"/>
<path d="M11 2431L4211 8.99994V4853L11 2431Z" fill="#232323"/>
<path d="M11 7275L4211 4853V9697L11 7275Z" fill="#232323"/>
<path d="M11 7275L4211 4853V9697L11 7275Z" fill="#232323"/>
<line y1="-5" x2="4848.31" y2="-5" transform="matrix(0.866282 -0.499556 0.498895 0.866662 11 2431)" stroke="#ADCC39" stroke-width="10"/>
<line y1="-5" x2="4848.31" y2="-5" transform="matrix(0.866271 0.499574 -0.498914 0.866652 4211 9)" stroke="#ADCC39" stroke-width="10"/>
<line y1="-5" x2="4848.31" y2="-5" transform="matrix(-0.866271 -0.499574 0.498914 -0.866652 4210.95 9697.08)" stroke="#ADCC39" stroke-width="10"/>
<line y1="-5" x2="4848.31" y2="-5" transform="matrix(-0.866271 0.499574 -0.498914 -0.866652 8410.95 7275)" stroke="#ADCC39" stroke-width="10"/>
<line x1="6" y1="7282.5" x2="6" y2="2430.99" stroke="#ADCC39" stroke-width="10"/>
<line x1="6" y1="7282.5" x2="6" y2="2430.99" stroke="#ADCC39" stroke-width="10"/>
<line x1="8416" y1="2431" x2="8416" y2="7282.51" stroke="#ADCC39" stroke-width="10"/>
</g>
<g style="mix-blend-mode:lighten">
<path d="M4211 4853L161 7188.5L161 2517.5L4211 4853Z" fill="#F4E646"/>
<path d="M4211 4853L161 7188.5L161 2517.5L4211 4853Z" fill="#F4E646"/>
<path d="M8261 2517.5L4211 4853V182L8261 2517.5Z" fill="#F4E646"/>
<path d="M8261 2517.5L4211 4853V182L8261 2517.5Z" fill="#F4E646"/>
<path d="M8261 7188.5L4211 9524V4853L8261 7188.5Z" fill="#F4E646"/>
<path d="M8261 7188.5L4211 9524V4853L8261 7188.5Z" fill="#F4E646"/>
<path d="M4211 4853L8261 7188.5V2517.5L4211 4853Z" fill="#F4E646"/>
<path d="M4211 4853L8261 7188.5V2517.5L4211 4853Z" fill="#F4E646"/>
<path d="M161 7188.5L4211 9524V4853L161 7188.5Z" fill="#F4E646"/>
<path d="M161 7188.5L4211 9524V4853L161 7188.5Z" fill="#F4E646"/>
<path d="M161 2517.5L4211 4853V182L161 2517.5Z" fill="#F4E646"/>
<path d="M161 2517.5L4211 4853V182L161 2517.5Z" fill="#F4E646"/>
<line y1="-5" x2="4675.15" y2="-5" transform="matrix(0.866282 0.499556 0.498895 -0.866662 161 7188.5)" stroke="#ADCC39" stroke-width="10"/>
<line y1="-5" x2="4675.15" y2="-5" transform="matrix(0.866271 -0.499574 -0.498914 -0.866652 4211 9524)" stroke="#ADCC39" stroke-width="10"/>
<line y1="-5" x2="4675.15" y2="-5" transform="matrix(-0.866271 0.499574 0.498914 0.866652 4210.95 181.922)" stroke="#ADCC39" stroke-width="10"/>
<line y1="-5" x2="4675.15" y2="-5" transform="matrix(-0.866271 -0.499574 -0.498914 0.866652 8260.95 2517.5)" stroke="#ADCC39" stroke-width="10"/>
<path d="M4211 4853L161 7188.5L161 2517.5L4211 4853Z" fill="#F4E646"/>
<path d="M4211 4853L161 7188.5L161 2517.5L4211 4853Z" fill="#F4E646"/>
<path d="M8261 2517.5L4211 4853V182L8261 2517.5Z" fill="#F4E646"/>
<path d="M8261 2517.5L4211 4853V182L8261 2517.5Z" fill="#F4E646"/>
<path d="M8261 7188.5L4211 9524V4853L8261 7188.5Z" fill="#F4E646"/>
<path d="M8261 7188.5L4211 9524V4853L8261 7188.5Z" fill="#F4E646"/>
<path d="M4211 4853L8261 7188.5V2517.5L4211 4853Z" fill="#F4E646"/>
<path d="M4211 4853L8261 7188.5V2517.5L4211 4853Z" fill="#F4E646"/>
<path d="M161 7188.5L4211 9524V4853L161 7188.5Z" fill="#F4E646"/>
<path d="M161 7188.5L4211 9524V4853L161 7188.5Z" fill="#F4E646"/>
<path d="M161 2517.5L4211 4853V182L161 2517.5Z" fill="#F4E646"/>
<path d="M161 2517.5L4211 4853V182L161 2517.5Z" fill="#F4E646"/>
<line y1="-5" x2="4675.15" y2="-5" transform="matrix(0.866282 0.499556 0.498895 -0.866662 161 7188.5)" stroke="#ADCC39" stroke-width="10"/>
<line y1="-5" x2="4675.15" y2="-5" transform="matrix(0.866271 -0.499574 -0.498914 -0.866652 4211 9524)" stroke="#ADCC39" stroke-width="10"/>
<line y1="-5" x2="4675.15" y2="-5" transform="matrix(-0.866271 0.499574 0.498914 0.866652 4210.95 181.922)" stroke="#ADCC39" stroke-width="10"/>
<line y1="-5" x2="4675.15" y2="-5" transform="matrix(-0.866271 -0.499574 -0.498914 0.866652 8260.95 2517.5)" stroke="#ADCC39" stroke-width="10"/>
<line y1="-5" x2="4678.25" y2="-5" transform="matrix(0 1 1 0 161 2510.27)" stroke="#ADCC39" stroke-width="10"/>
<line y1="-5" x2="4678.25" y2="-5" transform="matrix(0 1 1 0 161 2510.27)" stroke="#ADCC39" stroke-width="10"/>
<line y1="-5" x2="4678.25" y2="-5" transform="matrix(0 -1 -1 0 8261 7188.5)" stroke="#ADCC39" stroke-width="10"/>
</g>
<g style="mix-blend-mode:hard-light">
<path d="M4211 4853L311 2604L311 7102L4211 4853Z" fill="#232323"/>
<path d="M4211 4853L311 2604L311 7102L4211 4853Z" fill="#232323"/>
<path d="M8111 7102L4211 4853V9351L8111 7102Z" fill="#232323"/>
<path d="M8111 7102L4211 4853V9351L8111 7102Z" fill="#232323"/>
<path d="M8111 2604L4211 355V4853L8111 2604Z" fill="#232323"/>
<path d="M8111 2604L4211 355V4853L8111 2604Z" fill="#232323"/>
<path d="M4211 4853L8111 2604V7102L4211 4853Z" fill="#232323"/>
<path d="M4211 4853L8111 2604V7102L4211 4853Z" fill="#232323"/>
<path d="M311 2604L4211 355V4853L311 2604Z" fill="#232323"/>
<path d="M311 2604L4211 355V4853L311 2604Z" fill="#232323"/>
<path d="M311 7102L4211 4853V9351L311 7102Z" fill="#232323"/>
<path d="M311 7102L4211 4853V9351L311 7102Z" fill="#232323"/>
<line y1="-5" x2="4502" y2="-5" transform="matrix(0.866282 -0.499556 0.498896 0.866662 311 2604)" stroke="#ADCC39" stroke-width="10"/>
<line y1="-5" x2="4502" y2="-5" transform="matrix(0.866271 0.499574 -0.498914 0.866652 4211 355)" stroke="#ADCC39" stroke-width="10"/>
<line y1="-5" x2="4502" y2="-5" transform="matrix(-0.866271 -0.499574 0.498914 -0.866651 4210.95 9351.08)" stroke="#ADCC39" stroke-width="10"/>
<line y1="-5" x2="4502" y2="-5" transform="matrix(-0.866271 0.499574 -0.498914 -0.866652 8110.95 7102)" stroke="#ADCC39" stroke-width="10"/>
<path d="M4211 4853L311 2604L311 7102L4211 4853Z" fill="#232323"/>
<path d="M4211 4853L311 2604L311 7102L4211 4853Z" fill="#232323"/>
<path d="M8111 7102L4211 4853V9351L8111 7102Z" fill="#232323"/>
<path d="M8111 7102L4211 4853V9351L8111 7102Z" fill="#232323"/>
<path d="M8111 2604L4211 355V4853L8111 2604Z" fill="#232323"/>
<path d="M8111 2604L4211 355V4853L8111 2604Z" fill="#232323"/>
<path d="M4211 4853L8111 2604V7102L4211 4853Z" fill="#232323"/>
<path d="M4211 4853L8111 2604V7102L4211 4853Z" fill="#232323"/>
<path d="M311 2604L4211 355V4853L311 2604Z" fill="#232323"/>
<path d="M311 2604L4211 355V4853L311 2604Z" fill="#232323"/>
<path d="M311 7102L4211 4853V9351L311 7102Z" fill="#232323"/>
<path d="M311 7102L4211 4853V9351L311 7102Z" fill="#232323"/>
<line y1="-5" x2="4502" y2="-5" transform="matrix(0.866282 -0.499556 0.498896 0.866662 311 2604)" stroke="#ADCC39" stroke-width="10"/>
<line y1="-5" x2="4502" y2="-5" transform="matrix(0.866271 0.499574 -0.498914 0.866652 4211 355)" stroke="#ADCC39" stroke-width="10"/>
<line y1="-5" x2="4502" y2="-5" transform="matrix(-0.866271 -0.499574 0.498914 -0.866651 4210.95 9351.08)" stroke="#ADCC39" stroke-width="10"/>
<line y1="-5" x2="4502" y2="-5" transform="matrix(-0.866271 0.499574 -0.498914 -0.866652 8110.95 7102)" stroke="#ADCC39" stroke-width="10"/>
<line x1="306" y1="7108.97" x2="306" y2="2603.99" stroke="#ADCC39" stroke-width="10"/>
<line x1="306" y1="7108.97" x2="306" y2="2603.99" stroke="#ADCC39" stroke-width="10"/>
<line x1="8116" y1="2604" x2="8116" y2="7108.98" stroke="#ADCC39" stroke-width="10"/>
</g>
<g style="mix-blend-mode:lighten">
<path d="M4211 4853L461 7015.5L461 2690.5L4211 4853Z" fill="#F4E646"/>
<path d="M4211 4853L461 7015.5L461 2690.5L4211 4853Z" fill="#F4E646"/>
<path d="M7961 2690.5L4211 4853V528L7961 2690.5Z" fill="#F4E646"/>
<path d="M7961 2690.5L4211 4853V528L7961 2690.5Z" fill="#F4E646"/>
<path d="M7961 7015.5L4211 9178V4853L7961 7015.5Z" fill="#F4E646"/>
<path d="M7961 7015.5L4211 9178V4853L7961 7015.5Z" fill="#F4E646"/>
<path d="M4211 4853L7961 7015.5V2690.5L4211 4853Z" fill="#F4E646"/>
<path d="M4211 4853L7961 7015.5V2690.5L4211 4853Z" fill="#F4E646"/>
<path d="M461 7015.5L4211 9178V4853L461 7015.5Z" fill="#F4E646"/>
<path d="M461 7015.5L4211 9178V4853L461 7015.5Z" fill="#F4E646"/>
<path d="M461 2690.5L4211 4853V528L461 2690.5Z" fill="#F4E646"/>
<path d="M461 2690.5L4211 4853V528L461 2690.5Z" fill="#F4E646"/>
<line y1="-5" x2="4328.85" y2="-5" transform="matrix(0.866282 0.499556 0.498896 -0.866662 461 7015.5)" stroke="#ADCC39" stroke-width="10"/>
<line y1="-5" x2="4328.85" y2="-5" transform="matrix(0.866271 -0.499574 -0.498914 -0.866651 4211 9178)" stroke="#ADCC39" stroke-width="10"/>
<line y1="-5" x2="4328.85" y2="-5" transform="matrix(-0.866271 0.499574 0.498914 0.866651 4210.96 527.926)" stroke="#ADCC39" stroke-width="10"/>
<line y1="-5" x2="4328.85" y2="-5" transform="matrix(-0.866271 -0.499574 -0.498914 0.866651 7960.96 2690.5)" stroke="#ADCC39" stroke-width="10"/>
<path d="M4211 4853L461 7015.5L461 2690.5L4211 4853Z" fill="#F4E646"/>
<path d="M4211 4853L461 7015.5L461 2690.5L4211 4853Z" fill="#F4E646"/>
<path d="M7961 2690.5L4211 4853V528L7961 2690.5Z" fill="#F4E646"/>
<path d="M7961 2690.5L4211 4853V528L7961 2690.5Z" fill="#F4E646"/>
<path d="M7961 7015.5L4211 9178V4853L7961 7015.5Z" fill="#F4E646"/>
<path d="M7961 7015.5L4211 9178V4853L7961 7015.5Z" fill="#F4E646"/>
<path d="M4211 4853L7961 7015.5V2690.5L4211 4853Z" fill="#F4E646"/>
<path d="M4211 4853L7961 7015.5V2690.5L4211 4853Z" fill="#F4E646"/>
<path d="M461 7015.5L4211 9178V4853L461 7015.5Z" fill="#F4E646"/>
<path d="M461 7015.5L4211 9178V4853L461 7015.5Z" fill="#F4E646"/>
<path d="M461 2690.5L4211 4853V528L461 2690.5Z" fill="#F4E646"/>
<path d="M461 2690.5L4211 4853V528L461 2690.5Z" fill="#F4E646"/>
<line y1="-5" x2="4328.85" y2="-5" transform="matrix(0.866282 0.499556 0.498896 -0.866662 461 7015.5)" stroke="#ADCC39" stroke-width="10"/>
<line y1="-5" x2="4328.85" y2="-5" transform="matrix(0.866271 -0.499574 -0.498914 -0.866651 4211 9178)" stroke="#ADCC39" stroke-width="10"/>
<line y1="-5" x2="4328.85" y2="-5" transform="matrix(-0.866271 0.499574 0.498914 0.866651 4210.96 527.926)" stroke="#ADCC39" stroke-width="10"/>
<line y1="-5" x2="4328.85" y2="-5" transform="matrix(-0.866271 -0.499574 -0.498914 0.866651 7960.96 2690.5)" stroke="#ADCC39" stroke-width="10"/>
<line y1="-5" x2="4331.71" y2="-5" transform="matrix(0 1 1 0 461 2683.8)" stroke="#ADCC39" stroke-width="10"/>
<line y1="-5" x2="4331.71" y2="-5" transform="matrix(0 1 1 0 461 2683.8)" stroke="#ADCC39" stroke-width="10"/>
<line y1="-5" x2="4331.71" y2="-5" transform="matrix(0 -1 -1 0 7961 7015.5)" stroke="#ADCC39" stroke-width="10"/>
</g>
<g style="mix-blend-mode:hard-light">
<path d="M4211 4853L611 2777L611 6929L4211 4853Z" fill="#232323"/>
<path d="M4211 4853L611 2777L611 6929L4211 4853Z" fill="#232323"/>
<path d="M7811 6929L4211 4853V9005L7811 6929Z" fill="#232323"/>
<path d="M7811 6929L4211 4853V9005L7811 6929Z" fill="#232323"/>
<path d="M7811 2777L4211 700.999V4853L7811 2777Z" fill="#232323"/>
<path d="M7811 2777L4211 700.999V4853L7811 2777Z" fill="#232323"/>
<path d="M4211 4853L7811 2777V6929L4211 4853Z" fill="#232323"/>
<path d="M4211 4853L7811 2777V6929L4211 4853Z" fill="#232323"/>
<path d="M611 2777L4211 700.999V4853L611 2777Z" fill="#232323"/>
<path d="M611 2777L4211 700.999V4853L611 2777Z" fill="#232323"/>
<path d="M611 6929L4211 4853V9005L611 6929Z" fill="#232323"/>
<path d="M611 6929L4211 4853V9005L611 6929Z" fill="#232323"/>
<line y1="-5" x2="4155.69" y2="-5" transform="matrix(0.866282 -0.499556 0.498895 0.866662 611 2777)" stroke="#ADCC39" stroke-width="10"/>
<line y1="-5" x2="4155.69" y2="-5" transform="matrix(0.866271 0.499574 -0.498914 0.866652 4211 701)" stroke="#ADCC39" stroke-width="10"/>
<line y1="-5" x2="4155.69" y2="-5" transform="matrix(-0.866271 -0.499574 0.498914 -0.866652 4210.96 9005.07)" stroke="#ADCC39" stroke-width="10"/>
<line y1="-5" x2="4155.69" y2="-5" transform="matrix(-0.866271 0.499574 -0.498914 -0.866652 7810.96 6929)" stroke="#ADCC39" stroke-width="10"/>
<path d="M4211 4853L611 2777L611 6929L4211 4853Z" fill="#232323"/>
<path d="M4211 4853L611 2777L611 6929L4211 4853Z" fill="#232323"/>
<path d="M7811 6929L4211 4853V9005L7811 6929Z" fill="#232323"/>
<path d="M7811 6929L4211 4853V9005L7811 6929Z" fill="#232323"/>
<path d="M7811 2777L4211 700.999V4853L7811 2777Z" fill="#232323"/>
<path d="M7811 2777L4211 700.999V4853L7811 2777Z" fill="#232323"/>
<path d="M4211 4853L7811 2777V6929L4211 4853Z" fill="#232323"/>
<path d="M4211 4853L7811 2777V6929L4211 4853Z" fill="#232323"/>
<path d="M611 2777L4211 700.999V4853L611 2777Z" fill="#232323"/>
<path d="M611 2777L4211 700.999V4853L611 2777Z" fill="#232323"/>
<path d="M611 6929L4211 4853V9005L611 6929Z" fill="#232323"/>
<path d="M611 6929L4211 4853V9005L611 6929Z" fill="#232323"/>
<line y1="-5" x2="4155.69" y2="-5" transform="matrix(0.866282 -0.499556 0.498895 0.866662 611 2777)" stroke="#ADCC39" stroke-width="10"/>
<line y1="-5" x2="4155.69" y2="-5" transform="matrix(0.866271 0.499574 -0.498914 0.866652 4211 701)" stroke="#ADCC39" stroke-width="10"/>
<line y1="-5" x2="4155.69" y2="-5" transform="matrix(-0.866271 -0.499574 0.498914 -0.866652 4210.96 9005.07)" stroke="#ADCC39" stroke-width="10"/>
<line y1="-5" x2="4155.69" y2="-5" transform="matrix(-0.866271 0.499574 -0.498914 -0.866652 7810.96 6929)" stroke="#ADCC39" stroke-width="10"/>
<line x1="606" y1="6935.43" x2="606" y2="2776.99" stroke="#ADCC39" stroke-width="10"/>
<line x1="606" y1="6935.43" x2="606" y2="2776.99" stroke="#ADCC39" stroke-width="10"/>
<line x1="7816" y1="2777" x2="7816" y2="6935.44" stroke="#ADCC39" stroke-width="10"/>
</g>
<g style="mix-blend-mode:lighten">
<path d="M4211 4853L761 6842.5L761 2863.5L4211 4853Z" fill="#F4E646"/>
<path d="M4211 4853L761 6842.5L761 2863.5L4211 4853Z" fill="#F4E646"/>
<path d="M7661 2863.5L4211 4853V874L7661 2863.5Z" fill="#F4E646"/>
<path d="M7661 2863.5L4211 4853V874L7661 2863.5Z" fill="#F4E646"/>
<path d="M7661 6842.5L4211 8832V4853L7661 6842.5Z" fill="#F4E646"/>
<path d="M7661 6842.5L4211 8832V4853L7661 6842.5Z" fill="#F4E646"/>
<path d="M4211 4853L7661 6842.5V2863.5L4211 4853Z" fill="#F4E646"/>
<path d="M4211 4853L7661 6842.5V2863.5L4211 4853Z" fill="#F4E646"/>
<path d="M761 6842.5L4211 8832V4853L761 6842.5Z" fill="#F4E646"/>
<path d="M761 6842.5L4211 8832V4853L761 6842.5Z" fill="#F4E646"/>
<path d="M761 2863.5L4211 4853V874L761 2863.5Z" fill="#F4E646"/>
<path d="M761 2863.5L4211 4853V874L761 2863.5Z" fill="#F4E646"/>
<line y1="-5" x2="3982.54" y2="-5" transform="matrix(0.866282 0.499556 0.498896 -0.866662 761 6842.5)" stroke="#ADCC39" stroke-width="10"/>
<line y1="-5" x2="3982.54" y2="-5" transform="matrix(0.866271 -0.499574 -0.498914 -0.866651 4211 8832)" stroke="#ADCC39" stroke-width="10"/>
<line y1="-5" x2="3982.54" y2="-5" transform="matrix(-0.866271 0.499574 0.498914 0.866652 4210.96 873.934)" stroke="#ADCC39" stroke-width="10"/>
<line y1="-5" x2="3982.54" y2="-5" transform="matrix(-0.866271 -0.499574 -0.498914 0.866652 7660.96 2863.5)" stroke="#ADCC39" stroke-width="10"/>
<path d="M4211 4853L761 6842.5L761 2863.5L4211 4853Z" fill="#F4E646"/>
<path d="M4211 4853L761 6842.5L761 2863.5L4211 4853Z" fill="#F4E646"/>
<path d="M7661 2863.5L4211 4853V874L7661 2863.5Z" fill="#F4E646"/>
<path d="M7661 2863.5L4211 4853V874L7661 2863.5Z" fill="#F4E646"/>
<path d="M7661 6842.5L4211 8832V4853L7661 6842.5Z" fill="#F4E646"/>
<path d="M7661 6842.5L4211 8832V4853L7661 6842.5Z" fill="#F4E646"/>
<path d="M4211 4853L7661 6842.5V2863.5L4211 4853Z" fill="#F4E646"/>
<path d="M4211 4853L7661 6842.5V2863.5L4211 4853Z" fill="#F4E646"/>
<path d="M761 6842.5L4211 8832V4853L761 6842.5Z" fill="#F4E646"/>
<path d="M761 6842.5L4211 8832V4853L761 6842.5Z" fill="#F4E646"/>
<path d="M761 2863.5L4211 4853V874L761 2863.5Z" fill="#F4E646"/>
<path d="M761 2863.5L4211 4853V874L761 2863.5Z" fill="#F4E646"/>
<line y1="-5" x2="3982.54" y2="-5" transform="matrix(0.866282 0.499556 0.498896 -0.866662 761 6842.5)" stroke="#ADCC39" stroke-width="10"/>
<line y1="-5" x2="3982.54" y2="-5" transform="matrix(0.866271 -0.499574 -0.498914 -0.866651 4211 8832)" stroke="#ADCC39" stroke-width="10"/>
<line y1="-5" x2="3982.54" y2="-5" transform="matrix(-0.866271 0.499574 0.498914 0.866652 4210.96 873.934)" stroke="#ADCC39" stroke-width="10"/>
<line y1="-5" x2="3982.54" y2="-5" transform="matrix(-0.866271 -0.499574 -0.498914 0.866652 7660.96 2863.5)" stroke="#ADCC39" stroke-width="10"/>
<line y1="-5" x2="3985.17" y2="-5" transform="matrix(0 1 1 0 761 2857.34)" stroke="#ADCC39" stroke-width="10"/>
<line y1="-5" x2="3985.17" y2="-5" transform="matrix(0 1 1 0 761 2857.34)" stroke="#ADCC39" stroke-width="10"/>
<line y1="-5" x2="3985.17" y2="-5" transform="matrix(0 -1 -1 0 7661 6842.5)" stroke="#ADCC39" stroke-width="10"/>
</g>
<g style="mix-blend-mode:hard-light">
<path d="M4211 4853L911 2950L911 6756L4211 4853Z" fill="#232323"/>
<path d="M4211 4853L911 2950L911 6756L4211 4853Z" fill="#232323"/>
<path d="M7511 6756L4211 4853V8659L7511 6756Z" fill="#232323"/>
<path d="M7511 6756L4211 4853V8659L7511 6756Z" fill="#232323"/>
<path d="M7511 2950L4211 1047V4853L7511 2950Z" fill="#232323"/>
<path d="M7511 2950L4211 1047V4853L7511 2950Z" fill="#232323"/>
<path d="M4211 4853L7511 2950V6756L4211 4853Z" fill="#232323"/>
<path d="M4211 4853L7511 2950V6756L4211 4853Z" fill="#232323"/>
<path d="M911 2950L4211 1047V4853L911 2950Z" fill="#232323"/>
<path d="M911 2950L4211 1047V4853L911 2950Z" fill="#232323"/>
<path d="M911 6756L4211 4853V8659L911 6756Z" fill="#232323"/>
<path d="M911 6756L4211 4853V8659L911 6756Z" fill="#232323"/>
<line y1="-5" x2="3809.38" y2="-5" transform="matrix(0.866282 -0.499556 0.498896 0.866662 911 2950)" stroke="#ADCC39" stroke-width="10"/>
<line y1="-5" x2="3809.38" y2="-5" transform="matrix(0.866271 0.499574 -0.498914 0.866652 4211 1047)" stroke="#ADCC39" stroke-width="10"/>
<line y1="-5" x2="3809.38" y2="-5" transform="matrix(-0.866271 -0.499574 0.498914 -0.866652 4210.96 8659.06)" stroke="#ADCC39" stroke-width="10"/>
<line y1="-5" x2="3809.39" y2="-5" transform="matrix(-0.866271 0.499574 -0.498914 -0.866652 7510.96 6756)" stroke="#ADCC39" stroke-width="10"/>
<path d="M4211 4853L911 2950L911 6756L4211 4853Z" fill="#232323"/>
<path d="M4211 4853L911 2950L911 6756L4211 4853Z" fill="#232323"/>
<path d="M7511 6756L4211 4853V8659L7511 6756Z" fill="#232323"/>
<path d="M7511 6756L4211 4853V8659L7511 6756Z" fill="#232323"/>
<path d="M7511 2950L4211 1047V4853L7511 2950Z" fill="#232323"/>
<path d="M7511 2950L4211 1047V4853L7511 2950Z" fill="#232323"/>
<path d="M4211 4853L7511 2950V6756L4211 4853Z" fill="#232323"/>
<path d="M4211 4853L7511 2950V6756L4211 4853Z" fill="#232323"/>
<path d="M911 2950L4211 1047V4853L911 2950Z" fill="#232323"/>
<path d="M911 2950L4211 1047V4853L911 2950Z" fill="#232323"/>
<path d="M911 6756L4211 4853V8659L911 6756Z" fill="#232323"/>
<path d="M911 6756L4211 4853V8659L911 6756Z" fill="#232323"/>
<line y1="-5" x2="3809.38" y2="-5" transform="matrix(0.866282 -0.499556 0.498896 0.866662 911 2950)" stroke="#ADCC39" stroke-width="10"/>
<line y1="-5" x2="3809.38" y2="-5" transform="matrix(0.866271 0.499574 -0.498914 0.866652 4211 1047)" stroke="#ADCC39" stroke-width="10"/>
<line y1="-5" x2="3809.38" y2="-5" transform="matrix(-0.866271 -0.499574 0.498914 -0.866652 4210.96 8659.06)" stroke="#ADCC39" stroke-width="10"/>
<line y1="-5" x2="3809.39" y2="-5" transform="matrix(-0.866271 0.499574 -0.498914 -0.866652 7510.96 6756)" stroke="#ADCC39" stroke-width="10"/>
<line x1="906" y1="6761.89" x2="906" y2="2949.99" stroke="#ADCC39" stroke-width="10"/>
<line x1="906" y1="6761.89" x2="906" y2="2949.99" stroke="#ADCC39" stroke-width="10"/>
<line x1="7516" y1="2950" x2="7516" y2="6761.9" stroke="#ADCC39" stroke-width="10"/>
</g>
<g style="mix-blend-mode:lighten">
<path d="M4211 4854L1061 6670.5V3037.5L4211 4854Z" fill="#F4E646"/>
<path d="M4211 4854L1061 6670.5V3037.5L4211 4854Z" fill="#F4E646"/>
<path d="M7361 3037.5L4211 4854V1221L7361 3037.5Z" fill="#F4E646"/>
<path d="M7361 3037.5L4211 4854V1221L7361 3037.5Z" fill="#F4E646"/>
<path d="M7361 6670.5L4211 8487V4854L7361 6670.5Z" fill="#F4E646"/>
<path d="M7361 6670.5L4211 8487V4854L7361 6670.5Z" fill="#F4E646"/>
<path d="M4211 4854L7361 6670.5V3037.5L4211 4854Z" fill="#F4E646"/>
<path d="M4211 4854L7361 6670.5V3037.5L4211 4854Z" fill="#F4E646"/>
<path d="M1061 6670.5L4211 8487V4854L1061 6670.5Z" fill="#F4E646"/>
<path d="M1061 6670.5L4211 8487V4854L1061 6670.5Z" fill="#F4E646"/>
<path d="M1061 3037.5L4211 4854V1221L1061 3037.5Z" fill="#F4E646"/>
<path d="M1061 3037.5L4211 4854V1221L1061 3037.5Z" fill="#F4E646"/>
<line y1="-5" x2="3636.23" y2="-5" transform="matrix(0.866282 0.499556 0.498896 -0.866662 1061 6670.5)" stroke="#ADCC39" stroke-width="10"/>
<line y1="-5" x2="3636.23" y2="-5" transform="matrix(0.866271 -0.499574 -0.498914 -0.866651 4211 8487)" stroke="#ADCC39" stroke-width="10"/>
<line y1="-5" x2="3636.23" y2="-5" transform="matrix(-0.866271 0.499574 0.498914 0.866652 4210.96 1220.94)" stroke="#ADCC39" stroke-width="10"/>
<line y1="-5" x2="3636.23" y2="-5" transform="matrix(-0.866271 -0.499574 -0.498914 0.866651 7360.96 3037.5)" stroke="#ADCC39" stroke-width="10"/>
<path d="M4211 4854L1061 6670.5V3037.5L4211 4854Z" fill="#F4E646"/>
<path d="M4211 4854L1061 6670.5V3037.5L4211 4854Z" fill="#F4E646"/>
<path d="M7361 3037.5L4211 4854V1221L7361 3037.5Z" fill="#F4E646"/>
<path d="M7361 3037.5L4211 4854V1221L7361 3037.5Z" fill="#F4E646"/>
<path d="M7361 6670.5L4211 8487V4854L7361 6670.5Z" fill="#F4E646"/>
<path d="M7361 6670.5L4211 8487V4854L7361 6670.5Z" fill="#F4E646"/>
<path d="M4211 4854L7361 6670.5V3037.5L4211 4854Z" fill="#F4E646"/>
<path d="M4211 4854L7361 6670.5V3037.5L4211 4854Z" fill="#F4E646"/>
<path d="M1061 6670.5L4211 8487V4854L1061 6670.5Z" fill="#F4E646"/>
<path d="M1061 6670.5L4211 8487V4854L1061 6670.5Z" fill="#F4E646"/>
<path d="M1061 3037.5L4211 4854V1221L1061 3037.5Z" fill="#F4E646"/>
<path d="M1061 3037.5L4211 4854V1221L1061 3037.5Z" fill="#F4E646"/>
<line y1="-5" x2="3636.23" y2="-5" transform="matrix(0.866282 0.499556 0.498896 -0.866662 1061 6670.5)" stroke="#ADCC39" stroke-width="10"/>
<line y1="-5" x2="3636.23" y2="-5" transform="matrix(0.866271 -0.499574 -0.498914 -0.866651 4211 8487)" stroke="#ADCC39" stroke-width="10"/>
<line y1="-5" x2="3636.23" y2="-5" transform="matrix(-0.866271 0.499574 0.498914 0.866652 4210.96 1220.94)" stroke="#ADCC39" stroke-width="10"/>
<line y1="-5" x2="3636.23" y2="-5" transform="matrix(-0.866271 -0.499574 -0.498914 0.866651 7360.96 3037.5)" stroke="#ADCC39" stroke-width="10"/>
<line y1="-5" x2="3638.64" y2="-5" transform="matrix(0 1 1 0 1061 3031.87)" stroke="#ADCC39" stroke-width="10"/>
<line y1="-5" x2="3638.64" y2="-5" transform="matrix(0 1 1 0 1061 3031.87)" stroke="#ADCC39" stroke-width="10"/>
<line y1="-5" x2="3638.64" y2="-5" transform="matrix(0 -1 -1 0 7361 6670.5)" stroke="#ADCC39" stroke-width="10"/>
</g>
<g style="mix-blend-mode:hard-light">
<path d="M4211 4853L1211 3123V6583L4211 4853Z" fill="#232323"/>
<path d="M4211 4853L1211 3123V6583L4211 4853Z" fill="#232323"/>
<path d="M7211 6583L4211 4853V8313L7211 6583Z" fill="#232323"/>
<path d="M7211 6583L4211 4853V8313L7211 6583Z" fill="#232323"/>
<path d="M7211 3123L4211 1393V4853L7211 3123Z" fill="#232323"/>
<path d="M7211 3123L4211 1393V4853L7211 3123Z" fill="#232323"/>
<path d="M4211 4853L7211 3123V6583L4211 4853Z" fill="#232323"/>
<path d="M4211 4853L7211 3123V6583L4211 4853Z" fill="#232323"/>
<path d="M1211 3123L4211 1393V4853L1211 3123Z" fill="#232323"/>
<path d="M1211 3123L4211 1393V4853L1211 3123Z" fill="#232323"/>
<path d="M1211 6583L4211 4853V8313L1211 6583Z" fill="#232323"/>
<path d="M1211 6583L4211 4853V8313L1211 6583Z" fill="#232323"/>
<line y1="-5" x2="3463.08" y2="-5" transform="matrix(0.866282 -0.499556 0.498895 0.866662 1211 3123)" stroke="#ADCC39" stroke-width="10"/>
<line y1="-5" x2="3463.08" y2="-5" transform="matrix(0.866271 0.499574 -0.498914 0.866652 4211 1393)" stroke="#ADCC39" stroke-width="10"/>
<line y1="-5" x2="3463.08" y2="-5" transform="matrix(-0.866271 -0.499574 0.498914 -0.866652 4210.96 8313.06)" stroke="#ADCC39" stroke-width="10"/>
<line y1="-5" x2="3463.08" y2="-5" transform="matrix(-0.866271 0.499574 -0.498914 -0.866652 7210.96 6583)" stroke="#ADCC39" stroke-width="10"/>
<path d="M4211 4853L1211 3123V6583L4211 4853Z" fill="#232323"/>
<path d="M4211 4853L1211 3123V6583L4211 4853Z" fill="#232323"/>
<path d="M7211 6583L4211 4853V8313L7211 6583Z" fill="#232323"/>
<path d="M7211 6583L4211 4853V8313L7211 6583Z" fill="#232323"/>
<path d="M7211 3123L4211 1393V4853L7211 3123Z" fill="#232323"/>
<path d="M7211 3123L4211 1393V4853L7211 3123Z" fill="#232323"/>
<path d="M4211 4853L7211 3123V6583L4211 4853Z" fill="#232323"/>
<path d="M4211 4853L7211 3123V6583L4211 4853Z" fill="#232323"/>
<path d="M1211 3123L4211 1393V4853L1211 3123Z" fill="#232323"/>
<path d="M1211 3123L4211 1393V4853L1211 3123Z" fill="#232323"/>
<path d="M1211 6583L4211 4853V8313L1211 6583Z" fill="#232323"/>
<path d="M1211 6583L4211 4853V8313L1211 6583Z" fill="#232323"/>
<line y1="-5" x2="3463.08" y2="-5" transform="matrix(0.866282 -0.499556 0.498895 0.866662 1211 3123)" stroke="#ADCC39" stroke-width="10"/>
<line y1="-5" x2="3463.08" y2="-5" transform="matrix(0.866271 0.499574 -0.498914 0.866652 4211 1393)" stroke="#ADCC39" stroke-width="10"/>
<line y1="-5" x2="3463.08" y2="-5" transform="matrix(-0.866271 -0.499574 0.498914 -0.866652 4210.96 8313.06)" stroke="#ADCC39" stroke-width="10"/>
<line y1="-5" x2="3463.08" y2="-5" transform="matrix(-0.866271 0.499574 -0.498914 -0.866652 7210.96 6583)" stroke="#ADCC39" stroke-width="10"/>
<line x1="1206" y1="6588.36" x2="1206" y2="3122.99" stroke="#ADCC39" stroke-width="10"/>
<line x1="1206" y1="6588.36" x2="1206" y2="3122.99" stroke="#ADCC39" stroke-width="10"/>
<line x1="7216" y1="3123" x2="7216" y2="6588.37" stroke="#ADCC39" stroke-width="10"/>
</g>
<g style="mix-blend-mode:lighten">
<path d="M4211 4854L1361 6497.5V3210.5L4211 4854Z" fill="#F4E646"/>
<path d="M4211 4854L1361 6497.5V3210.5L4211 4854Z" fill="#F4E646"/>
<path d="M7061 3210.5L4211 4854V1567L7061 3210.5Z" fill="#F4E646"/>
<path d="M7061 3210.5L4211 4854V1567L7061 3210.5Z" fill="#F4E646"/>
<path d="M7061 6497.5L4211 8141V4854L7061 6497.5Z" fill="#F4E646"/>
<path d="M7061 6497.5L4211 8141V4854L7061 6497.5Z" fill="#F4E646"/>
<path d="M4211 4854L7061 6497.5V3210.5L4211 4854Z" fill="#F4E646"/>
<path d="M4211 4854L7061 6497.5V3210.5L4211 4854Z" fill="#F4E646"/>
<path d="M1361 6497.5L4211 8141V4854L1361 6497.5Z" fill="#F4E646"/>
<path d="M1361 6497.5L4211 8141V4854L1361 6497.5Z" fill="#F4E646"/>
<path d="M1361 3210.5L4211 4854V1567L1361 3210.5Z" fill="#F4E646"/>
<path d="M1361 3210.5L4211 4854V1567L1361 3210.5Z" fill="#F4E646"/>
<line y1="-5" x2="3289.92" y2="-5" transform="matrix(0.866282 0.499556 0.498895 -0.866662 1361 6497.5)" stroke="#ADCC39" stroke-width="10"/>
<line y1="-5" x2="3289.92" y2="-5" transform="matrix(0.866271 -0.499574 -0.498914 -0.866652 4211 8141)" stroke="#ADCC39" stroke-width="10"/>
<line y1="-5" x2="3289.92" y2="-5" transform="matrix(-0.866271 0.499574 0.498914 0.866652 4210.97 1566.94)" stroke="#ADCC39" stroke-width="10"/>
<line y1="-5" x2="3289.92" y2="-5" transform="matrix(-0.866271 -0.499574 -0.498914 0.866652 7060.96 3210.5)" stroke="#ADCC39" stroke-width="10"/>
<path d="M4211 4854L1361 6497.5V3210.5L4211 4854Z" fill="#F4E646"/>
<path d="M4211 4854L1361 6497.5V3210.5L4211 4854Z" fill="#F4E646"/>
<path d="M7061 3210.5L4211 4854V1567L7061 3210.5Z" fill="#F4E646"/>
<path d="M7061 3210.5L4211 4854V1567L7061 3210.5Z" fill="#F4E646"/>
<path d="M7061 6497.5L4211 8141V4854L7061 6497.5Z" fill="#F4E646"/>
<path d="M7061 6497.5L4211 8141V4854L7061 6497.5Z" fill="#F4E646"/>
<path d="M4211 4854L7061 6497.5V3210.5L4211 4854Z" fill="#F4E646"/>
<path d="M4211 4854L7061 6497.5V3210.5L4211 4854Z" fill="#F4E646"/>
<path d="M1361 6497.5L4211 8141V4854L1361 6497.5Z" fill="#F4E646"/>
<path d="M1361 6497.5L4211 8141V4854L1361 6497.5Z" fill="#F4E646"/>
<path d="M1361 3210.5L4211 4854V1567L1361 3210.5Z" fill="#F4E646"/>
<path d="M1361 3210.5L4211 4854V1567L1361 3210.5Z" fill="#F4E646"/>
<line y1="-5" x2="3289.92" y2="-5" transform="matrix(0.866282 0.499556 0.498895 -0.866662 1361 6497.5)" stroke="#ADCC39" stroke-width="10"/>
<line y1="-5" x2="3289.92" y2="-5" transform="matrix(0.866271 -0.499574 -0.498914 -0.866652 4211 8141)" stroke="#ADCC39" stroke-width="10"/>
<line y1="-5" x2="3289.92" y2="-5" transform="matrix(-0.866271 0.499574 0.498914 0.866652 4210.97 1566.94)" stroke="#ADCC39" stroke-width="10"/>
<line y1="-5" x2="3289.92" y2="-5" transform="matrix(-0.866271 -0.499574 -0.498914 0.866652 7060.96 3210.5)" stroke="#ADCC39" stroke-width="10"/>
<line y1="-5" x2="3292.1" y2="-5" transform="matrix(0 1 1 0 1361 3205.41)" stroke="#ADCC39" stroke-width="10"/>
<line y1="-5" x2="3292.1" y2="-5" transform="matrix(0 1 1 0 1361 3205.41)" stroke="#ADCC39" stroke-width="10"/>
<line y1="-5" x2="3292.1" y2="-5" transform="matrix(0 -1 -1 0 7061 6497.5)" stroke="#ADCC39" stroke-width="10"/>
</g>
<g style="mix-blend-mode:hard-light">
<path d="M4211 4853L1511 3296V6410L4211 4853Z" fill="#232323"/>
<path d="M4211 4853L1511 3296V6410L4211 4853Z" fill="#232323"/>
<path d="M6911 6410L4211 4853V7967L6911 6410Z" fill="#232323"/>
<path d="M6911 6410L4211 4853V7967L6911 6410Z" fill="#232323"/>
<path d="M6911 3296L4211 1739V4853L6911 3296Z" fill="#232323"/>
<path d="M6911 3296L4211 1739V4853L6911 3296Z" fill="#232323"/>
<path d="M4211 4853L6911 3296V6410L4211 4853Z" fill="#232323"/>
<path d="M4211 4853L6911 3296V6410L4211 4853Z" fill="#232323"/>
<path d="M1511 3296L4211 1739V4853L1511 3296Z" fill="#232323"/>
<path d="M1511 3296L4211 1739V4853L1511 3296Z" fill="#232323"/>
<path d="M1511 6410L4211 4853V7967L1511 6410Z" fill="#232323"/>
<path d="M1511 6410L4211 4853V7967L1511 6410Z" fill="#232323"/>
<line y1="-5" x2="3116.77" y2="-5" transform="matrix(0.866282 -0.499556 0.498895 0.866662 1511 3296)" stroke="#ADCC39" stroke-width="10"/>
<line y1="-5" x2="3116.77" y2="-5" transform="matrix(0.866271 0.499574 -0.498914 0.866652 4211 1739)" stroke="#ADCC39" stroke-width="10"/>
<line y1="-5" x2="3116.77" y2="-5" transform="matrix(-0.866271 -0.499574 0.498914 -0.866652 4210.97 7967.05)" stroke="#ADCC39" stroke-width="10"/>
<line y1="-5" x2="3116.77" y2="-5" transform="matrix(-0.866271 0.499574 -0.498914 -0.866652 6910.97 6410)" stroke="#ADCC39" stroke-width="10"/>
<path d="M4211 4853L1511 3296V6410L4211 4853Z" fill="#232323"/>
<path d="M4211 4853L1511 3296V6410L4211 4853Z" fill="#232323"/>
<path d="M6911 6410L4211 4853V7967L6911 6410Z" fill="#232323"/>
<path d="M6911 6410L4211 4853V7967L6911 6410Z" fill="#232323"/>
<path d="M6911 3296L4211 1739V4853L6911 3296Z" fill="#232323"/>
<path d="M6911 3296L4211 1739V4853L6911 3296Z" fill="#232323"/>
<path d="M4211 4853L6911 3296V6410L4211 4853Z" fill="#232323"/>
<path d="M4211 4853L6911 3296V6410L4211 4853Z" fill="#232323"/>
<path d="M1511 3296L4211 1739V4853L1511 3296Z" fill="#232323"/>
<path d="M1511 3296L4211 1739V4853L1511 3296Z" fill="#232323"/>
<path d="M1511 6410L4211 4853V7967L1511 6410Z" fill="#232323"/>
<path d="M1511 6410L4211 4853V7967L1511 6410Z" fill="#232323"/>
<line y1="-5" x2="3116.77" y2="-5" transform="matrix(0.866282 -0.499556 0.498895 0.866662 1511 3296)" stroke="#ADCC39" stroke-width="10"/>
<line y1="-5" x2="3116.77" y2="-5" transform="matrix(0.866271 0.499574 -0.498914 0.866652 4211 1739)" stroke="#ADCC39" stroke-width="10"/>
<line y1="-5" x2="3116.77" y2="-5" transform="matrix(-0.866271 -0.499574 0.498914 -0.866652 4210.97 7967.05)" stroke="#ADCC39" stroke-width="10"/>
<line y1="-5" x2="3116.77" y2="-5" transform="matrix(-0.866271 0.499574 -0.498914 -0.866652 6910.97 6410)" stroke="#ADCC39" stroke-width="10"/>
<line x1="1506" y1="6414.82" x2="1506" y2="3295.99" stroke="#ADCC39" stroke-width="10"/>
<line x1="1506" y1="6414.82" x2="1506" y2="3295.99" stroke="#ADCC39" stroke-width="10"/>
<line x1="6916" y1="3296" x2="6916" y2="6414.83" stroke="#ADCC39" stroke-width="10"/>
</g>
<g style="mix-blend-mode:lighten">
<path d="M4211 4853L1661 6323.5V3382.5L4211 4853Z" fill="#F4E646"/>
<path d="M4211 4853L1661 6323.5V3382.5L4211 4853Z" fill="#F4E646"/>
<path d="M6761 3382.5L4211 4853V1912L6761 3382.5Z" fill="#F4E646"/>
<path d="M6761 3382.5L4211 4853V1912L6761 3382.5Z" fill="#F4E646"/>
<path d="M6761 6323.5L4211 7794V4853L6761 6323.5Z" fill="#F4E646"/>
<path d="M6761 6323.5L4211 7794V4853L6761 6323.5Z" fill="#F4E646"/>
<path d="M4211 4853L6761 6323.5V3382.5L4211 4853Z" fill="#F4E646"/>
<path d="M4211 4853L6761 6323.5V3382.5L4211 4853Z" fill="#F4E646"/>
<path d="M1661 6323.5L4211 7794V4853L1661 6323.5Z" fill="#F4E646"/>
<path d="M1661 6323.5L4211 7794V4853L1661 6323.5Z" fill="#F4E646"/>
<path d="M1661 3382.5L4211 4853V1912L1661 3382.5Z" fill="#F4E646"/>
<path d="M1661 3382.5L4211 4853V1912L1661 3382.5Z" fill="#F4E646"/>
<line y1="-5" x2="2943.62" y2="-5" transform="matrix(0.866282 0.499556 0.498895 -0.866662 1661 6323.5)" stroke="#ADCC39" stroke-width="10"/>
<line y1="-5" x2="2943.62" y2="-5" transform="matrix(0.866271 -0.499574 -0.498914 -0.866652 4211 7794)" stroke="#ADCC39" stroke-width="10"/>
<line y1="-5" x2="2943.62" y2="-5" transform="matrix(-0.866271 0.499574 0.498914 0.866652 4210.97 1911.95)" stroke="#ADCC39" stroke-width="10"/>
<line y1="-5" x2="2943.62" y2="-5" transform="matrix(-0.866271 -0.499574 -0.498914 0.866652 6760.97 3382.5)" stroke="#ADCC39" stroke-width="10"/>
<path d="M4211 4853L1661 6323.5V3382.5L4211 4853Z" fill="#F4E646"/>
<path d="M4211 4853L1661 6323.5V3382.5L4211 4853Z" fill="#F4E646"/>
<path d="M6761 3382.5L4211 4853V1912L6761 3382.5Z" fill="#F4E646"/>
<path d="M6761 3382.5L4211 4853V1912L6761 3382.5Z" fill="#F4E646"/>
<path d="M6761 6323.5L4211 7794V4853L6761 6323.5Z" fill="#F4E646"/>
<path d="M6761 6323.5L4211 7794V4853L6761 6323.5Z" fill="#F4E646"/>
<path d="M4211 4853L6761 6323.5V3382.5L4211 4853Z" fill="#F4E646"/>
<path d="M4211 4853L6761 6323.5V3382.5L4211 4853Z" fill="#F4E646"/>
<path d="M1661 6323.5L4211 7794V4853L1661 6323.5Z" fill="#F4E646"/>
<path d="M1661 6323.5L4211 7794V4853L1661 6323.5Z" fill="#F4E646"/>
<path d="M1661 3382.5L4211 4853V1912L1661 3382.5Z" fill="#F4E646"/>
<path d="M1661 3382.5L4211 4853V1912L1661 3382.5Z" fill="#F4E646"/>
<line y1="-5" x2="2943.62" y2="-5" transform="matrix(0.866282 0.499556 0.498895 -0.866662 1661 6323.5)" stroke="#ADCC39" stroke-width="10"/>
<line y1="-5" x2="2943.62" y2="-5" transform="matrix(0.866271 -0.499574 -0.498914 -0.866652 4211 7794)" stroke="#ADCC39" stroke-width="10"/>
<line y1="-5" x2="2943.62" y2="-5" transform="matrix(-0.866271 0.499574 0.498914 0.866652 4210.97 1911.95)" stroke="#ADCC39" stroke-width="10"/>
<line y1="-5" x2="2943.62" y2="-5" transform="matrix(-0.866271 -0.499574 -0.498914 0.866652 6760.97 3382.5)" stroke="#ADCC39" stroke-width="10"/>
<line y1="-5" x2="2945.56" y2="-5" transform="matrix(0 1 1 0 1661 3377.95)" stroke="#ADCC39" stroke-width="10"/>
<line y1="-5" x2="2945.56" y2="-5" transform="matrix(0 1 1 0 1661 3377.95)" stroke="#ADCC39" stroke-width="10"/>
<line y1="-5" x2="2945.56" y2="-5" transform="matrix(0 -1 -1 0 6761 6323.5)" stroke="#ADCC39" stroke-width="10"/>
</g>
<g style="mix-blend-mode:hard-light">
<path d="M4211 4854L1811 3470V6238L4211 4854Z" fill="#232323"/>
<path d="M4211 4854L1811 3470V6238L4211 4854Z" fill="#232323"/>
<path d="M6611 6238L4211 4854V7622L6611 6238Z" fill="#232323"/>
<path d="M6611 6238L4211 4854V7622L6611 6238Z" fill="#232323"/>
<path d="M6611 3470L4211 2086V4854L6611 3470Z" fill="#232323"/>
<path d="M6611 3470L4211 2086V4854L6611 3470Z" fill="#232323"/>
<path d="M4211 4854L6611 3470V6238L4211 4854Z" fill="#232323"/>
<path d="M4211 4854L6611 3470V6238L4211 4854Z" fill="#232323"/>
<path d="M1811 3470L4211 2086V4854L1811 3470Z" fill="#232323"/>
<path d="M1811 3470L4211 2086V4854L1811 3470Z" fill="#232323"/>
<path d="M1811 6238L4211 4854V7622L1811 6238Z" fill="#232323"/>
<path d="M1811 6238L4211 4854V7622L1811 6238Z" fill="#232323"/>
<line y1="-5" x2="2770.46" y2="-5" transform="matrix(0.866282 -0.499556 0.498895 0.866662 1811 3470)" stroke="#ADCC39" stroke-width="10"/>
<line y1="-5" x2="2770.46" y2="-5" transform="matrix(0.866271 0.499574 -0.498914 0.866652 4211 2086)" stroke="#ADCC39" stroke-width="10"/>
<line y1="-5" x2="2770.46" y2="-5" transform="matrix(-0.866271 -0.499574 0.498914 -0.866652 4210.97 7622.05)" stroke="#ADCC39" stroke-width="10"/>
<line y1="-5" x2="2770.46" y2="-5" transform="matrix(-0.866271 0.499574 -0.498914 -0.866652 6610.97 6238)" stroke="#ADCC39" stroke-width="10"/>
<path d="M4211 4854L1811 3470V6238L4211 4854Z" fill="#232323"/>
<path d="M4211 4854L1811 3470V6238L4211 4854Z" fill="#232323"/>
<path d="M6611 6238L4211 4854V7622L6611 6238Z" fill="#232323"/>
<path d="M6611 6238L4211 4854V7622L6611 6238Z" fill="#232323"/>
<path d="M6611 3470L4211 2086V4854L6611 3470Z" fill="#232323"/>
<path d="M6611 3470L4211 2086V4854L6611 3470Z" fill="#232323"/>
<path d="M4211 4854L6611 3470V6238L4211 4854Z" fill="#232323"/>
<path d="M4211 4854L6611 3470V6238L4211 4854Z" fill="#232323"/>
<path d="M1811 3470L4211 2086V4854L1811 3470Z" fill="#232323"/>
<path d="M1811 3470L4211 2086V4854L1811 3470Z" fill="#232323"/>
<path d="M1811 6238L4211 4854V7622L1811 6238Z" fill="#232323"/>
<path d="M1811 6238L4211 4854V7622L1811 6238Z" fill="#232323"/>
<line y1="-5" x2="2770.46" y2="-5" transform="matrix(0.866282 -0.499556 0.498895 0.866662 1811 3470)" stroke="#ADCC39" stroke-width="10"/>
<line y1="-5" x2="2770.46" y2="-5" transform="matrix(0.866271 0.499574 -0.498914 0.866652 4211 2086)" stroke="#ADCC39" stroke-width="10"/>
<line y1="-5" x2="2770.46" y2="-5" transform="matrix(-0.866271 -0.499574 0.498914 -0.866652 4210.97 7622.05)" stroke="#ADCC39" stroke-width="10"/>
<line y1="-5" x2="2770.46" y2="-5" transform="matrix(-0.866271 0.499574 -0.498914 -0.866652 6610.97 6238)" stroke="#ADCC39" stroke-width="10"/>
<line x1="1806" y1="6242.29" x2="1806" y2="3469.99" stroke="#ADCC39" stroke-width="10"/>
<line x1="1806" y1="6242.29" x2="1806" y2="3469.99" stroke="#ADCC39" stroke-width="10"/>
<line x1="6616" y1="3470" x2="6616" y2="6242.29" stroke="#ADCC39" stroke-width="10"/>
</g>
<g style="mix-blend-mode:lighten">
<path d="M4211 4853L1961 6150.5V3555.5L4211 4853Z" fill="#F4E646"/>
<path d="M4211 4853L1961 6150.5V3555.5L4211 4853Z" fill="#F4E646"/>
<path d="M6461 3555.5L4211 4853V2258L6461 3555.5Z" fill="#F4E646"/>
<path d="M6461 3555.5L4211 4853V2258L6461 3555.5Z" fill="#F4E646"/>
<path d="M6461 6150.5L4211 7448V4853L6461 6150.5Z" fill="#F4E646"/>
<path d="M6461 6150.5L4211 7448V4853L6461 6150.5Z" fill="#F4E646"/>
<path d="M4211 4853L6461 6150.5V3555.5L4211 4853Z" fill="#F4E646"/>
<path d="M4211 4853L6461 6150.5V3555.5L4211 4853Z" fill="#F4E646"/>
<path d="M1961 6150.5L4211 7448V4853L1961 6150.5Z" fill="#F4E646"/>
<path d="M1961 6150.5L4211 7448V4853L1961 6150.5Z" fill="#F4E646"/>
<path d="M1961 3555.5L4211 4853V2258L1961 3555.5Z" fill="#F4E646"/>
<path d="M1961 3555.5L4211 4853V2258L1961 3555.5Z" fill="#F4E646"/>
<line y1="-5" x2="2597.31" y2="-5" transform="matrix(0.866282 0.499556 0.498895 -0.866662 1961 6150.5)" stroke="#ADCC39" stroke-width="10"/>
<line y1="-5" x2="2597.31" y2="-5" transform="matrix(0.866271 -0.499574 -0.498914 -0.866652 4211 7448)" stroke="#ADCC39" stroke-width="10"/>
<line y1="-5" x2="2597.31" y2="-5" transform="matrix(-0.866271 0.499574 0.498914 0.866652 4210.97 2257.96)" stroke="#ADCC39" stroke-width="10"/>
<line y1="-5" x2="2597.31" y2="-5" transform="matrix(-0.866271 -0.499574 -0.498914 0.866652 6460.97 3555.5)" stroke="#ADCC39" stroke-width="10"/>
<path d="M4211 4853L1961 6150.5V3555.5L4211 4853Z" fill="#F4E646"/>
<path d="M4211 4853L1961 6150.5V3555.5L4211 4853Z" fill="#F4E646"/>
<path d="M6461 3555.5L4211 4853V2258L6461 3555.5Z" fill="#F4E646"/>
<path d="M6461 3555.5L4211 4853V2258L6461 3555.5Z" fill="#F4E646"/>
<path d="M6461 6150.5L4211 7448V4853L6461 6150.5Z" fill="#F4E646"/>
<path d="M6461 6150.5L4211 7448V4853L6461 6150.5Z" fill="#F4E646"/>
<path d="M4211 4853L6461 6150.5V3555.5L4211 4853Z" fill="#F4E646"/>
<path d="M4211 4853L6461 6150.5V3555.5L4211 4853Z" fill="#F4E646"/>
<path d="M1961 6150.5L4211 7448V4853L1961 6150.5Z" fill="#F4E646"/>
<path d="M1961 6150.5L4211 7448V4853L1961 6150.5Z" fill="#F4E646"/>
<path d="M1961 3555.5L4211 4853V2258L1961 3555.5Z" fill="#F4E646"/>
<path d="M1961 3555.5L4211 4853V2258L1961 3555.5Z" fill="#F4E646"/>
<line y1="-5" x2="2597.31" y2="-5" transform="matrix(0.866282 0.499556 0.498895 -0.866662 1961 6150.5)" stroke="#ADCC39" stroke-width="10"/>
<line y1="-5" x2="2597.31" y2="-5" transform="matrix(0.866271 -0.499574 -0.498914 -0.866652 4211 7448)" stroke="#ADCC39" stroke-width="10"/>
<line y1="-5" x2="2597.31" y2="-5" transform="matrix(-0.866271 0.499574 0.498914 0.866652 4210.97 2257.96)" stroke="#ADCC39" stroke-width="10"/>
<line y1="-5" x2="2597.31" y2="-5" transform="matrix(-0.866271 -0.499574 -0.498914 0.866652 6460.97 3555.5)" stroke="#ADCC39" stroke-width="10"/>
<line y1="-5" x2="2599.03" y2="-5" transform="matrix(0 1 1 0 1961 3551.48)" stroke="#ADCC39" stroke-width="10"/>
<line y1="-5" x2="2599.03" y2="-5" transform="matrix(0 1 1 0 1961 3551.48)" stroke="#ADCC39" stroke-width="10"/>
<line y1="-5" x2="2599.03" y2="-5" transform="matrix(0 -1 -1 0 6461 6150.5)" stroke="#ADCC39" stroke-width="10"/>
</g>
<g style="mix-blend-mode:hard-light">
<path d="M4211 4853L2111 3642V6064L4211 4853Z" fill="#232323"/>
<path d="M4211 4853L2111 3642V6064L4211 4853Z" fill="#232323"/>
<path d="M6311 6064L4211 4853V7275L6311 6064Z" fill="#232323"/>
<path d="M6311 6064L4211 4853V7275L6311 6064Z" fill="#232323"/>
<path d="M6311 3642L4211 2431V4853L6311 3642Z" fill="#232323"/>
<path d="M6311 3642L4211 2431V4853L6311 3642Z" fill="#232323"/>
<path d="M4211 4853L6311 3642V6064L4211 4853Z" fill="#232323"/>
<path d="M4211 4853L6311 3642V6064L4211 4853Z" fill="#232323"/>
<path d="M2111 3642L4211 2431V4853L2111 3642Z" fill="#232323"/>
<path d="M2111 3642L4211 2431V4853L2111 3642Z" fill="#232323"/>
<path d="M2111 6064L4211 4853V7275L2111 6064Z" fill="#232323"/>
<path d="M2111 6064L4211 4853V7275L2111 6064Z" fill="#232323"/>
<line y1="-5" x2="2424.15" y2="-5" transform="matrix(0.866282 -0.499556 0.498896 0.866662 2111 3642)" stroke="#ADCC39" stroke-width="10"/>
<line y1="-5" x2="2424.15" y2="-5" transform="matrix(0.866271 0.499574 -0.498914 0.866651 4211 2431)" stroke="#ADCC39" stroke-width="10"/>
<line y1="-5" x2="2424.15" y2="-5" transform="matrix(-0.866271 -0.499574 0.498914 -0.866652 4210.97 7275.04)" stroke="#ADCC39" stroke-width="10"/>
<line y1="-5" x2="2424.15" y2="-5" transform="matrix(-0.866271 0.499574 -0.498914 -0.866652 6310.97 6064)" stroke="#ADCC39" stroke-width="10"/>
<path d="M4211 4853L2111 3642V6064L4211 4853Z" fill="#232323"/>
<path d="M4211 4853L2111 3642V6064L4211 4853Z" fill="#232323"/>
<path d="M6311 6064L4211 4853V7275L6311 6064Z" fill="#232323"/>
<path d="M6311 6064L4211 4853V7275L6311 6064Z" fill="#232323"/>
<path d="M6311 3642L4211 2431V4853L6311 3642Z" fill="#232323"/>
<path d="M6311 3642L4211 2431V4853L6311 3642Z" fill="#232323"/>
<path d="M4211 4853L6311 3642V6064L4211 4853Z" fill="#232323"/>
<path d="M4211 4853L6311 3642V6064L4211 4853Z" fill="#232323"/>
<path d="M2111 3642L4211 2431V4853L2111 3642Z" fill="#232323"/>
<path d="M2111 3642L4211 2431V4853L2111 3642Z" fill="#232323"/>
<path d="M2111 6064L4211 4853V7275L2111 6064Z" fill="#232323"/>
<path d="M2111 6064L4211 4853V7275L2111 6064Z" fill="#232323"/>
<line y1="-5" x2="2424.15" y2="-5" transform="matrix(0.866282 -0.499556 0.498896 0.866662 2111 3642)" stroke="#ADCC39" stroke-width="10"/>
<line y1="-5" x2="2424.15" y2="-5" transform="matrix(0.866271 0.499574 -0.498914 0.866651 4211 2431)" stroke="#ADCC39" stroke-width="10"/>
<line y1="-5" x2="2424.15" y2="-5" transform="matrix(-0.866271 -0.499574 0.498914 -0.866652 4210.97 7275.04)" stroke="#ADCC39" stroke-width="10"/>
<line y1="-5" x2="2424.15" y2="-5" transform="matrix(-0.866271 0.499574 -0.498914 -0.866652 6310.97 6064)" stroke="#ADCC39" stroke-width="10"/>
<line x1="2106" y1="6067.75" x2="2106" y2="3642" stroke="#ADCC39" stroke-width="10"/>
<line x1="2106" y1="6067.75" x2="2106" y2="3642" stroke="#ADCC39" stroke-width="10"/>
<line x1="6316" y1="3642" x2="6316" y2="6067.76" stroke="#ADCC39" stroke-width="10"/>
</g>
<g style="mix-blend-mode:lighten">
<path d="M4211 4853L2261 3728.5V5977.5L4211 4853Z" fill="#F4E646"/>
<path d="M4211 4853L2261 3728.5V5977.5L4211 4853Z" fill="#F4E646"/>
<path d="M6161 5977.5L4211 4853V7102L6161 5977.5Z" fill="#F4E646"/>
<path d="M6161 5977.5L4211 4853V7102L6161 5977.5Z" fill="#F4E646"/>
<path d="M6161 3728.5L4211 2604V4853L6161 3728.5Z" fill="#F4E646"/>
<path d="M6161 3728.5L4211 2604V4853L6161 3728.5Z" fill="#F4E646"/>
<path d="M4211 4853L6161 3728.5V5977.5L4211 4853Z" fill="#F4E646"/>
<path d="M4211 4853L6161 3728.5V5977.5L4211 4853Z" fill="#F4E646"/>
<path d="M2261 3728.5L4211 2604V4853L2261 3728.5Z" fill="#F4E646"/>
<path d="M2261 3728.5L4211 2604V4853L2261 3728.5Z" fill="#F4E646"/>
<path d="M2261 5977.5L4211 4853V7102L2261 5977.5Z" fill="#F4E646"/>
<path d="M2261 5977.5L4211 4853V7102L2261 5977.5Z" fill="#F4E646"/>
<line y1="-5" x2="2251" y2="-5" transform="matrix(0.866282 -0.499556 0.498896 0.866662 2261 3728.5)" stroke="#ADCC39" stroke-width="10"/>
<line y1="-5" x2="2251" y2="-5" transform="matrix(0.866271 0.499574 -0.498914 0.866652 4211 2604)" stroke="#ADCC39" stroke-width="10"/>
<line y1="-5" x2="2251" y2="-5" transform="matrix(-0.866271 -0.499574 0.498914 -0.866652 4210.98 7102.04)" stroke="#ADCC39" stroke-width="10"/>
<line y1="-5" x2="2251" y2="-5" transform="matrix(-0.866271 0.499574 -0.498914 -0.866652 6160.98 5977.5)" stroke="#ADCC39" stroke-width="10"/>
<path d="M4211 4853L2261 3728.5V5977.5L4211 4853Z" fill="#F4E646"/>
<path d="M4211 4853L2261 3728.5V5977.5L4211 4853Z" fill="#F4E646"/>
<path d="M6161 5977.5L4211 4853V7102L6161 5977.5Z" fill="#F4E646"/>
<path d="M6161 5977.5L4211 4853V7102L6161 5977.5Z" fill="#F4E646"/>
<path d="M6161 3728.5L4211 2604V4853L6161 3728.5Z" fill="#F4E646"/>
<path d="M6161 3728.5L4211 2604V4853L6161 3728.5Z" fill="#F4E646"/>
<path d="M4211 4853L6161 3728.5V5977.5L4211 4853Z" fill="#F4E646"/>
<path d="M4211 4853L6161 3728.5V5977.5L4211 4853Z" fill="#F4E646"/>
<path d="M2261 3728.5L4211 2604V4853L2261 3728.5Z" fill="#F4E646"/>
<path d="M2261 3728.5L4211 2604V4853L2261 3728.5Z" fill="#F4E646"/>
<path d="M2261 5977.5L4211 4853V7102L2261 5977.5Z" fill="#F4E646"/>
<path d="M2261 5977.5L4211 4853V7102L2261 5977.5Z" fill="#F4E646"/>
<line y1="-5" x2="2251" y2="-5" transform="matrix(0.866282 -0.499556 0.498896 0.866662 2261 3728.5)" stroke="#ADCC39" stroke-width="10"/>
<line y1="-5" x2="2251" y2="-5" transform="matrix(0.866271 0.499574 -0.498914 0.866652 4211 2604)" stroke="#ADCC39" stroke-width="10"/>
<line y1="-5" x2="2251" y2="-5" transform="matrix(-0.866271 -0.499574 0.498914 -0.866652 4210.98 7102.04)" stroke="#ADCC39" stroke-width="10"/>
<line y1="-5" x2="2251" y2="-5" transform="matrix(-0.866271 0.499574 -0.498914 -0.866652 6160.98 5977.5)" stroke="#ADCC39" stroke-width="10"/>
<line x1="2256" y1="5980.98" x2="2256" y2="3728.5" stroke="#ADCC39" stroke-width="10"/>
<line x1="2256" y1="5980.98" x2="2256" y2="3728.5" stroke="#ADCC39" stroke-width="10"/>
<line x1="6166" y1="3728.5" x2="6166" y2="5980.99" stroke="#ADCC39" stroke-width="10"/>
</g>
<g style="mix-blend-mode:hard-light">
<path d="M4211 4854L2411 3816V5892L4211 4854Z" fill="#232323"/>
<path d="M4211 4854L2411 3816V5892L4211 4854Z" fill="#232323"/>
<path d="M6011 5892L4211 4854V6930L6011 5892Z" fill="#232323"/>
<path d="M6011 5892L4211 4854V6930L6011 5892Z" fill="#232323"/>
<path d="M6011 3816L4211 2778V4854L6011 3816Z" fill="#232323"/>
<path d="M6011 3816L4211 2778V4854L6011 3816Z" fill="#232323"/>
<path d="M4211 4854L6011 3816V5892L4211 4854Z" fill="#232323"/>
<path d="M4211 4854L6011 3816V5892L4211 4854Z" fill="#232323"/>
<path d="M2411 3816L4211 2778V4854L2411 3816Z" fill="#232323"/>
<path d="M2411 3816L4211 2778V4854L2411 3816Z" fill="#232323"/>
<path d="M2411 5892L4211 4854V6930L2411 5892Z" fill="#232323"/>
<path d="M2411 5892L4211 4854V6930L2411 5892Z" fill="#232323"/>
<line y1="-5" x2="2077.85" y2="-5" transform="matrix(0.866282 -0.499556 0.498896 0.866662 2411 3816)" stroke="#ADCC39" stroke-width="10"/>
<line y1="-5" x2="2077.85" y2="-5" transform="matrix(0.866271 0.499574 -0.498914 0.866652 4211 2778)" stroke="#ADCC39" stroke-width="10"/>
<line y1="-5" x2="2077.85" y2="-5" transform="matrix(-0.866271 -0.499574 0.498914 -0.866652 4210.98 6930.04)" stroke="#ADCC39" stroke-width="10"/>
<line y1="-5" x2="2077.85" y2="-5" transform="matrix(-0.866271 0.499574 -0.498914 -0.866652 6010.98 5892)" stroke="#ADCC39" stroke-width="10"/>
<path d="M4211 4854L2411 3816V5892L4211 4854Z" fill="#232323"/>
<path d="M4211 4854L2411 3816V5892L4211 4854Z" fill="#232323"/>
<path d="M6011 5892L4211 4854V6930L6011 5892Z" fill="#232323"/>
<path d="M6011 5892L4211 4854V6930L6011 5892Z" fill="#232323"/>
<path d="M6011 3816L4211 2778V4854L6011 3816Z" fill="#232323"/>
<path d="M6011 3816L4211 2778V4854L6011 3816Z" fill="#232323"/>
<path d="M4211 4854L6011 3816V5892L4211 4854Z" fill="#232323"/>
<path d="M4211 4854L6011 3816V5892L4211 4854Z" fill="#232323"/>
<path d="M2411 3816L4211 2778V4854L2411 3816Z" fill="#232323"/>
<path d="M2411 3816L4211 2778V4854L2411 3816Z" fill="#232323"/>
<path d="M2411 5892L4211 4854V6930L2411 5892Z" fill="#232323"/>
<path d="M2411 5892L4211 4854V6930L2411 5892Z" fill="#232323"/>
<line y1="-5" x2="2077.85" y2="-5" transform="matrix(0.866282 -0.499556 0.498896 0.866662 2411 3816)" stroke="#ADCC39" stroke-width="10"/>
<line y1="-5" x2="2077.85" y2="-5" transform="matrix(0.866271 0.499574 -0.498914 0.866652 4211 2778)" stroke="#ADCC39" stroke-width="10"/>
<line y1="-5" x2="2077.85" y2="-5" transform="matrix(-0.866271 -0.499574 0.498914 -0.866652 4210.98 6930.04)" stroke="#ADCC39" stroke-width="10"/>
<line y1="-5" x2="2077.85" y2="-5" transform="matrix(-0.866271 0.499574 -0.498914 -0.866652 6010.98 5892)" stroke="#ADCC39" stroke-width="10"/>
<line x1="2406" y1="5895.21" x2="2406" y2="3815.99" stroke="#ADCC39" stroke-width="10"/>
<line x1="2406" y1="5895.21" x2="2406" y2="3815.99" stroke="#ADCC39" stroke-width="10"/>
<line x1="6016" y1="3816" x2="6016" y2="5895.22" stroke="#ADCC39" stroke-width="10"/>
</g>
<g style="mix-blend-mode:lighten">
<path d="M4211 4854L2561 3902.5V5805.5L4211 4854Z" fill="#F4E646"/>
<path d="M4211 4854L2561 3902.5V5805.5L4211 4854Z" fill="#F4E646"/>
<path d="M5861 5805.5L4211 4854V6757L5861 5805.5Z" fill="#F4E646"/>
<path d="M5861 5805.5L4211 4854V6757L5861 5805.5Z" fill="#F4E646"/>
<path d="M5861 3902.5L4211 2951V4854L5861 3902.5Z" fill="#F4E646"/>
<path d="M5861 3902.5L4211 2951V4854L5861 3902.5Z" fill="#F4E646"/>
<path d="M4211 4854L5861 3902.5V5805.5L4211 4854Z" fill="#F4E646"/>
<path d="M4211 4854L5861 3902.5V5805.5L4211 4854Z" fill="#F4E646"/>
<path d="M2561 3902.5L4211 2951V4854L2561 3902.5Z" fill="#F4E646"/>
<path d="M2561 3902.5L4211 2951V4854L2561 3902.5Z" fill="#F4E646"/>
<path d="M2561 5805.5L4211 4854V6757L2561 5805.5Z" fill="#F4E646"/>
<path d="M2561 5805.5L4211 4854V6757L2561 5805.5Z" fill="#F4E646"/>
<line y1="-5" x2="1904.69" y2="-5" transform="matrix(0.866282 -0.499556 0.498895 0.866662 2561 3902.5)" stroke="#ADCC39" stroke-width="10"/>
<line y1="-5" x2="1904.69" y2="-5" transform="matrix(0.866271 0.499574 -0.498914 0.866652 4211 2951)" stroke="#ADCC39" stroke-width="10"/>
<line y1="-5" x2="1904.69" y2="-5" transform="matrix(-0.866271 -0.499574 0.498914 -0.866652 4210.98 6757.03)" stroke="#ADCC39" stroke-width="10"/>
<line y1="-5" x2="1904.69" y2="-5" transform="matrix(-0.866271 0.499574 -0.498914 -0.866652 5860.98 5805.5)" stroke="#ADCC39" stroke-width="10"/>
<path d="M4211 4854L2561 3902.5V5805.5L4211 4854Z" fill="#F4E646"/>
<path d="M4211 4854L2561 3902.5V5805.5L4211 4854Z" fill="#F4E646"/>
<path d="M5861 5805.5L4211 4854V6757L5861 5805.5Z" fill="#F4E646"/>
<path d="M5861 5805.5L4211 4854V6757L5861 5805.5Z" fill="#F4E646"/>
<path d="M5861 3902.5L4211 2951V4854L5861 3902.5Z" fill="#F4E646"/>
<path d="M5861 3902.5L4211 2951V4854L5861 3902.5Z" fill="#F4E646"/>
<path d="M4211 4854L5861 3902.5V5805.5L4211 4854Z" fill="#F4E646"/>
<path d="M4211 4854L5861 3902.5V5805.5L4211 4854Z" fill="#F4E646"/>
<path d="M2561 3902.5L4211 2951V4854L2561 3902.5Z" fill="#F4E646"/>
<path d="M2561 3902.5L4211 2951V4854L2561 3902.5Z" fill="#F4E646"/>
<path d="M2561 5805.5L4211 4854V6757L2561 5805.5Z" fill="#F4E646"/>
<path d="M2561 5805.5L4211 4854V6757L2561 5805.5Z" fill="#F4E646"/>
<line y1="-5" x2="1904.69" y2="-5" transform="matrix(0.866282 -0.499556 0.498895 0.866662 2561 3902.5)" stroke="#ADCC39" stroke-width="10"/>
<line y1="-5" x2="1904.69" y2="-5" transform="matrix(0.866271 0.499574 -0.498914 0.866652 4211 2951)" stroke="#ADCC39" stroke-width="10"/>
<line y1="-5" x2="1904.69" y2="-5" transform="matrix(-0.866271 -0.499574 0.498914 -0.866652 4210.98 6757.03)" stroke="#ADCC39" stroke-width="10"/>
<line y1="-5" x2="1904.69" y2="-5" transform="matrix(-0.866271 0.499574 -0.498914 -0.866652 5860.98 5805.5)" stroke="#ADCC39" stroke-width="10"/>
<line x1="2556" y1="5808.45" x2="2556" y2="3902.5" stroke="#ADCC39" stroke-width="10"/>
<line x1="2556" y1="5808.45" x2="2556" y2="3902.5" stroke="#ADCC39" stroke-width="10"/>
<line x1="5866" y1="3902.5" x2="5866" y2="5808.45" stroke="#ADCC39" stroke-width="10"/>
</g>
<g style="mix-blend-mode:hard-light">
<path d="M4211 4854L2711 3989V5719L4211 4854Z" fill="#232323"/>
<path d="M4211 4854L2711 3989V5719L4211 4854Z" fill="#232323"/>
<path d="M5711 5719L4211 4854V6584L5711 5719Z" fill="#232323"/>
<path d="M5711 5719L4211 4854V6584L5711 5719Z" fill="#232323"/>
<path d="M5711 3989L4211 3124V4854L5711 3989Z" fill="#232323"/>
<path d="M5711 3989L4211 3124V4854L5711 3989Z" fill="#232323"/>
<path d="M4211 4854L5711 3989V5719L4211 4854Z" fill="#232323"/>
<path d="M4211 4854L5711 3989V5719L4211 4854Z" fill="#232323"/>
<path d="M2711 3989L4211 3124V4854L2711 3989Z" fill="#232323"/>
<path d="M2711 3989L4211 3124V4854L2711 3989Z" fill="#232323"/>
<path d="M2711 5719L4211 4854V6584L2711 5719Z" fill="#232323"/>
<path d="M2711 5719L4211 4854V6584L2711 5719Z" fill="#232323"/>
<line y1="-5" x2="1731.54" y2="-5" transform="matrix(0.866282 -0.499556 0.498895 0.866662 2711 3989)" stroke="#ADCC39" stroke-width="10"/>
<line y1="-5" x2="1731.54" y2="-5" transform="matrix(0.866271 0.499574 -0.498914 0.866652 4211 3124)" stroke="#ADCC39" stroke-width="10"/>
<line y1="-5" x2="1731.54" y2="-5" transform="matrix(-0.866271 -0.499574 0.498914 -0.866652 4210.98 6584.03)" stroke="#ADCC39" stroke-width="10"/>
<line y1="-5" x2="1731.54" y2="-5" transform="matrix(-0.866271 0.499574 -0.498914 -0.866652 5710.98 5719)" stroke="#ADCC39" stroke-width="10"/>
<path d="M4211 4854L2711 3989V5719L4211 4854Z" fill="#232323"/>
<path d="M4211 4854L2711 3989V5719L4211 4854Z" fill="#232323"/>
<path d="M5711 5719L4211 4854V6584L5711 5719Z" fill="#232323"/>
<path d="M5711 5719L4211 4854V6584L5711 5719Z" fill="#232323"/>
<path d="M5711 3989L4211 3124V4854L5711 3989Z" fill="#232323"/>
<path d="M5711 3989L4211 3124V4854L5711 3989Z" fill="#232323"/>
<path d="M4211 4854L5711 3989V5719L4211 4854Z" fill="#232323"/>
<path d="M4211 4854L5711 3989V5719L4211 4854Z" fill="#232323"/>
<path d="M2711 3989L4211 3124V4854L2711 3989Z" fill="#232323"/>
<path d="M2711 3989L4211 3124V4854L2711 3989Z" fill="#232323"/>
<path d="M2711 5719L4211 4854V6584L2711 5719Z" fill="#232323"/>
<path d="M2711 5719L4211 4854V6584L2711 5719Z" fill="#232323"/>
<line y1="-5" x2="1731.54" y2="-5" transform="matrix(0.866282 -0.499556 0.498895 0.866662 2711 3989)" stroke="#ADCC39" stroke-width="10"/>
<line y1="-5" x2="1731.54" y2="-5" transform="matrix(0.866271 0.499574 -0.498914 0.866652 4211 3124)" stroke="#ADCC39" stroke-width="10"/>
<line y1="-5" x2="1731.54" y2="-5" transform="matrix(-0.866271 -0.499574 0.498914 -0.866652 4210.98 6584.03)" stroke="#ADCC39" stroke-width="10"/>
<line y1="-5" x2="1731.54" y2="-5" transform="matrix(-0.866271 0.499574 -0.498914 -0.866652 5710.98 5719)" stroke="#ADCC39" stroke-width="10"/>
<line x1="2706" y1="5721.68" x2="2706" y2="3989" stroke="#ADCC39" stroke-width="10"/>
<line x1="2706" y1="5721.68" x2="2706" y2="3989" stroke="#ADCC39" stroke-width="10"/>
<line x1="5716" y1="3989" x2="5716" y2="5721.68" stroke="#ADCC39" stroke-width="10"/>
</g>
<g style="mix-blend-mode:lighten">
<path d="M4211 4854L2861 4075.5V5632.5L4211 4854Z" fill="#F4E646"/>
<path d="M4211 4854L2861 4075.5V5632.5L4211 4854Z" fill="#F4E646"/>
<path d="M5561 5632.5L4211 4854V6411L5561 5632.5Z" fill="#F4E646"/>
<path d="M5561 5632.5L4211 4854V6411L5561 5632.5Z" fill="#F4E646"/>
<path d="M5561 4075.5L4211 3297V4854L5561 4075.5Z" fill="#F4E646"/>
<path d="M5561 4075.5L4211 3297V4854L5561 4075.5Z" fill="#F4E646"/>
<path d="M4211 4854L5561 4075.5V5632.5L4211 4854Z" fill="#F4E646"/>
<path d="M4211 4854L5561 4075.5V5632.5L4211 4854Z" fill="#F4E646"/>
<path d="M2861 4075.5L4211 3297V4854L2861 4075.5Z" fill="#F4E646"/>
<path d="M2861 4075.5L4211 3297V4854L2861 4075.5Z" fill="#F4E646"/>
<path d="M2861 5632.5L4211 4854V6411L2861 5632.5Z" fill="#F4E646"/>
<path d="M2861 5632.5L4211 4854V6411L2861 5632.5Z" fill="#F4E646"/>
<line y1="-5" x2="1558.38" y2="-5" transform="matrix(0.866282 -0.499556 0.498896 0.866662 2861 4075.5)" stroke="#ADCC39" stroke-width="10"/>
<line y1="-5" x2="1558.38" y2="-5" transform="matrix(0.866271 0.499574 -0.498914 0.866651 4211 3297)" stroke="#ADCC39" stroke-width="10"/>
<line y1="-5" x2="1558.38" y2="-5" transform="matrix(-0.866271 -0.499574 0.498914 -0.866651 4210.98 6411.03)" stroke="#ADCC39" stroke-width="10"/>
<line y1="-5" x2="1558.38" y2="-5" transform="matrix(-0.866271 0.499574 -0.498914 -0.866652 5560.98 5632.5)" stroke="#ADCC39" stroke-width="10"/>
<path d="M4211 4854L2861 4075.5V5632.5L4211 4854Z" fill="#F4E646"/>
<path d="M4211 4854L2861 4075.5V5632.5L4211 4854Z" fill="#F4E646"/>
<path d="M5561 5632.5L4211 4854V6411L5561 5632.5Z" fill="#F4E646"/>
<path d="M5561 5632.5L4211 4854V6411L5561 5632.5Z" fill="#F4E646"/>
<path d="M5561 4075.5L4211 3297V4854L5561 4075.5Z" fill="#F4E646"/>
<path d="M5561 4075.5L4211 3297V4854L5561 4075.5Z" fill="#F4E646"/>
<path d="M4211 4854L5561 4075.5V5632.5L4211 4854Z" fill="#F4E646"/>
<path d="M4211 4854L5561 4075.5V5632.5L4211 4854Z" fill="#F4E646"/>
<path d="M2861 4075.5L4211 3297V4854L2861 4075.5Z" fill="#F4E646"/>
<path d="M2861 4075.5L4211 3297V4854L2861 4075.5Z" fill="#F4E646"/>
<path d="M2861 5632.5L4211 4854V6411L2861 5632.5Z" fill="#F4E646"/>
<path d="M2861 5632.5L4211 4854V6411L2861 5632.5Z" fill="#F4E646"/>
<line y1="-5" x2="1558.38" y2="-5" transform="matrix(0.866282 -0.499556 0.498896 0.866662 2861 4075.5)" stroke="#ADCC39" stroke-width="10"/>
<line y1="-5" x2="1558.38" y2="-5" transform="matrix(0.866271 0.499574 -0.498914 0.866651 4211 3297)" stroke="#ADCC39" stroke-width="10"/>
<line y1="-5" x2="1558.38" y2="-5" transform="matrix(-0.866271 -0.499574 0.498914 -0.866651 4210.98 6411.03)" stroke="#ADCC39" stroke-width="10"/>
<line y1="-5" x2="1558.38" y2="-5" transform="matrix(-0.866271 0.499574 -0.498914 -0.866652 5560.98 5632.5)" stroke="#ADCC39" stroke-width="10"/>
<line x1="2856" y1="5634.91" x2="2856" y2="4075.5" stroke="#ADCC39" stroke-width="10"/>
<line x1="2856" y1="5634.91" x2="2856" y2="4075.5" stroke="#ADCC39" stroke-width="10"/>
<line x1="5566" y1="4075.5" x2="5566" y2="5634.92" stroke="#ADCC39" stroke-width="10"/>
</g>
<g style="mix-blend-mode:hard-light">
<path d="M4211 4854L3011 4162V5546L4211 4854Z" fill="#232323"/>
<path d="M4211 4854L3011 4162V5546L4211 4854Z" fill="#232323"/>
<path d="M5411 5546L4211 4854V6238L5411 5546Z" fill="#232323"/>
<path d="M5411 5546L4211 4854V6238L5411 5546Z" fill="#232323"/>
<path d="M5411 4162L4211 3470V4854L5411 4162Z" fill="#232323"/>
<path d="M5411 4162L4211 3470V4854L5411 4162Z" fill="#232323"/>
<path d="M4211 4854L5411 4162V5546L4211 4854Z" fill="#232323"/>
<path d="M4211 4854L5411 4162V5546L4211 4854Z" fill="#232323"/>
<path d="M3011 4162L4211 3470V4854L3011 4162Z" fill="#232323"/>
<path d="M3011 4162L4211 3470V4854L3011 4162Z" fill="#232323"/>
<path d="M3011 5546L4211 4854V6238L3011 5546Z" fill="#232323"/>
<path d="M3011 5546L4211 4854V6238L3011 5546Z" fill="#232323"/>
<line y1="-5" x2="1385.23" y2="-5" transform="matrix(0.866282 -0.499556 0.498895 0.866662 3011 4162)" stroke="#ADCC39" stroke-width="10"/>
<line y1="-5" x2="1385.23" y2="-5" transform="matrix(0.866271 0.499574 -0.498914 0.866652 4211 3470)" stroke="#ADCC39" stroke-width="10"/>
<line y1="-5" x2="1385.23" y2="-5" transform="matrix(-0.866271 -0.499574 0.498914 -0.866652 4210.99 6238.02)" stroke="#ADCC39" stroke-width="10"/>
<line y1="-5" x2="1385.23" y2="-5" transform="matrix(-0.866271 0.499574 -0.498914 -0.866652 5410.99 5546)" stroke="#ADCC39" stroke-width="10"/>
<path d="M4211 4854L3011 4162V5546L4211 4854Z" fill="#232323"/>
<path d="M4211 4854L3011 4162V5546L4211 4854Z" fill="#232323"/>
<path d="M5411 5546L4211 4854V6238L5411 5546Z" fill="#232323"/>
<path d="M5411 5546L4211 4854V6238L5411 5546Z" fill="#232323"/>
<path d="M5411 4162L4211 3470V4854L5411 4162Z" fill="#232323"/>
<path d="M5411 4162L4211 3470V4854L5411 4162Z" fill="#232323"/>
<path d="M4211 4854L5411 4162V5546L4211 4854Z" fill="#232323"/>
<path d="M4211 4854L5411 4162V5546L4211 4854Z" fill="#232323"/>
<path d="M3011 4162L4211 3470V4854L3011 4162Z" fill="#232323"/>
<path d="M3011 4162L4211 3470V4854L3011 4162Z" fill="#232323"/>
<path d="M3011 5546L4211 4854V6238L3011 5546Z" fill="#232323"/>
<path d="M3011 5546L4211 4854V6238L3011 5546Z" fill="#232323"/>
<line y1="-5" x2="1385.23" y2="-5" transform="matrix(0.866282 -0.499556 0.498895 0.866662 3011 4162)" stroke="#ADCC39" stroke-width="10"/>
<line y1="-5" x2="1385.23" y2="-5" transform="matrix(0.866271 0.499574 -0.498914 0.866652 4211 3470)" stroke="#ADCC39" stroke-width="10"/>
<line y1="-5" x2="1385.23" y2="-5" transform="matrix(-0.866271 -0.499574 0.498914 -0.866652 4210.99 6238.02)" stroke="#ADCC39" stroke-width="10"/>
<line y1="-5" x2="1385.23" y2="-5" transform="matrix(-0.866271 0.499574 -0.498914 -0.866652 5410.99 5546)" stroke="#ADCC39" stroke-width="10"/>
<line x1="3006" y1="5548.14" x2="3006" y2="4162" stroke="#ADCC39" stroke-width="10"/>
<line x1="3006" y1="5548.14" x2="3006" y2="4162" stroke="#ADCC39" stroke-width="10"/>
<line x1="5416" y1="4162" x2="5416" y2="5548.15" stroke="#ADCC39" stroke-width="10"/>
</g>
<g style="mix-blend-mode:lighten">
<path d="M4211 4853L3161 4247.5V5458.5L4211 4853Z" fill="#F4E646"/>
<path d="M4211 4853L3161 4247.5V5458.5L4211 4853Z" fill="#F4E646"/>
<path d="M5261 5458.5L4211 4853V6064L5261 5458.5Z" fill="#F4E646"/>
<path d="M5261 5458.5L4211 4853V6064L5261 5458.5Z" fill="#F4E646"/>
<path d="M5261 4247.5L4211 3642V4853L5261 4247.5Z" fill="#F4E646"/>
<path d="M5261 4247.5L4211 3642V4853L5261 4247.5Z" fill="#F4E646"/>
<path d="M4211 4853L5261 4247.5V5458.5L4211 4853Z" fill="#F4E646"/>
<path d="M4211 4853L5261 4247.5V5458.5L4211 4853Z" fill="#F4E646"/>
<path d="M3161 4247.5L4211 3642V4853L3161 4247.5Z" fill="#F4E646"/>
<path d="M3161 4247.5L4211 3642V4853L3161 4247.5Z" fill="#F4E646"/>
<path d="M3161 5458.5L4211 4853V6064L3161 5458.5Z" fill="#F4E646"/>
<path d="M3161 5458.5L4211 4853V6064L3161 5458.5Z" fill="#F4E646"/>
<line y1="-5" x2="1212.08" y2="-5" transform="matrix(0.866282 -0.499556 0.498895 0.866662 3161 4247.5)" stroke="#ADCC39" stroke-width="10"/>
<line y1="-5" x2="1212.08" y2="-5" transform="matrix(0.866271 0.499574 -0.498914 0.866652 4211 3642)" stroke="#ADCC39" stroke-width="10"/>
<line y1="-5" x2="1212.08" y2="-5" transform="matrix(-0.866271 -0.499574 0.498914 -0.866652 4210.99 6064.02)" stroke="#ADCC39" stroke-width="10"/>
<line y1="-5" x2="1212.08" y2="-5" transform="matrix(-0.866271 0.499574 -0.498914 -0.866652 5260.99 5458.5)" stroke="#ADCC39" stroke-width="10"/>
<path d="M4211 4853L3161 4247.5V5458.5L4211 4853Z" fill="#F4E646"/>
<path d="M4211 4853L3161 4247.5V5458.5L4211 4853Z" fill="#F4E646"/>
<path d="M5261 5458.5L4211 4853V6064L5261 5458.5Z" fill="#F4E646"/>
<path d="M5261 5458.5L4211 4853V6064L5261 5458.5Z" fill="#F4E646"/>
<path d="M5261 4247.5L4211 3642V4853L5261 4247.5Z" fill="#F4E646"/>
<path d="M5261 4247.5L4211 3642V4853L5261 4247.5Z" fill="#F4E646"/>
<path d="M4211 4853L5261 4247.5V5458.5L4211 4853Z" fill="#F4E646"/>
<path d="M4211 4853L5261 4247.5V5458.5L4211 4853Z" fill="#F4E646"/>
<path d="M3161 4247.5L4211 3642V4853L3161 4247.5Z" fill="#F4E646"/>
<path d="M3161 4247.5L4211 3642V4853L3161 4247.5Z" fill="#F4E646"/>
<path d="M3161 5458.5L4211 4853V6064L3161 5458.5Z" fill="#F4E646"/>
<path d="M3161 5458.5L4211 4853V6064L3161 5458.5Z" fill="#F4E646"/>
<line y1="-5" x2="1212.08" y2="-5" transform="matrix(0.866282 -0.499556 0.498895 0.866662 3161 4247.5)" stroke="#ADCC39" stroke-width="10"/>
<line y1="-5" x2="1212.08" y2="-5" transform="matrix(0.866271 0.499574 -0.498914 0.866652 4211 3642)" stroke="#ADCC39" stroke-width="10"/>
<line y1="-5" x2="1212.08" y2="-5" transform="matrix(-0.866271 -0.499574 0.498914 -0.866652 4210.99 6064.02)" stroke="#ADCC39" stroke-width="10"/>
<line y1="-5" x2="1212.08" y2="-5" transform="matrix(-0.866271 0.499574 -0.498914 -0.866652 5260.99 5458.5)" stroke="#ADCC39" stroke-width="10"/>
<line x1="3156" y1="5460.38" x2="3156" y2="4247.5" stroke="#ADCC39" stroke-width="10"/>
<line x1="3156" y1="5460.38" x2="3156" y2="4247.5" stroke="#ADCC39" stroke-width="10"/>
<line x1="5266" y1="4247.5" x2="5266" y2="5460.38" stroke="#ADCC39" stroke-width="10"/>
</g>
<g style="mix-blend-mode:hard-light">
<path d="M4211 4853L3311 4334V5372L4211 4853Z" fill="#232323"/>
<path d="M4211 4853L3311 4334V5372L4211 4853Z" fill="#232323"/>
<path d="M5111 5372L4211 4853V5891L5111 5372Z" fill="#232323"/>
<path d="M5111 5372L4211 4853V5891L5111 5372Z" fill="#232323"/>
<path d="M5111 4334L4211 3815V4853L5111 4334Z" fill="#232323"/>
<path d="M5111 4334L4211 3815V4853L5111 4334Z" fill="#232323"/>
<path d="M4211 4853L5111 4334V5372L4211 4853Z" fill="#232323"/>
<path d="M4211 4853L5111 4334V5372L4211 4853Z" fill="#232323"/>
<path d="M3311 4334L4211 3815V4853L3311 4334Z" fill="#232323"/>
<path d="M3311 4334L4211 3815V4853L3311 4334Z" fill="#232323"/>
<path d="M3311 5372L4211 4853V5891L3311 5372Z" fill="#232323"/>
<path d="M3311 5372L4211 4853V5891L3311 5372Z" fill="#232323"/>
<line y1="-5" x2="1038.92" y2="-5" transform="matrix(0.866282 -0.499556 0.498896 0.866662 3311 4334)" stroke="#ADCC39" stroke-width="10"/>
<line y1="-5" x2="1038.92" y2="-5" transform="matrix(0.866271 0.499574 -0.498914 0.866652 4211 3815)" stroke="#ADCC39" stroke-width="10"/>
<line y1="-5" x2="1038.92" y2="-5" transform="matrix(-0.866271 -0.499574 0.498914 -0.866651 4210.99 5891.02)" stroke="#ADCC39" stroke-width="10"/>
<line y1="-5" x2="1038.92" y2="-5" transform="matrix(-0.866271 0.499574 -0.498914 -0.866652 5110.99 5372)" stroke="#ADCC39" stroke-width="10"/>
<path d="M4211 4853L3311 4334V5372L4211 4853Z" fill="#232323"/>
<path d="M4211 4853L3311 4334V5372L4211 4853Z" fill="#232323"/>
<path d="M5111 5372L4211 4853V5891L5111 5372Z" fill="#232323"/>
<path d="M5111 5372L4211 4853V5891L5111 5372Z" fill="#232323"/>
<path d="M5111 4334L4211 3815V4853L5111 4334Z" fill="#232323"/>
<path d="M5111 4334L4211 3815V4853L5111 4334Z" fill="#232323"/>
<path d="M4211 4853L5111 4334V5372L4211 4853Z" fill="#232323"/>
<path d="M4211 4853L5111 4334V5372L4211 4853Z" fill="#232323"/>
<path d="M3311 4334L4211 3815V4853L3311 4334Z" fill="#232323"/>
<path d="M3311 4334L4211 3815V4853L3311 4334Z" fill="#232323"/>
<path d="M3311 5372L4211 4853V5891L3311 5372Z" fill="#232323"/>
<path d="M3311 5372L4211 4853V5891L3311 5372Z" fill="#232323"/>
<line y1="-5" x2="1038.92" y2="-5" transform="matrix(0.866282 -0.499556 0.498896 0.866662 3311 4334)" stroke="#ADCC39" stroke-width="10"/>
<line y1="-5" x2="1038.92" y2="-5" transform="matrix(0.866271 0.499574 -0.498914 0.866652 4211 3815)" stroke="#ADCC39" stroke-width="10"/>
<line y1="-5" x2="1038.92" y2="-5" transform="matrix(-0.866271 -0.499574 0.498914 -0.866651 4210.99 5891.02)" stroke="#ADCC39" stroke-width="10"/>
<line y1="-5" x2="1038.92" y2="-5" transform="matrix(-0.866271 0.499574 -0.498914 -0.866652 5110.99 5372)" stroke="#ADCC39" stroke-width="10"/>
<line x1="3306" y1="5373.61" x2="3306" y2="4334" stroke="#ADCC39" stroke-width="10"/>
<line x1="3306" y1="5373.61" x2="3306" y2="4334" stroke="#ADCC39" stroke-width="10"/>
<line x1="5116" y1="4334" x2="5116" y2="5373.61" stroke="#ADCC39" stroke-width="10"/>
</g>
<g style="mix-blend-mode:lighten">
<path d="M4211 4854L3461 4421.5V5286.5L4211 4854Z" fill="#F4E646"/>
<path d="M4211 4854L3461 4421.5V5286.5L4211 4854Z" fill="#F4E646"/>
<path d="M4961 5286.5L4211 4854V5719L4961 5286.5Z" fill="#F4E646"/>
<path d="M4961 5286.5L4211 4854V5719L4961 5286.5Z" fill="#F4E646"/>
<path d="M4961 4421.5L4211 3989V4854L4961 4421.5Z" fill="#F4E646"/>
<path d="M4961 4421.5L4211 3989V4854L4961 4421.5Z" fill="#F4E646"/>
<path d="M4211 4854L4961 4421.5V5286.5L4211 4854Z" fill="#F4E646"/>
<path d="M4211 4854L4961 4421.5V5286.5L4211 4854Z" fill="#F4E646"/>
<path d="M3461 4421.5L4211 3989V4854L3461 4421.5Z" fill="#F4E646"/>
<path d="M3461 4421.5L4211 3989V4854L3461 4421.5Z" fill="#F4E646"/>
<path d="M3461 5286.5L4211 4854V5719L3461 5286.5Z" fill="#F4E646"/>
<path d="M3461 5286.5L4211 4854V5719L3461 5286.5Z" fill="#F4E646"/>
<line y1="-5" x2="865.769" y2="-5" transform="matrix(0.866282 -0.499556 0.498895 0.866662 3461 4421.5)" stroke="#ADCC39" stroke-width="10"/>
<line y1="-5" x2="865.769" y2="-5" transform="matrix(0.866271 0.499574 -0.498914 0.866652 4211 3989)" stroke="#ADCC39" stroke-width="10"/>
<line y1="-5" x2="865.769" y2="-5" transform="matrix(-0.866271 -0.499574 0.498914 -0.866652 4210.99 5719.02)" stroke="#ADCC39" stroke-width="10"/>
<line y1="-5" x2="865.769" y2="-5" transform="matrix(-0.866271 0.499574 -0.498914 -0.866652 4960.99 5286.5)" stroke="#ADCC39" stroke-width="10"/>
<path d="M4211 4854L3461 4421.5V5286.5L4211 4854Z" fill="#F4E646"/>
<path d="M4211 4854L3461 4421.5V5286.5L4211 4854Z" fill="#F4E646"/>
<path d="M4961 5286.5L4211 4854V5719L4961 5286.5Z" fill="#F4E646"/>
<path d="M4961 5286.5L4211 4854V5719L4961 5286.5Z" fill="#F4E646"/>
<path d="M4961 4421.5L4211 3989V4854L4961 4421.5Z" fill="#F4E646"/>
<path d="M4961 4421.5L4211 3989V4854L4961 4421.5Z" fill="#F4E646"/>
<path d="M4211 4854L4961 4421.5V5286.5L4211 4854Z" fill="#F4E646"/>
<path d="M4211 4854L4961 4421.5V5286.5L4211 4854Z" fill="#F4E646"/>
<path d="M3461 4421.5L4211 3989V4854L3461 4421.5Z" fill="#F4E646"/>
<path d="M3461 4421.5L4211 3989V4854L3461 4421.5Z" fill="#F4E646"/>
<path d="M3461 5286.5L4211 4854V5719L3461 5286.5Z" fill="#F4E646"/>
<path d="M3461 5286.5L4211 4854V5719L3461 5286.5Z" fill="#F4E646"/>
<line y1="-5" x2="865.769" y2="-5" transform="matrix(0.866282 -0.499556 0.498895 0.866662 3461 4421.5)" stroke="#ADCC39" stroke-width="10"/>
<line y1="-5" x2="865.769" y2="-5" transform="matrix(0.866271 0.499574 -0.498914 0.866652 4211 3989)" stroke="#ADCC39" stroke-width="10"/>
<line y1="-5" x2="865.769" y2="-5" transform="matrix(-0.866271 -0.499574 0.498914 -0.866652 4210.99 5719.02)" stroke="#ADCC39" stroke-width="10"/>
<line y1="-5" x2="865.769" y2="-5" transform="matrix(-0.866271 0.499574 -0.498914 -0.866652 4960.99 5286.5)" stroke="#ADCC39" stroke-width="10"/>
<line x1="3456" y1="5287.84" x2="3456" y2="4421.5" stroke="#ADCC39" stroke-width="10"/>
<line x1="3456" y1="5287.84" x2="3456" y2="4421.5" stroke="#ADCC39" stroke-width="10"/>
<line x1="4966" y1="4421.5" x2="4966" y2="5287.84" stroke="#ADCC39" stroke-width="10"/>
</g>
<g style="mix-blend-mode:hard-light">
<path d="M4211 4854L3611 4508V5200L4211 4854Z" fill="#232323"/>
<path d="M4211 4854L3611 4508V5200L4211 4854Z" fill="#232323"/>
<path d="M4811 5200L4211 4854V5546L4811 5200Z" fill="#232323"/>
<path d="M4811 5200L4211 4854V5546L4811 5200Z" fill="#232323"/>
<path d="M4811 4508L4211 4162V4854L4811 4508Z" fill="#232323"/>
<path d="M4811 4508L4211 4162V4854L4811 4508Z" fill="#232323"/>
<path d="M4211 4854L4811 4508V5200L4211 4854Z" fill="#232323"/>
<path d="M4211 4854L4811 4508V5200L4211 4854Z" fill="#232323"/>
<path d="M3611 4508L4211 4162V4854L3611 4508Z" fill="#232323"/>
<path d="M3611 4508L4211 4162V4854L3611 4508Z" fill="#232323"/>
<path d="M3611 5200L4211 4854V5546L3611 5200Z" fill="#232323"/>
<path d="M3611 5200L4211 4854V5546L3611 5200Z" fill="#232323"/>
<line y1="-5" x2="692.615" y2="-5" transform="matrix(0.866282 -0.499556 0.498895 0.866662 3611 4508)" stroke="#ADCC39" stroke-width="10"/>
<line y1="-5" x2="692.615" y2="-5" transform="matrix(0.866271 0.499574 -0.498914 0.866652 4211 4162)" stroke="#ADCC39" stroke-width="10"/>
<line y1="-5" x2="692.615" y2="-5" transform="matrix(-0.866271 -0.499574 0.498914 -0.866651 4210.99 5546.01)" stroke="#ADCC39" stroke-width="10"/>
<line y1="-5" x2="692.615" y2="-5" transform="matrix(-0.866271 0.499574 -0.498914 -0.866652 4810.99 5200)" stroke="#ADCC39" stroke-width="10"/>
<path d="M4211 4854L3611 4508V5200L4211 4854Z" fill="#232323"/>
<path d="M4211 4854L3611 4508V5200L4211 4854Z" fill="#232323"/>
<path d="M4811 5200L4211 4854V5546L4811 5200Z" fill="#232323"/>
<path d="M4811 5200L4211 4854V5546L4811 5200Z" fill="#232323"/>
<path d="M4811 4508L4211 4162V4854L4811 4508Z" fill="#232323"/>
<path d="M4811 4508L4211 4162V4854L4811 4508Z" fill="#232323"/>
<path d="M4211 4854L4811 4508V5200L4211 4854Z" fill="#232323"/>
<path d="M4211 4854L4811 4508V5200L4211 4854Z" fill="#232323"/>
<path d="M3611 4508L4211 4162V4854L3611 4508Z" fill="#232323"/>
<path d="M3611 4508L4211 4162V4854L3611 4508Z" fill="#232323"/>
<path d="M3611 5200L4211 4854V5546L3611 5200Z" fill="#232323"/>
<path d="M3611 5200L4211 4854V5546L3611 5200Z" fill="#232323"/>
<line y1="-5" x2="692.615" y2="-5" transform="matrix(0.866282 -0.499556 0.498895 0.866662 3611 4508)" stroke="#ADCC39" stroke-width="10"/>
<line y1="-5" x2="692.615" y2="-5" transform="matrix(0.866271 0.499574 -0.498914 0.866652 4211 4162)" stroke="#ADCC39" stroke-width="10"/>
<line y1="-5" x2="692.615" y2="-5" transform="matrix(-0.866271 -0.499574 0.498914 -0.866651 4210.99 5546.01)" stroke="#ADCC39" stroke-width="10"/>
<line y1="-5" x2="692.615" y2="-5" transform="matrix(-0.866271 0.499574 -0.498914 -0.866652 4810.99 5200)" stroke="#ADCC39" stroke-width="10"/>
<line x1="3606" y1="5201.07" x2="3606" y2="4508" stroke="#ADCC39" stroke-width="10"/>
<line x1="3606" y1="5201.07" x2="3606" y2="4508" stroke="#ADCC39" stroke-width="10"/>
<line x1="4816" y1="4508" x2="4816" y2="5201.07" stroke="#ADCC39" stroke-width="10"/>
</g>
<g style="mix-blend-mode:lighten">
<path d="M4211 4853L3761 4593.5V5112.5L4211 4853Z" fill="#F4E646"/>
<path d="M4211 4853L3761 4593.5V5112.5L4211 4853Z" fill="#F4E646"/>
<path d="M4661 5112.5L4211 4853V5372L4661 5112.5Z" fill="#F4E646"/>
<path d="M4661 5112.5L4211 4853V5372L4661 5112.5Z" fill="#F4E646"/>
<path d="M4661 4593.5L4211 4334V4853L4661 4593.5Z" fill="#F4E646"/>
<path d="M4661 4593.5L4211 4334V4853L4661 4593.5Z" fill="#F4E646"/>
<path d="M4211 4853L4661 4593.5V5112.5L4211 4853Z" fill="#F4E646"/>
<path d="M4211 4853L4661 4593.5V5112.5L4211 4853Z" fill="#F4E646"/>
<path d="M3761 4593.5L4211 4334V4853L3761 4593.5Z" fill="#F4E646"/>
<path d="M3761 4593.5L4211 4334V4853L3761 4593.5Z" fill="#F4E646"/>
<path d="M3761 5112.5L4211 4853V5372L3761 5112.5Z" fill="#F4E646"/>
<path d="M3761 5112.5L4211 4853V5372L3761 5112.5Z" fill="#F4E646"/>
<line y1="-5" x2="519.462" y2="-5" transform="matrix(0.866282 -0.499556 0.498896 0.866662 3761 4593.5)" stroke="#ADCC39" stroke-width="10"/>
<line y1="-5" x2="519.462" y2="-5" transform="matrix(0.866271 0.499574 -0.498914 0.866652 4211 4334)" stroke="#ADCC39" stroke-width="10"/>
<line y1="-5" x2="519.462" y2="-5" transform="matrix(-0.866271 -0.499574 0.498914 -0.866651 4210.99 5372.01)" stroke="#ADCC39" stroke-width="10"/>
<line y1="-5" x2="519.462" y2="-5" transform="matrix(-0.866271 0.499574 -0.498914 -0.866652 4660.99 5112.5)" stroke="#ADCC39" stroke-width="10"/>
<path d="M4211 4853L3761 4593.5V5112.5L4211 4853Z" fill="#F4E646"/>
<path d="M4211 4853L3761 4593.5V5112.5L4211 4853Z" fill="#F4E646"/>
<path d="M4661 5112.5L4211 4853V5372L4661 5112.5Z" fill="#F4E646"/>
<path d="M4661 5112.5L4211 4853V5372L4661 5112.5Z" fill="#F4E646"/>
<path d="M4661 4593.5L4211 4334V4853L4661 4593.5Z" fill="#F4E646"/>
<path d="M4661 4593.5L4211 4334V4853L4661 4593.5Z" fill="#F4E646"/>
<path d="M4211 4853L4661 4593.5V5112.5L4211 4853Z" fill="#F4E646"/>
<path d="M4211 4853L4661 4593.5V5112.5L4211 4853Z" fill="#F4E646"/>
<path d="M3761 4593.5L4211 4334V4853L3761 4593.5Z" fill="#F4E646"/>
<path d="M3761 4593.5L4211 4334V4853L3761 4593.5Z" fill="#F4E646"/>
<path d="M3761 5112.5L4211 4853V5372L3761 5112.5Z" fill="#F4E646"/>
<path d="M3761 5112.5L4211 4853V5372L3761 5112.5Z" fill="#F4E646"/>
<line y1="-5" x2="519.462" y2="-5" transform="matrix(0.866282 -0.499556 0.498896 0.866662 3761 4593.5)" stroke="#ADCC39" stroke-width="10"/>
<line y1="-5" x2="519.462" y2="-5" transform="matrix(0.866271 0.499574 -0.498914 0.866652 4211 4334)" stroke="#ADCC39" stroke-width="10"/>
<line y1="-5" x2="519.462" y2="-5" transform="matrix(-0.866271 -0.499574 0.498914 -0.866651 4210.99 5372.01)" stroke="#ADCC39" stroke-width="10"/>
<line y1="-5" x2="519.462" y2="-5" transform="matrix(-0.866271 0.499574 -0.498914 -0.866652 4660.99 5112.5)" stroke="#ADCC39" stroke-width="10"/>
<line x1="3756" y1="5113.3" x2="3756" y2="4593.5" stroke="#ADCC39" stroke-width="10"/>
<line x1="3756" y1="5113.3" x2="3756" y2="4593.5" stroke="#ADCC39" stroke-width="10"/>
<line x1="4666" y1="4593.5" x2="4666" y2="5113.31" stroke="#ADCC39" stroke-width="10"/>
</g>
<g style="mix-blend-mode:hard-light">
<path d="M4211 4853L3911 4680V5026L4211 4853Z" fill="#232323"/>
<path d="M4211 4853L3911 4680V5026L4211 4853Z" fill="#232323"/>
<path d="M4511 5026L4211 4853V5199L4511 5026Z" fill="#232323"/>
<path d="M4511 5026L4211 4853V5199L4511 5026Z" fill="#232323"/>
<path d="M4511 4680L4211 4507V4853L4511 4680Z" fill="#232323"/>
<path d="M4511 4680L4211 4507V4853L4511 4680Z" fill="#232323"/>
<path d="M4211 4853L4511 4680V5026L4211 4853Z" fill="#232323"/>
<path d="M4211 4853L4511 4680V5026L4211 4853Z" fill="#232323"/>
<path d="M3911 4680L4211 4507V4853L3911 4680Z" fill="#232323"/>
<path d="M3911 4680L4211 4507V4853L3911 4680Z" fill="#232323"/>
<path d="M3911 5026L4211 4853V5199L3911 5026Z" fill="#232323"/>
<path d="M3911 5026L4211 4853V5199L3911 5026Z" fill="#232323"/>
<line y1="-5" x2="346.308" y2="-5" transform="matrix(0.866282 -0.499556 0.498895 0.866662 3911 4680)" stroke="#ADCC39" stroke-width="10"/>
<line y1="-5" x2="346.308" y2="-5" transform="matrix(0.866271 0.499574 -0.498914 0.866652 4211 4507)" stroke="#ADCC39" stroke-width="10"/>
<line y1="-5" x2="346.308" y2="-5" transform="matrix(-0.866271 -0.499574 0.498914 -0.866651 4211 5199.01)" stroke="#ADCC39" stroke-width="10"/>
<line y1="-5" x2="346.308" y2="-5" transform="matrix(-0.866271 0.499574 -0.498914 -0.866652 4511 5026)" stroke="#ADCC39" stroke-width="10"/>
<path d="M4211 4853L3911 4680V5026L4211 4853Z" fill="#232323"/>
<path d="M4211 4853L3911 4680V5026L4211 4853Z" fill="#232323"/>
<path d="M4511 5026L4211 4853V5199L4511 5026Z" fill="#232323"/>
<path d="M4511 5026L4211 4853V5199L4511 5026Z" fill="#232323"/>
<path d="M4511 4680L4211 4507V4853L4511 4680Z" fill="#232323"/>
<path d="M4511 4680L4211 4507V4853L4511 4680Z" fill="#232323"/>
<path d="M4211 4853L4511 4680V5026L4211 4853Z" fill="#232323"/>
<path d="M4211 4853L4511 4680V5026L4211 4853Z" fill="#232323"/>
<path d="M3911 4680L4211 4507V4853L3911 4680Z" fill="#232323"/>
<path d="M3911 4680L4211 4507V4853L3911 4680Z" fill="#232323"/>
<path d="M3911 5026L4211 4853V5199L3911 5026Z" fill="#232323"/>
<path d="M3911 5026L4211 4853V5199L3911 5026Z" fill="#232323"/>
<line y1="-5" x2="346.308" y2="-5" transform="matrix(0.866282 -0.499556 0.498895 0.866662 3911 4680)" stroke="#ADCC39" stroke-width="10"/>
<line y1="-5" x2="346.308" y2="-5" transform="matrix(0.866271 0.499574 -0.498914 0.866652 4211 4507)" stroke="#ADCC39" stroke-width="10"/>
<line y1="-5" x2="346.308" y2="-5" transform="matrix(-0.866271 -0.499574 0.498914 -0.866651 4211 5199.01)" stroke="#ADCC39" stroke-width="10"/>
<line y1="-5" x2="346.308" y2="-5" transform="matrix(-0.866271 0.499574 -0.498914 -0.866652 4511 5026)" stroke="#ADCC39" stroke-width="10"/>
<line x1="3906" y1="5026.54" x2="3906" y2="4680" stroke="#ADCC39" stroke-width="10"/>
<line x1="3906" y1="5026.54" x2="3906" y2="4680" stroke="#ADCC39" stroke-width="10"/>
<line x1="4516" y1="4680" x2="4516" y2="5026.54" stroke="#ADCC39" stroke-width="10"/>
</g>
<g style="mix-blend-mode:lighten">
<path d="M4211 4853L4061 4766.5V4939.5L4211 4853Z" fill="#F4E646"/>
<path d="M4211 4853L4061 4766.5V4939.5L4211 4853Z" fill="#F4E646"/>
<path d="M4361 4939.5L4211 4853V5026L4361 4939.5Z" fill="#F4E646"/>
<path d="M4361 4939.5L4211 4853V5026L4361 4939.5Z" fill="#F4E646"/>
<path d="M4361 4766.5L4211 4680V4853L4361 4766.5Z" fill="#F4E646"/>
<path d="M4361 4766.5L4211 4680V4853L4361 4766.5Z" fill="#F4E646"/>
<path d="M4211 4853L4361 4766.5V4939.5L4211 4853Z" fill="#F4E646"/>
<path d="M4211 4853L4361 4766.5V4939.5L4211 4853Z" fill="#F4E646"/>
<path d="M4061 4766.5L4211 4680V4853L4061 4766.5Z" fill="#F4E646"/>
<path d="M4061 4766.5L4211 4680V4853L4061 4766.5Z" fill="#F4E646"/>
<path d="M4061 4939.5L4211 4853V5026L4061 4939.5Z" fill="#F4E646"/>
<path d="M4061 4939.5L4211 4853V5026L4061 4939.5Z" fill="#F4E646"/>
<line y1="-5" x2="173.154" y2="-5" transform="matrix(0.866282 -0.499556 0.498895 0.866662 4061 4766.5)" stroke="#ADCC39" stroke-width="10"/>
<line y1="-5" x2="173.154" y2="-5" transform="matrix(0.866271 0.499574 -0.498914 0.866652 4211 4680)" stroke="#ADCC39" stroke-width="10"/>
<line y1="-5" x2="173.154" y2="-5" transform="matrix(-0.866271 -0.499574 0.498914 -0.866651 4211 5026)" stroke="#ADCC39" stroke-width="10"/>
<line y1="-5" x2="173.154" y2="-5" transform="matrix(-0.866271 0.499574 -0.498914 -0.866652 4361 4939.5)" stroke="#ADCC39" stroke-width="10"/>
<path d="M4211 4853L4061 4766.5V4939.5L4211 4853Z" fill="#F4E646"/>
<path d="M4211 4853L4061 4766.5V4939.5L4211 4853Z" fill="#F4E646"/>
<path d="M4361 4939.5L4211 4853V5026L4361 4939.5Z" fill="#F4E646"/>
<path d="M4361 4939.5L4211 4853V5026L4361 4939.5Z" fill="#F4E646"/>
<path d="M4361 4766.5L4211 4680V4853L4361 4766.5Z" fill="#F4E646"/>
<path d="M4361 4766.5L4211 4680V4853L4361 4766.5Z" fill="#F4E646"/>
<path d="M4211 4853L4361 4766.5V4939.5L4211 4853Z" fill="#F4E646"/>
<path d="M4211 4853L4361 4766.5V4939.5L4211 4853Z" fill="#F4E646"/>
<path d="M4061 4766.5L4211 4680V4853L4061 4766.5Z" fill="#F4E646"/>
<path d="M4061 4766.5L4211 4680V4853L4061 4766.5Z" fill="#F4E646"/>
<path d="M4061 4939.5L4211 4853V5026L4061 4939.5Z" fill="#F4E646"/>
<path d="M4061 4939.5L4211 4853V5026L4061 4939.5Z" fill="#F4E646"/>
<line y1="-5" x2="173.154" y2="-5" transform="matrix(0.866282 -0.499556 0.498895 0.866662 4061 4766.5)" stroke="#ADCC39" stroke-width="10"/>
<line y1="-5" x2="173.154" y2="-5" transform="matrix(0.866271 0.499574 -0.498914 0.866652 4211 4680)" stroke="#ADCC39" stroke-width="10"/>
<line y1="-5" x2="173.154" y2="-5" transform="matrix(-0.866271 -0.499574 0.498914 -0.866651 4211 5026)" stroke="#ADCC39" stroke-width="10"/>
<line y1="-5" x2="173.154" y2="-5" transform="matrix(-0.866271 0.499574 -0.498914 -0.866652 4361 4939.5)" stroke="#ADCC39" stroke-width="10"/>
<line x1="4056" y1="4939.77" x2="4056" y2="4766.5" stroke="#ADCC39" stroke-width="10"/>
<line x1="4056" y1="4939.77" x2="4056" y2="4766.5" stroke="#ADCC39" stroke-width="10"/>
<line x1="4366" y1="4766.5" x2="4366" y2="4939.77" stroke="#ADCC39" stroke-width="10"/>
</g>
<rect width="8421" height="9706" fill="#232323" fill-opacity="0.95"/>
</svg>
